<?xml version="1.0" encoding="utf-8" standalone="no"?>
<!DOCTYPE svg PUBLIC "-//W3C//DTD SVG 1.1//EN"
  "http://www.w3.org/Graphics/SVG/1.1/DTD/svg11.dtd">
<!-- Created with matplotlib (https://matplotlib.org/) -->
<svg height="288pt" version="1.1" viewBox="0 0 432 288" width="432pt" xmlns="http://www.w3.org/2000/svg" xmlns:xlink="http://www.w3.org/1999/xlink">
 <defs>
  <style type="text/css">
*{stroke-linecap:butt;stroke-linejoin:round;}
  </style>
 </defs>
 <g id="figure_1">
  <g id="patch_1">
   <path d="M 0 288 
L 432 288 
L 432 0 
L 0 0 
z
" style="fill:#ffffff;"/>
  </g>
  <g id="axes_1">
   <g id="patch_2">
    <path d="M 54 252 
L 388.8 252 
L 388.8 34.56 
L 54 34.56 
z
" style="fill:#ffffff;"/>
   </g>
   <g id="matplotlib.axis_1">
    <g id="xtick_1">
     <g id="line2d_1">
      <defs>
       <path d="M 0 0 
L 0 3.5 
" id="m9e005ac0b3" style="stroke:#000000;stroke-width:0.8;"/>
      </defs>
      <g>
       <use style="stroke:#000000;stroke-width:0.8;" x="69.218182" xlink:href="#m9e005ac0b3" y="252"/>
      </g>
     </g>
     <g id="text_1">
      <!-- 0.00 -->
      <defs>
       <path d="M 31.78125 66.40625 
Q 24.171875 66.40625 20.328125 58.90625 
Q 16.5 51.421875 16.5 36.375 
Q 16.5 21.390625 20.328125 13.890625 
Q 24.171875 6.390625 31.78125 6.390625 
Q 39.453125 6.390625 43.28125 13.890625 
Q 47.125 21.390625 47.125 36.375 
Q 47.125 51.421875 43.28125 58.90625 
Q 39.453125 66.40625 31.78125 66.40625 
z
M 31.78125 74.21875 
Q 44.046875 74.21875 50.515625 64.515625 
Q 56.984375 54.828125 56.984375 36.375 
Q 56.984375 17.96875 50.515625 8.265625 
Q 44.046875 -1.421875 31.78125 -1.421875 
Q 19.53125 -1.421875 13.0625 8.265625 
Q 6.59375 17.96875 6.59375 36.375 
Q 6.59375 54.828125 13.0625 64.515625 
Q 19.53125 74.21875 31.78125 74.21875 
z
" id="DejaVuSans-48"/>
       <path d="M 10.6875 12.40625 
L 21 12.40625 
L 21 0 
L 10.6875 0 
z
" id="DejaVuSans-46"/>
      </defs>
      <g transform="translate(58.085369 266.598437)scale(0.1 -0.1)">
       <use xlink:href="#DejaVuSans-48"/>
       <use x="63.623047" xlink:href="#DejaVuSans-46"/>
       <use x="95.410156" xlink:href="#DejaVuSans-48"/>
       <use x="159.033203" xlink:href="#DejaVuSans-48"/>
      </g>
     </g>
    </g>
    <g id="xtick_2">
     <g id="line2d_2">
      <g>
       <use style="stroke:#000000;stroke-width:0.8;" x="130.721281" xlink:href="#m9e005ac0b3" y="252"/>
      </g>
     </g>
     <g id="text_2">
      <!-- 0.05 -->
      <defs>
       <path d="M 10.796875 72.90625 
L 49.515625 72.90625 
L 49.515625 64.59375 
L 19.828125 64.59375 
L 19.828125 46.734375 
Q 21.96875 47.46875 24.109375 47.828125 
Q 26.265625 48.1875 28.421875 48.1875 
Q 40.625 48.1875 47.75 41.5 
Q 54.890625 34.8125 54.890625 23.390625 
Q 54.890625 11.625 47.5625 5.09375 
Q 40.234375 -1.421875 26.90625 -1.421875 
Q 22.3125 -1.421875 17.546875 -0.640625 
Q 12.796875 0.140625 7.71875 1.703125 
L 7.71875 11.625 
Q 12.109375 9.234375 16.796875 8.0625 
Q 21.484375 6.890625 26.703125 6.890625 
Q 35.15625 6.890625 40.078125 11.328125 
Q 45.015625 15.765625 45.015625 23.390625 
Q 45.015625 31 40.078125 35.4375 
Q 35.15625 39.890625 26.703125 39.890625 
Q 22.75 39.890625 18.8125 39.015625 
Q 14.890625 38.140625 10.796875 36.28125 
z
" id="DejaVuSans-53"/>
      </defs>
      <g transform="translate(119.588468 266.598437)scale(0.1 -0.1)">
       <use xlink:href="#DejaVuSans-48"/>
       <use x="63.623047" xlink:href="#DejaVuSans-46"/>
       <use x="95.410156" xlink:href="#DejaVuSans-48"/>
       <use x="159.033203" xlink:href="#DejaVuSans-53"/>
      </g>
     </g>
    </g>
    <g id="xtick_3">
     <g id="line2d_3">
      <g>
       <use style="stroke:#000000;stroke-width:0.8;" x="192.22438" xlink:href="#m9e005ac0b3" y="252"/>
      </g>
     </g>
     <g id="text_3">
      <!-- 0.10 -->
      <defs>
       <path d="M 12.40625 8.296875 
L 28.515625 8.296875 
L 28.515625 63.921875 
L 10.984375 60.40625 
L 10.984375 69.390625 
L 28.421875 72.90625 
L 38.28125 72.90625 
L 38.28125 8.296875 
L 54.390625 8.296875 
L 54.390625 0 
L 12.40625 0 
z
" id="DejaVuSans-49"/>
      </defs>
      <g transform="translate(181.091568 266.598437)scale(0.1 -0.1)">
       <use xlink:href="#DejaVuSans-48"/>
       <use x="63.623047" xlink:href="#DejaVuSans-46"/>
       <use x="95.410156" xlink:href="#DejaVuSans-49"/>
       <use x="159.033203" xlink:href="#DejaVuSans-48"/>
      </g>
     </g>
    </g>
    <g id="xtick_4">
     <g id="line2d_4">
      <g>
       <use style="stroke:#000000;stroke-width:0.8;" x="253.727479" xlink:href="#m9e005ac0b3" y="252"/>
      </g>
     </g>
     <g id="text_4">
      <!-- 0.15 -->
      <g transform="translate(242.594667 266.598437)scale(0.1 -0.1)">
       <use xlink:href="#DejaVuSans-48"/>
       <use x="63.623047" xlink:href="#DejaVuSans-46"/>
       <use x="95.410156" xlink:href="#DejaVuSans-49"/>
       <use x="159.033203" xlink:href="#DejaVuSans-53"/>
      </g>
     </g>
    </g>
    <g id="xtick_5">
     <g id="line2d_5">
      <g>
       <use style="stroke:#000000;stroke-width:0.8;" x="315.230579" xlink:href="#m9e005ac0b3" y="252"/>
      </g>
     </g>
     <g id="text_5">
      <!-- 0.20 -->
      <defs>
       <path d="M 19.1875 8.296875 
L 53.609375 8.296875 
L 53.609375 0 
L 7.328125 0 
L 7.328125 8.296875 
Q 12.9375 14.109375 22.625 23.890625 
Q 32.328125 33.6875 34.8125 36.53125 
Q 39.546875 41.84375 41.421875 45.53125 
Q 43.3125 49.21875 43.3125 52.78125 
Q 43.3125 58.59375 39.234375 62.25 
Q 35.15625 65.921875 28.609375 65.921875 
Q 23.96875 65.921875 18.8125 64.3125 
Q 13.671875 62.703125 7.8125 59.421875 
L 7.8125 69.390625 
Q 13.765625 71.78125 18.9375 73 
Q 24.125 74.21875 28.421875 74.21875 
Q 39.75 74.21875 46.484375 68.546875 
Q 53.21875 62.890625 53.21875 53.421875 
Q 53.21875 48.921875 51.53125 44.890625 
Q 49.859375 40.875 45.40625 35.40625 
Q 44.1875 33.984375 37.640625 27.21875 
Q 31.109375 20.453125 19.1875 8.296875 
z
" id="DejaVuSans-50"/>
      </defs>
      <g transform="translate(304.097766 266.598437)scale(0.1 -0.1)">
       <use xlink:href="#DejaVuSans-48"/>
       <use x="63.623047" xlink:href="#DejaVuSans-46"/>
       <use x="95.410156" xlink:href="#DejaVuSans-50"/>
       <use x="159.033203" xlink:href="#DejaVuSans-48"/>
      </g>
     </g>
    </g>
    <g id="xtick_6">
     <g id="line2d_6">
      <g>
       <use style="stroke:#000000;stroke-width:0.8;" x="376.733678" xlink:href="#m9e005ac0b3" y="252"/>
      </g>
     </g>
     <g id="text_6">
      <!-- 0.25 -->
      <g transform="translate(365.600865 266.598437)scale(0.1 -0.1)">
       <use xlink:href="#DejaVuSans-48"/>
       <use x="63.623047" xlink:href="#DejaVuSans-46"/>
       <use x="95.410156" xlink:href="#DejaVuSans-50"/>
       <use x="159.033203" xlink:href="#DejaVuSans-53"/>
      </g>
     </g>
    </g>
    <g id="text_7">
     <!-- Time (sec) -->
     <defs>
      <path d="M -0.296875 72.90625 
L 61.375 72.90625 
L 61.375 64.59375 
L 35.5 64.59375 
L 35.5 0 
L 25.59375 0 
L 25.59375 64.59375 
L -0.296875 64.59375 
z
" id="DejaVuSans-84"/>
      <path d="M 9.421875 54.6875 
L 18.40625 54.6875 
L 18.40625 0 
L 9.421875 0 
z
M 9.421875 75.984375 
L 18.40625 75.984375 
L 18.40625 64.59375 
L 9.421875 64.59375 
z
" id="DejaVuSans-105"/>
      <path d="M 52 44.1875 
Q 55.375 50.25 60.0625 53.125 
Q 64.75 56 71.09375 56 
Q 79.640625 56 84.28125 50.015625 
Q 88.921875 44.046875 88.921875 33.015625 
L 88.921875 0 
L 79.890625 0 
L 79.890625 32.71875 
Q 79.890625 40.578125 77.09375 44.375 
Q 74.3125 48.1875 68.609375 48.1875 
Q 61.625 48.1875 57.5625 43.546875 
Q 53.515625 38.921875 53.515625 30.90625 
L 53.515625 0 
L 44.484375 0 
L 44.484375 32.71875 
Q 44.484375 40.625 41.703125 44.40625 
Q 38.921875 48.1875 33.109375 48.1875 
Q 26.21875 48.1875 22.15625 43.53125 
Q 18.109375 38.875 18.109375 30.90625 
L 18.109375 0 
L 9.078125 0 
L 9.078125 54.6875 
L 18.109375 54.6875 
L 18.109375 46.1875 
Q 21.1875 51.21875 25.484375 53.609375 
Q 29.78125 56 35.6875 56 
Q 41.65625 56 45.828125 52.96875 
Q 50 49.953125 52 44.1875 
z
" id="DejaVuSans-109"/>
      <path d="M 56.203125 29.59375 
L 56.203125 25.203125 
L 14.890625 25.203125 
Q 15.484375 15.921875 20.484375 11.0625 
Q 25.484375 6.203125 34.421875 6.203125 
Q 39.59375 6.203125 44.453125 7.46875 
Q 49.3125 8.734375 54.109375 11.28125 
L 54.109375 2.78125 
Q 49.265625 0.734375 44.1875 -0.34375 
Q 39.109375 -1.421875 33.890625 -1.421875 
Q 20.796875 -1.421875 13.15625 6.1875 
Q 5.515625 13.8125 5.515625 26.8125 
Q 5.515625 40.234375 12.765625 48.109375 
Q 20.015625 56 32.328125 56 
Q 43.359375 56 49.78125 48.890625 
Q 56.203125 41.796875 56.203125 29.59375 
z
M 47.21875 32.234375 
Q 47.125 39.59375 43.09375 43.984375 
Q 39.0625 48.390625 32.421875 48.390625 
Q 24.90625 48.390625 20.390625 44.140625 
Q 15.875 39.890625 15.1875 32.171875 
z
" id="DejaVuSans-101"/>
      <path id="DejaVuSans-32"/>
      <path d="M 31 75.875 
Q 24.46875 64.65625 21.28125 53.65625 
Q 18.109375 42.671875 18.109375 31.390625 
Q 18.109375 20.125 21.3125 9.0625 
Q 24.515625 -2 31 -13.1875 
L 23.1875 -13.1875 
Q 15.875 -1.703125 12.234375 9.375 
Q 8.59375 20.453125 8.59375 31.390625 
Q 8.59375 42.28125 12.203125 53.3125 
Q 15.828125 64.359375 23.1875 75.875 
z
" id="DejaVuSans-40"/>
      <path d="M 44.28125 53.078125 
L 44.28125 44.578125 
Q 40.484375 46.53125 36.375 47.5 
Q 32.28125 48.484375 27.875 48.484375 
Q 21.1875 48.484375 17.84375 46.4375 
Q 14.5 44.390625 14.5 40.28125 
Q 14.5 37.15625 16.890625 35.375 
Q 19.28125 33.59375 26.515625 31.984375 
L 29.59375 31.296875 
Q 39.15625 29.25 43.1875 25.515625 
Q 47.21875 21.78125 47.21875 15.09375 
Q 47.21875 7.46875 41.1875 3.015625 
Q 35.15625 -1.421875 24.609375 -1.421875 
Q 20.21875 -1.421875 15.453125 -0.5625 
Q 10.6875 0.296875 5.421875 2 
L 5.421875 11.28125 
Q 10.40625 8.6875 15.234375 7.390625 
Q 20.0625 6.109375 24.8125 6.109375 
Q 31.15625 6.109375 34.5625 8.28125 
Q 37.984375 10.453125 37.984375 14.40625 
Q 37.984375 18.0625 35.515625 20.015625 
Q 33.0625 21.96875 24.703125 23.78125 
L 21.578125 24.515625 
Q 13.234375 26.265625 9.515625 29.90625 
Q 5.8125 33.546875 5.8125 39.890625 
Q 5.8125 47.609375 11.28125 51.796875 
Q 16.75 56 26.8125 56 
Q 31.78125 56 36.171875 55.265625 
Q 40.578125 54.546875 44.28125 53.078125 
z
" id="DejaVuSans-115"/>
      <path d="M 48.78125 52.59375 
L 48.78125 44.1875 
Q 44.96875 46.296875 41.140625 47.34375 
Q 37.3125 48.390625 33.40625 48.390625 
Q 24.65625 48.390625 19.8125 42.84375 
Q 14.984375 37.3125 14.984375 27.296875 
Q 14.984375 17.28125 19.8125 11.734375 
Q 24.65625 6.203125 33.40625 6.203125 
Q 37.3125 6.203125 41.140625 7.25 
Q 44.96875 8.296875 48.78125 10.40625 
L 48.78125 2.09375 
Q 45.015625 0.34375 40.984375 -0.53125 
Q 36.96875 -1.421875 32.421875 -1.421875 
Q 20.0625 -1.421875 12.78125 6.34375 
Q 5.515625 14.109375 5.515625 27.296875 
Q 5.515625 40.671875 12.859375 48.328125 
Q 20.21875 56 33.015625 56 
Q 37.15625 56 41.109375 55.140625 
Q 45.0625 54.296875 48.78125 52.59375 
z
" id="DejaVuSans-99"/>
      <path d="M 8.015625 75.875 
L 15.828125 75.875 
Q 23.140625 64.359375 26.78125 53.3125 
Q 30.421875 42.28125 30.421875 31.390625 
Q 30.421875 20.453125 26.78125 9.375 
Q 23.140625 -1.703125 15.828125 -13.1875 
L 8.015625 -13.1875 
Q 14.5 -2 17.703125 9.0625 
Q 20.90625 20.125 20.90625 31.390625 
Q 20.90625 42.671875 17.703125 53.65625 
Q 14.5 64.65625 8.015625 75.875 
z
" id="DejaVuSans-41"/>
     </defs>
     <g transform="translate(195.091406 280.276563)scale(0.1 -0.1)">
      <use xlink:href="#DejaVuSans-84"/>
      <use x="61.037109" xlink:href="#DejaVuSans-105"/>
      <use x="88.820312" xlink:href="#DejaVuSans-109"/>
      <use x="186.232422" xlink:href="#DejaVuSans-101"/>
      <use x="247.755859" xlink:href="#DejaVuSans-32"/>
      <use x="279.542969" xlink:href="#DejaVuSans-40"/>
      <use x="318.556641" xlink:href="#DejaVuSans-115"/>
      <use x="370.65625" xlink:href="#DejaVuSans-101"/>
      <use x="432.179688" xlink:href="#DejaVuSans-99"/>
      <use x="487.160156" xlink:href="#DejaVuSans-41"/>
     </g>
    </g>
   </g>
   <g id="matplotlib.axis_2">
    <g id="ytick_1">
     <g id="line2d_7">
      <defs>
       <path d="M 0 0 
L -3.5 0 
" id="m6b8a1ac5ae" style="stroke:#000000;stroke-width:0.8;"/>
      </defs>
      <g>
       <use style="stroke:#000000;stroke-width:0.8;" x="54" xlink:href="#m6b8a1ac5ae" y="245.021767"/>
      </g>
     </g>
     <g id="text_8">
      <!-- −4000 -->
      <defs>
       <path d="M 10.59375 35.5 
L 73.1875 35.5 
L 73.1875 27.203125 
L 10.59375 27.203125 
z
" id="DejaVuSans-8722"/>
       <path d="M 37.796875 64.3125 
L 12.890625 25.390625 
L 37.796875 25.390625 
z
M 35.203125 72.90625 
L 47.609375 72.90625 
L 47.609375 25.390625 
L 58.015625 25.390625 
L 58.015625 17.1875 
L 47.609375 17.1875 
L 47.609375 0 
L 37.796875 0 
L 37.796875 17.1875 
L 4.890625 17.1875 
L 4.890625 26.703125 
z
" id="DejaVuSans-52"/>
      </defs>
      <g transform="translate(13.170313 248.820986)scale(0.1 -0.1)">
       <use xlink:href="#DejaVuSans-8722"/>
       <use x="83.789062" xlink:href="#DejaVuSans-52"/>
       <use x="147.412109" xlink:href="#DejaVuSans-48"/>
       <use x="211.035156" xlink:href="#DejaVuSans-48"/>
       <use x="274.658203" xlink:href="#DejaVuSans-48"/>
      </g>
     </g>
    </g>
    <g id="ytick_2">
     <g id="line2d_8">
      <g>
       <use style="stroke:#000000;stroke-width:0.8;" x="54" xlink:href="#m6b8a1ac5ae" y="202.914466"/>
      </g>
     </g>
     <g id="text_9">
      <!-- −2000 -->
      <g transform="translate(13.170313 206.713685)scale(0.1 -0.1)">
       <use xlink:href="#DejaVuSans-8722"/>
       <use x="83.789062" xlink:href="#DejaVuSans-50"/>
       <use x="147.412109" xlink:href="#DejaVuSans-48"/>
       <use x="211.035156" xlink:href="#DejaVuSans-48"/>
       <use x="274.658203" xlink:href="#DejaVuSans-48"/>
      </g>
     </g>
    </g>
    <g id="ytick_3">
     <g id="line2d_9">
      <g>
       <use style="stroke:#000000;stroke-width:0.8;" x="54" xlink:href="#m6b8a1ac5ae" y="160.807164"/>
      </g>
     </g>
     <g id="text_10">
      <!-- 0 -->
      <g transform="translate(40.6375 164.606383)scale(0.1 -0.1)">
       <use xlink:href="#DejaVuSans-48"/>
      </g>
     </g>
    </g>
    <g id="ytick_4">
     <g id="line2d_10">
      <g>
       <use style="stroke:#000000;stroke-width:0.8;" x="54" xlink:href="#m6b8a1ac5ae" y="118.699863"/>
      </g>
     </g>
     <g id="text_11">
      <!-- 2000 -->
      <g transform="translate(21.55 122.499081)scale(0.1 -0.1)">
       <use xlink:href="#DejaVuSans-50"/>
       <use x="63.623047" xlink:href="#DejaVuSans-48"/>
       <use x="127.246094" xlink:href="#DejaVuSans-48"/>
       <use x="190.869141" xlink:href="#DejaVuSans-48"/>
      </g>
     </g>
    </g>
    <g id="ytick_5">
     <g id="line2d_11">
      <g>
       <use style="stroke:#000000;stroke-width:0.8;" x="54" xlink:href="#m6b8a1ac5ae" y="76.592561"/>
      </g>
     </g>
     <g id="text_12">
      <!-- 4000 -->
      <g transform="translate(21.55 80.39178)scale(0.1 -0.1)">
       <use xlink:href="#DejaVuSans-52"/>
       <use x="63.623047" xlink:href="#DejaVuSans-48"/>
       <use x="127.246094" xlink:href="#DejaVuSans-48"/>
       <use x="190.869141" xlink:href="#DejaVuSans-48"/>
      </g>
     </g>
    </g>
    <g id="ytick_6">
     <g id="line2d_12">
      <g>
       <use style="stroke:#000000;stroke-width:0.8;" x="54" xlink:href="#m6b8a1ac5ae" y="34.48526"/>
      </g>
     </g>
     <g id="text_13">
      <!-- 6000 -->
      <defs>
       <path d="M 33.015625 40.375 
Q 26.375 40.375 22.484375 35.828125 
Q 18.609375 31.296875 18.609375 23.390625 
Q 18.609375 15.53125 22.484375 10.953125 
Q 26.375 6.390625 33.015625 6.390625 
Q 39.65625 6.390625 43.53125 10.953125 
Q 47.40625 15.53125 47.40625 23.390625 
Q 47.40625 31.296875 43.53125 35.828125 
Q 39.65625 40.375 33.015625 40.375 
z
M 52.59375 71.296875 
L 52.59375 62.3125 
Q 48.875 64.0625 45.09375 64.984375 
Q 41.3125 65.921875 37.59375 65.921875 
Q 27.828125 65.921875 22.671875 59.328125 
Q 17.53125 52.734375 16.796875 39.40625 
Q 19.671875 43.65625 24.015625 45.921875 
Q 28.375 48.1875 33.59375 48.1875 
Q 44.578125 48.1875 50.953125 41.515625 
Q 57.328125 34.859375 57.328125 23.390625 
Q 57.328125 12.15625 50.6875 5.359375 
Q 44.046875 -1.421875 33.015625 -1.421875 
Q 20.359375 -1.421875 13.671875 8.265625 
Q 6.984375 17.96875 6.984375 36.375 
Q 6.984375 53.65625 15.1875 63.9375 
Q 23.390625 74.21875 37.203125 74.21875 
Q 40.921875 74.21875 44.703125 73.484375 
Q 48.484375 72.75 52.59375 71.296875 
z
" id="DejaVuSans-54"/>
      </defs>
      <g transform="translate(21.55 38.284478)scale(0.1 -0.1)">
       <use xlink:href="#DejaVuSans-54"/>
       <use x="63.623047" xlink:href="#DejaVuSans-48"/>
       <use x="127.246094" xlink:href="#DejaVuSans-48"/>
       <use x="190.869141" xlink:href="#DejaVuSans-48"/>
      </g>
     </g>
    </g>
    <g id="text_14">
     <!-- Amplitude -->
     <defs>
      <path d="M 34.1875 63.1875 
L 20.796875 26.90625 
L 47.609375 26.90625 
z
M 28.609375 72.90625 
L 39.796875 72.90625 
L 67.578125 0 
L 57.328125 0 
L 50.6875 18.703125 
L 17.828125 18.703125 
L 11.1875 0 
L 0.78125 0 
z
" id="DejaVuSans-65"/>
      <path d="M 18.109375 8.203125 
L 18.109375 -20.796875 
L 9.078125 -20.796875 
L 9.078125 54.6875 
L 18.109375 54.6875 
L 18.109375 46.390625 
Q 20.953125 51.265625 25.265625 53.625 
Q 29.59375 56 35.59375 56 
Q 45.5625 56 51.78125 48.09375 
Q 58.015625 40.1875 58.015625 27.296875 
Q 58.015625 14.40625 51.78125 6.484375 
Q 45.5625 -1.421875 35.59375 -1.421875 
Q 29.59375 -1.421875 25.265625 0.953125 
Q 20.953125 3.328125 18.109375 8.203125 
z
M 48.6875 27.296875 
Q 48.6875 37.203125 44.609375 42.84375 
Q 40.53125 48.484375 33.40625 48.484375 
Q 26.265625 48.484375 22.1875 42.84375 
Q 18.109375 37.203125 18.109375 27.296875 
Q 18.109375 17.390625 22.1875 11.75 
Q 26.265625 6.109375 33.40625 6.109375 
Q 40.53125 6.109375 44.609375 11.75 
Q 48.6875 17.390625 48.6875 27.296875 
z
" id="DejaVuSans-112"/>
      <path d="M 9.421875 75.984375 
L 18.40625 75.984375 
L 18.40625 0 
L 9.421875 0 
z
" id="DejaVuSans-108"/>
      <path d="M 18.3125 70.21875 
L 18.3125 54.6875 
L 36.8125 54.6875 
L 36.8125 47.703125 
L 18.3125 47.703125 
L 18.3125 18.015625 
Q 18.3125 11.328125 20.140625 9.421875 
Q 21.96875 7.515625 27.59375 7.515625 
L 36.8125 7.515625 
L 36.8125 0 
L 27.59375 0 
Q 17.1875 0 13.234375 3.875 
Q 9.28125 7.765625 9.28125 18.015625 
L 9.28125 47.703125 
L 2.6875 47.703125 
L 2.6875 54.6875 
L 9.28125 54.6875 
L 9.28125 70.21875 
z
" id="DejaVuSans-116"/>
      <path d="M 8.5 21.578125 
L 8.5 54.6875 
L 17.484375 54.6875 
L 17.484375 21.921875 
Q 17.484375 14.15625 20.5 10.265625 
Q 23.53125 6.390625 29.59375 6.390625 
Q 36.859375 6.390625 41.078125 11.03125 
Q 45.3125 15.671875 45.3125 23.6875 
L 45.3125 54.6875 
L 54.296875 54.6875 
L 54.296875 0 
L 45.3125 0 
L 45.3125 8.40625 
Q 42.046875 3.421875 37.71875 1 
Q 33.40625 -1.421875 27.6875 -1.421875 
Q 18.265625 -1.421875 13.375 4.4375 
Q 8.5 10.296875 8.5 21.578125 
z
M 31.109375 56 
z
" id="DejaVuSans-117"/>
      <path d="M 45.40625 46.390625 
L 45.40625 75.984375 
L 54.390625 75.984375 
L 54.390625 0 
L 45.40625 0 
L 45.40625 8.203125 
Q 42.578125 3.328125 38.25 0.953125 
Q 33.9375 -1.421875 27.875 -1.421875 
Q 17.96875 -1.421875 11.734375 6.484375 
Q 5.515625 14.40625 5.515625 27.296875 
Q 5.515625 40.1875 11.734375 48.09375 
Q 17.96875 56 27.875 56 
Q 33.9375 56 38.25 53.625 
Q 42.578125 51.265625 45.40625 46.390625 
z
M 14.796875 27.296875 
Q 14.796875 17.390625 18.875 11.75 
Q 22.953125 6.109375 30.078125 6.109375 
Q 37.203125 6.109375 41.296875 11.75 
Q 45.40625 17.390625 45.40625 27.296875 
Q 45.40625 37.203125 41.296875 42.84375 
Q 37.203125 48.484375 30.078125 48.484375 
Q 22.953125 48.484375 18.875 42.84375 
Q 14.796875 37.203125 14.796875 27.296875 
z
" id="DejaVuSans-100"/>
     </defs>
     <g transform="translate(7.090625 168.902656)rotate(-90)scale(0.1 -0.1)">
      <use xlink:href="#DejaVuSans-65"/>
      <use x="68.408203" xlink:href="#DejaVuSans-109"/>
      <use x="165.820312" xlink:href="#DejaVuSans-112"/>
      <use x="229.296875" xlink:href="#DejaVuSans-108"/>
      <use x="257.080078" xlink:href="#DejaVuSans-105"/>
      <use x="284.863281" xlink:href="#DejaVuSans-116"/>
      <use x="324.072266" xlink:href="#DejaVuSans-117"/>
      <use x="387.451172" xlink:href="#DejaVuSans-100"/>
      <use x="450.927734" xlink:href="#DejaVuSans-101"/>
     </g>
    </g>
   </g>
   <g id="line2d_13">
    <path clip-path="url(#pe6cb1a8ce0)" d="M 69.218182 154.954249 
L 69.246077 154.78582 
L 69.273972 154.848981 
L 69.469238 148.911852 
L 69.580818 150.132963 
L 69.608713 149.543461 
L 69.803979 144.911658 
L 69.831874 145.164302 
L 70.02714 152.806777 
L 70.110826 154.154211 
L 70.361882 164.259963 
L 70.445567 163.270441 
L 70.473462 163.502032 
L 70.585043 163.817836 
L 70.836099 157.354366 
L 70.975574 157.817546 
L 71.17084 153.733138 
L 71.198735 154.470015 
L 71.366106 157.712278 
L 71.394001 156.74381 
L 71.449791 157.480687 
L 71.505582 158.364941 
L 71.533477 157.164883 
L 71.561372 157.922814 
L 71.589267 158.007029 
L 71.784533 161.038754 
L 71.924008 158.891282 
L 71.951903 159.270248 
L 72.035589 161.101915 
L 72.063484 160.701896 
L 72.147169 157.122775 
L 72.202959 158.07019 
L 72.37033 161.670364 
L 72.398225 160.407145 
L 72.481911 161.291398 
L 72.509806 161.333506 
L 72.649281 164.512607 
L 72.816652 166.975884 
L 72.900337 166.112684 
L 72.956128 166.512704 
L 73.123498 170.365522 
L 73.179289 169.165464 
L 73.290869 167.523279 
L 73.318764 167.544333 
L 73.346659 167.607493 
L 73.430345 168.260157 
L 73.45824 167.670654 
L 73.486135 166.639026 
L 73.56982 167.207474 
L 73.765086 168.891766 
L 73.820876 167.418011 
L 73.848771 168.323318 
L 74.044037 172.218243 
L 74.071932 172.112975 
L 74.295093 175.060486 
L 74.629835 161.628257 
L 74.964576 140.006157 
L 75.131947 136.911271 
L 75.80143 170.028663 
L 75.829325 169.481268 
L 75.85722 170.070771 
L 75.91301 171.860331 
L 75.940905 170.428683 
L 76.247752 163.6073 
L 76.526703 157.564902 
L 76.582493 157.775439 
L 76.638283 158.575477 
L 76.666178 157.628063 
L 76.777759 156.596434 
L 76.833549 157.017507 
L 76.861444 157.354366 
L 76.889339 156.659595 
L 77.168291 147.753901 
L 77.196186 148.280242 
L 77.224081 146.722272 
L 77.419347 142.279952 
L 77.475137 142.343113 
L 77.670403 146.069609 
L 77.726193 146.617004 
L 77.949354 157.43858 
L 77.977249 157.459634 
L 78.033039 158.807067 
L 78.116725 162.491456 
L 78.172515 162.070383 
L 78.284095 164.07048 
L 78.339886 163.986266 
L 78.674627 157.396473 
L 78.702522 157.775439 
L 78.897788 153.143635 
L 79.009368 156.34379 
L 79.065159 156.154307 
L 79.148844 152.785723 
L 79.204634 153.85946 
L 79.28832 153.648923 
L 79.316215 154.680552 
L 79.372005 154.09105 
L 79.3999 154.638445 
L 79.427795 155.712181 
L 79.483585 154.32264 
L 79.51148 155.059518 
L 79.567271 155.733234 
L 79.595166 154.975303 
L 79.623061 155.143732 
L 79.678851 156.322737 
L 79.818327 156.280629 
L 79.846222 156.259576 
L 79.902012 156.491166 
L 79.929907 155.964825 
L 80.069383 159.986072 
L 80.180963 161.965115 
L 80.404124 168.175942 
L 80.48781 169.376 
L 80.5436 167.312742 
L 80.59939 167.860137 
L 80.627285 169.102303 
L 80.683075 167.754869 
L 80.710971 167.754869 
L 80.794656 168.807552 
L 80.822551 168.091727 
L 80.850446 167.944352 
L 80.878341 169.249678 
L 80.934132 168.007513 
L 80.989922 165.923201 
L 81.045712 167.081152 
L 81.268873 170.154985 
L 81.380453 173.797267 
L 81.464139 172.344565 
L 81.547824 170.891863 
L 81.6873 176.40792 
L 81.715195 175.944739 
L 81.74309 176.028954 
L 81.85467 173.460408 
L 81.882566 173.776213 
L 82.077831 180.576542 
L 82.105726 179.460699 
L 82.133622 177.755353 
L 82.189412 179.29227 
L 82.356783 184.955702 
L 82.384678 184.281985 
L 82.831 149.269764 
L 83.082056 129.184581 
L 83.444692 153.45944 
L 83.723643 177.523763 
L 83.863119 186.913691 
L 83.918909 184.955702 
L 84.058385 176.302651 
L 84.114175 179.018572 
L 84.169965 179.75545 
L 84.281546 174.428876 
L 84.421021 163.944158 
L 84.504707 164.870519 
L 84.560497 165.817933 
L 84.616287 165.16527 
L 85.034714 154.743713 
L 85.313665 143.732653 
L 85.453141 138.469241 
L 85.508931 139.900889 
L 86.122624 177.313227 
L 86.150519 176.323705 
L 86.178414 176.63951 
L 86.680526 146.869647 
L 86.792106 150.048749 
L 86.820001 151.227753 
L 86.903687 150.511929 
L 86.959477 148.996066 
L 86.987372 149.143442 
L 87.126848 158.196512 
L 87.210533 156.870132 
L 87.238428 155.480591 
L 87.322114 156.027986 
L 87.461589 162.175652 
L 87.62896 147.29072 
L 87.712645 147.774954 
L 87.796331 150.827734 
L 87.852121 149.901373 
L 87.963701 145.143248 
L 88.047387 146.953862 
L 88.493709 164.007319 
L 88.577394 162.259866 
L 88.688974 159.249194 
L 88.71687 159.817643 
L 88.800555 163.670461 
L 88.856345 162.786207 
L 89.023716 152.933099 
L 89.079506 154.280533 
L 89.246877 162.912529 
L 89.358457 161.64931 
L 89.748989 177.79746 
L 89.860569 179.565967 
L 89.888465 178.934358 
L 90.02794 175.207861 
L 90.08373 175.755256 
L 90.139521 175.523666 
L 90.251101 177.7343 
L 90.334786 175.460505 
L 90.362682 176.597402 
L 90.418472 177.397441 
L 90.669528 188.724305 
L 90.809003 194.324576 
L 90.892689 194.092986 
L 91.032164 178.955411 
L 91.534277 101.688513 
L 91.562172 101.477976 
L 91.952703 145.227463 
L 92.147969 182.471371 
L 92.175864 182.17662 
L 92.231654 184.008287 
L 92.287445 187.987427 
L 92.399025 199.903794 
L 92.42692 198.724789 
L 92.510606 185.75574 
L 92.622186 173.228818 
L 92.650081 175.165754 
L 92.705871 179.12384 
L 92.761662 178.723821 
L 92.845347 166.175845 
L 92.956928 150.722466 
L 92.984823 151.459343 
L 93.124298 167.986459 
L 93.207984 163.986266 
L 93.347459 153.291011 
L 93.375354 155.691127 
L 93.45904 160.428199 
L 93.51483 159.39657 
L 93.737991 134.637476 
L 93.765886 135.395408 
L 93.821676 135.500676 
L 93.905362 129.900405 
L 94.016942 121.752642 
L 94.044837 123.500095 
L 94.574844 197.124712 
L 94.686425 191.440226 
L 94.742215 188.934842 
L 94.798005 189.650666 
L 94.853796 191.019153 
L 94.881691 190.787563 
L 94.965376 178.829089 
L 95.411698 117.099785 
L 95.439593 115.85762 
L 95.467488 118.868292 
L 95.830125 142.61681 
L 95.9696 159.922911 
L 96.025391 158.722853 
L 96.109076 156.175361 
L 96.136971 156.954346 
L 96.276447 164.617875 
L 96.332237 162.828315 
L 96.527503 150.280339 
L 96.555398 150.617197 
L 96.639083 152.343597 
L 96.666978 151.122485 
L 96.834349 148.196027 
L 96.862244 149.459247 
L 97.00172 156.280629 
L 97.029615 154.575284 
L 97.16909 152.154114 
L 97.336461 158.828121 
L 97.364356 157.943868 
L 97.531727 149.01712 
L 97.699098 156.070093 
L 97.754888 155.080571 
L 97.810678 152.954153 
L 97.838573 153.943674 
L 98.14542 168.91282 
L 98.257 175.039432 
L 98.340685 178.723821 
L 98.36858 178.702767 
L 98.508056 175.355237 
L 98.535951 176.513188 
L 98.591741 178.765928 
L 98.619637 181.229206 
L 98.703322 180.871293 
L 98.870693 177.207958 
L 98.898588 178.576446 
L 99.45649 198.430038 
L 99.51228 198.408985 
L 99.595966 199.124809 
L 99.568071 198.345824 
L 99.623861 198.724789 
L 99.679651 199.630096 
L 99.763336 190.808617 
L 100.321239 84.087661 
L 100.377029 92.867033 
L 100.5444 133.037399 
L 100.572295 130.384639 
L 100.628085 124.636992 
L 100.683875 129.479332 
L 100.879141 190.36649 
L 100.990722 184.42936 
L 101.018617 185.145185 
L 101.185987 212.851789 
L 101.241778 203.314485 
L 101.381253 172.323511 
L 101.409148 173.98675 
L 101.520729 187.671623 
L 101.576519 182.745068 
L 101.74389 148.490779 
L 101.79968 153.943674 
L 101.939156 173.249872 
L 101.994946 166.617972 
L 102.134421 148.069706 
L 102.162317 149.353978 
L 102.190212 149.775051 
L 102.301792 156.74381 
L 102.524953 126.995001 
L 102.580743 128.868776 
L 102.608638 130.4478 
L 102.664429 129.837244 
L 102.803904 120.721013 
L 102.831799 122.047393 
L 103.333912 198.830058 
L 103.389702 206.409372 
L 103.445492 204.556651 
L 103.668653 187.94532 
L 103.752338 180.955508 
L 104.25445 118.426165 
L 104.310241 118.678809 
L 104.393926 126.552874 
L 104.561297 136.953378 
L 104.589192 136.84811 
L 104.617087 136.995485 
L 104.840248 161.691418 
L 104.951828 158.028082 
L 105.007619 155.375322 
L 105.063409 157.459634 
L 105.174989 164.681036 
L 105.23078 162.596725 
L 105.34236 155.143732 
L 105.39815 155.775342 
L 105.509731 164.428392 
L 105.565521 162.470403 
L 105.677102 153.817352 
L 105.732892 155.459537 
L 105.844472 163.291495 
L 105.900262 160.807164 
L 106.067633 151.03827 
L 106.095528 152.13306 
L 106.179214 157.775439 
L 106.235004 155.775342 
L 106.346584 149.269764 
L 106.402375 149.94348 
L 106.625536 162.301973 
L 106.653431 161.480881 
L 106.681326 161.291398 
L 106.709221 161.522988 
L 106.820801 170.618166 
L 106.932382 178.808036 
L 107.016067 178.639607 
L 107.043962 178.618553 
L 107.267123 189.376968 
L 107.295018 186.934745 
L 107.406599 181.881869 
L 107.434494 182.239781 
L 107.62976 192.092889 
L 107.657655 191.019153 
L 107.68555 190.408597 
L 107.74134 190.703348 
L 107.964501 202.472339 
L 107.992396 201.903891 
L 108.131872 204.198739 
L 108.271348 206.493586 
L 108.327138 205.630387 
L 108.578194 178.492231 
L 108.77346 129.921459 
L 108.801355 130.889927 
L 108.857145 133.479526 
L 108.88504 132.553165 
L 109.080306 77.666297 
L 109.136096 89.33002 
L 109.275572 136.511251 
L 109.331362 131.521536 
L 109.387152 125.731782 
L 109.442942 130.826766 
L 109.638208 201.230174 
L 109.721894 191.966567 
L 109.749789 190.82967 
L 109.777684 191.840246 
L 109.945055 222.241717 
L 110.000845 212.767574 
L 110.14032 179.587021 
L 110.196111 185.271507 
L 110.279796 193.629806 
L 110.307691 193.082411 
L 110.502957 151.143539 
L 110.586642 162.217759 
L 110.670328 172.512994 
L 110.726118 169.502322 
L 110.893489 148.406564 
L 110.977174 151.733041 
L 111.005069 153.248904 
L 111.060859 152.848884 
L 111.256125 130.489907 
L 111.367706 127.458181 
L 111.395601 128.005576 
L 111.535076 124.805421 
L 111.562971 125.479138 
L 111.590867 126.089694 
L 112.204559 209.588473 
L 112.595091 167.607493 
L 112.874042 126.194962 
L 113.041413 112.57325 
L 113.069308 113.962791 
L 113.264574 128.005576 
L 113.292469 126.995001 
L 113.320364 127.226591 
L 113.404049 134.848013 
L 113.655105 158.30178 
L 113.683 158.028082 
L 113.822476 159.733428 
L 113.878266 158.828121 
L 113.906161 160.007126 
L 113.934057 159.712374 
L 113.961952 161.18613 
L 114.045637 160.807164 
L 114.185113 153.291011 
L 114.240903 153.354172 
L 114.324588 155.670073 
L 114.352483 154.743713 
L 114.491959 147.774954 
L 114.519854 149.353978 
L 114.631434 153.92262 
L 114.65933 152.890992 
L 114.798805 142.174683 
L 114.854595 144.511639 
L 114.966176 151.290914 
L 114.994071 149.375032 
L 115.133547 146.006448 
L 115.161442 147.606525 
L 115.245127 153.269957 
L 115.384603 161.670364 
L 115.412498 161.586149 
L 115.830925 181.966083 
L 115.85882 181.818708 
L 115.886715 182.260834 
L 116.02619 184.997809 
L 116.054086 184.618843 
L 116.137771 179.376484 
L 116.193561 180.429167 
L 116.388827 188.766413 
L 116.416722 188.050588 
L 116.444617 186.555779 
L 116.528303 187.671623 
L 116.695673 199.630096 
L 116.751463 199.01954 
L 116.779359 198.535306 
L 116.807254 199.524828 
L 116.835149 199.65115 
L 117.00252 204.998777 
L 117.253576 192.598177 
L 117.337261 178.66066 
L 117.532527 121.247354 
L 117.588317 123.457988 
L 117.644107 126.93184 
L 117.672002 124.489617 
L 117.783583 91.161687 
L 117.867268 72.78185 
L 117.895163 76.318864 
L 118.090429 131.458375 
L 118.146219 125.900211 
L 118.174115 123.8159 
L 118.229905 127.731879 
L 118.425171 197.566839 
L 118.508856 191.187582 
L 118.564646 189.755934 
L 118.732017 214.051847 
L 118.787807 207.819966 
L 118.955178 176.176329 
L 119.010968 181.523957 
L 119.066758 185.608365 
L 119.094653 183.881966 
L 119.206234 163.080959 
L 119.317814 146.848594 
L 119.34571 148.953959 
L 119.485185 162.112491 
L 119.540975 160.154501 
L 119.792031 140.406177 
L 119.847822 143.290527 
L 119.903612 142.8484 
L 120.182563 116.741873 
L 120.266248 123.057968 
L 120.461514 131.858394 
L 120.991521 210.0306 
L 121.047312 206.51464 
L 121.80048 116.110264 
L 121.884165 109.625739 
L 121.91206 110.278402 
L 122.107326 131.121517 
L 122.135221 130.67939 
L 122.163116 130.363585 
L 122.191012 130.953087 
L 122.330487 151.754094 
L 122.414173 159.670267 
L 122.442068 158.385994 
L 122.553648 147.480203 
L 122.609438 150.406661 
L 122.748914 165.944255 
L 122.804704 161.944061 
L 122.94418 146.36436 
L 122.972075 146.82754 
L 123.11155 158.659692 
L 123.139446 157.333312 
L 123.278921 144.743229 
L 123.362607 148.406564 
L 123.446292 152.575187 
L 123.474187 151.775148 
L 123.613663 139.942996 
L 123.641558 142.027308 
L 123.781033 151.943577 
L 123.836824 149.648729 
L 123.948404 141.943093 
L 123.976299 143.837922 
L 124.14367 168.407532 
L 124.25525 164.323124 
L 124.283145 163.417817 
L 124.311041 164.554714 
L 124.366831 170.93397 
L 124.506306 183.334571 
L 124.534202 182.913498 
L 124.645782 177.10269 
L 124.701572 177.271119 
L 124.813153 183.545107 
L 124.868943 181.734493 
L 124.980523 177.355334 
L 125.008419 178.323802 
L 125.064209 183.145088 
L 125.203684 191.166529 
L 125.231579 190.345436 
L 125.28737 187.440033 
L 125.34316 189.608559 
L 125.426845 200.240652 
L 125.566321 209.609527 
L 125.622111 209.104239 
L 125.705796 207.567323 
L 125.733692 208.998971 
L 125.817377 212.367555 
L 125.873167 211.272765 
L 126.040538 198.703736 
L 126.152118 186.597887 
L 126.403174 118.805131 
L 126.514755 123.205344 
L 126.59844 102.109586 
L 126.710021 67.181579 
L 126.765811 77.497868 
L 126.933182 133.10056 
L 126.988972 128.552971 
L 127.044762 123.563256 
L 127.072657 125.14228 
L 127.546874 216.683553 
L 127.574769 219.167884 
L 127.602665 218.157309 
L 127.79793 186.61894 
L 127.853721 191.334958 
L 127.937406 194.956186 
L 127.965301 193.01925 
L 128.188462 156.701702 
L 128.216357 159.417623 
L 128.355833 169.733912 
L 128.383728 167.839084 
L 128.551099 146.174877 
L 128.634784 140.616713 
L 128.690574 141.164108 
L 128.77426 144.048458 
L 128.802155 143.206312 
L 129.025316 112.594304 
L 129.081106 117.036624 
L 129.666903 186.787369 
L 129.834274 208.409469 
L 129.890064 206.430426 
L 130.280596 166.49165 
L 130.475862 126.23707 
L 130.503757 126.70025 
L 130.531652 127.33186 
L 130.559547 126.110748 
L 130.754813 110.194188 
L 130.810603 112.80484 
L 131.28482 160.765057 
L 131.312715 159.817643 
L 131.34061 159.986072 
L 131.368506 159.901857 
L 131.396401 159.417623 
L 131.424296 160.512413 
L 131.452191 160.638735 
L 131.619562 173.565677 
L 131.675352 169.102303 
L 131.814827 151.859363 
L 131.870618 152.743616 
L 131.954303 156.912239 
L 131.982198 156.280629 
L 132.149569 140.953572 
L 132.233254 144.911658 
L 132.31694 148.574993 
L 132.37273 146.259092 
L 132.456415 141.732557 
L 132.48431 143.837922 
L 132.679576 160.365038 
L 132.763261 159.038658 
L 132.791157 158.891282 
L 132.846947 161.017701 
L 133.014317 179.165948 
L 133.042213 178.934358 
L 133.098003 176.113168 
L 133.181688 170.976078 
L 133.209583 172.365619 
L 133.349059 183.713536 
L 133.432744 181.08183 
L 133.51643 174.976271 
L 133.57222 177.713246 
L 133.739591 187.671623 
L 133.795381 187.587408 
L 133.851171 186.745262 
L 133.879066 187.587408 
L 134.409073 220.957445 
L 134.520654 216.6625 
L 134.576444 215.7993 
L 134.604339 216.725661 
L 134.71592 220.767962 
L 134.743815 220.094245 
L 134.939081 189.398022 
L 135.496983 60.402304 
L 135.524878 63.476137 
L 136.082781 206.577801 
L 136.194361 200.198545 
L 136.278046 211.714892 
L 136.389627 226.368233 
L 136.417522 223.462829 
L 136.584893 189.250647 
L 136.640683 190.703348 
L 136.696473 196.724693 
L 136.752263 192.471855 
L 136.947529 153.291011 
L 137.031215 160.32293 
L 137.142795 168.04962 
L 137.17069 166.344274 
L 137.393851 138.679777 
L 137.449641 139.227172 
L 137.533327 141.606235 
L 137.561222 140.785142 
L 137.812278 109.078344 
L 137.895963 114.468079 
L 138.119124 128.679293 
L 138.174914 134.574315 
L 138.677027 212.325448 
L 139.011768 178.344855 
L 139.151244 144.490585 
L 139.318614 116.468176 
L 139.346509 117.457697 
L 139.374404 118.068253 
L 139.4023 117.41559 
L 139.430195 117.562966 
L 139.597565 105.162365 
L 139.625461 106.762443 
L 139.709146 116.78398 
L 139.904412 138.974528 
L 140.155468 160.575574 
L 140.211258 157.501741 
L 140.294943 155.459537 
L 140.434419 165.754772 
L 140.462314 165.544236 
L 140.65758 142.279952 
L 140.685475 144.385317 
L 140.824951 156.322737 
L 140.992321 140.027211 
L 141.048112 143.753707 
L 141.187587 153.206796 
L 141.215482 151.564612 
L 141.299168 147.627579 
L 141.354958 149.438193 
L 141.522329 160.933486 
L 141.578119 159.017604 
L 141.633909 158.175458 
L 141.661804 159.186033 
L 141.85707 176.828993 
L 141.91286 174.302554 
L 141.996546 170.028663 
L 142.052336 170.849756 
L 142.191811 183.608268 
L 142.247602 180.913401 
L 142.387077 172.681423 
L 142.414972 172.955121 
L 142.610238 183.503 
L 142.666028 182.17662 
L 142.693924 182.787176 
L 143.11235 210.0306 
L 143.279721 222.936488 
L 143.307616 222.852273 
L 143.391302 220.094245 
L 143.419197 220.620586 
L 143.558672 228.663081 
L 143.586567 227.084057 
L 143.726043 206.767284 
L 144.31184 48.570152 
L 144.395526 66.592077 
L 144.535001 112.952216 
L 144.590792 108.088823 
L 144.646582 103.351751 
L 144.674477 104.720239 
L 144.786057 154.55423 
L 144.925533 201.84073 
L 144.953428 201.061745 
L 145.009218 198.935326 
L 145.037114 200.830154 
L 145.148694 222.473307 
L 145.204484 229.715763 
L 145.260274 223.420722 
L 145.427645 194.850918 
L 145.45554 196.177298 
L 145.539226 201.6723 
L 145.567121 198.366877 
L 145.678701 172.091921 
L 145.790282 155.122679 
L 145.818177 157.038561 
L 145.957652 171.628741 
L 146.013443 167.565386 
L 146.236604 139.648245 
L 146.292394 142.806293 
L 146.348184 145.838019 
L 146.403974 143.416849 
L 146.48766 129.626707 
L 146.65503 103.983361 
L 146.682925 106.025565 
L 146.822401 118.27879 
L 146.906086 117.268214 
L 146.933982 116.72082 
L 147.045562 132.384736 
L 147.491884 211.230658 
L 147.519779 212.599145 
L 147.547674 210.872746 
L 147.882416 177.292173 
L 148.133472 115.162849 
L 148.245052 115.520761 
L 148.412423 97.561997 
L 148.468213 102.509605 
L 148.719269 133.837438 
L 148.88664 162.807261 
L 148.94243 166.639026 
L 148.99822 162.870422 
L 149.054011 157.375419 
L 149.109801 159.249194 
L 149.249276 173.670945 
L 149.305067 166.154792 
L 149.444542 141.100947 
L 149.500332 143.164205 
L 149.611913 152.954153 
L 149.639808 151.859363 
L 149.807179 132.279467 
L 149.862969 136.237554 
L 149.974549 152.280436 
L 150.03034 151.943577 
L 150.114025 146.069609 
L 150.169815 148.027598 
L 150.337186 166.596918 
L 150.392976 163.291495 
L 150.448766 159.354462 
L 150.504557 161.122969 
L 150.671927 181.271313 
L 150.699823 178.618553 
L 150.811403 164.849465 
L 150.867193 167.017991 
L 151.006669 182.197673 
L 151.034564 180.808133 
L 151.201935 168.091727 
L 151.22983 171.249775 
L 151.369305 187.145281 
L 151.452991 184.008287 
L 151.480886 182.218727 
L 151.536676 184.471468 
L 152.038788 229.842085 
L 152.150369 226.136643 
L 152.206159 224.38919 
L 152.234054 224.957638 
L 152.37353 236.389771 
L 152.401425 235.821322 
L 152.48511 221.062713 
L 153.098803 50.801839 
L 153.126698 51.138697 
L 153.210383 75.60304 
L 153.349859 106.551906 
L 153.377754 104.804453 
L 153.433544 101.625352 
L 153.461439 104.467595 
L 153.57302 150.048749 
L 153.768286 203.209217 
L 153.851971 207.904181 
L 154.019342 232.663274 
L 154.047237 229.421012 
L 154.214607 206.325157 
L 154.270398 208.577898 
L 154.298293 208.556844 
L 154.381978 201.714408 
L 154.577244 164.323124 
L 154.633034 167.165367 
L 154.744615 177.229012 
L 154.77251 176.302651 
L 154.995671 143.7116 
L 155.107251 148.364457 
L 155.135146 149.059227 
L 155.163041 147.480203 
L 155.246727 136.384929 
L 155.441993 104.278112 
L 155.469888 104.572863 
L 155.693049 113.394343 
L 155.720944 112.910109 
L 155.860419 135.332247 
L 156.278846 211.251712 
L 156.306741 211.293819 
L 156.557797 199.503774 
L 156.585693 198.408985 
L 157.143595 97.51989 
L 157.17149 97.498836 
L 157.701497 177.839568 
L 157.757287 172.955121 
L 157.868868 167.481172 
L 157.896763 170.028663 
L 157.952553 173.776213 
L 158.008344 171.860331 
L 158.231504 131.37416 
L 158.31519 139.374548 
L 158.398875 143.922136 
L 158.42677 142.15363 
L 158.538351 131.479429 
L 158.594141 135.184871 
L 158.789407 162.912529 
L 158.873092 161.038754 
L 159.096253 177.250066 
L 159.152043 173.75516 
L 159.207834 168.365425 
L 159.291519 170.765541 
L 159.430995 181.671332 
L 159.57047 164.723143 
L 159.62626 166.617972 
L 159.765736 182.892444 
L 159.821526 181.060776 
L 159.933107 169.818127 
L 159.988897 173.018282 
L 160.156268 190.955992 
L 160.212058 189.019056 
L 160.295743 186.703155 
L 160.491009 204.746133 
L 160.574694 203.125002 
L 160.71417 214.262384 
L 160.853646 223.252293 
L 160.881541 222.220664 
L 160.937331 220.978498 
L 160.965226 221.189035 
L 161.104702 236.495039 
L 161.132597 239.779408 
L 161.188387 238.74778 
L 161.272072 224.957638 
L 161.885765 47.517469 
L 161.91366 48.549098 
L 162.108926 99.162075 
L 162.192611 92.256477 
L 162.220506 92.256477 
L 162.276297 105.562385 
L 162.611038 205.483011 
L 162.778409 232.515899 
L 162.834199 227.50513 
L 163.029465 206.725177 
L 163.05736 206.704123 
L 163.085255 206.91466 
L 163.16894 196.514156 
L 163.364206 158.828121 
L 163.392101 161.901954 
L 163.531577 174.007803 
L 163.559472 172.744584 
L 163.754738 145.059033 
L 163.838423 148.132867 
L 163.894214 151.754094 
L 163.950004 150.80668 
L 164.005794 144.111619 
L 164.228955 103.499127 
L 164.284745 104.993936 
L 164.619487 118.299843 
L 164.898438 181.292367 
L 165.093704 202.661822 
L 165.177389 204.409275 
L 165.205284 204.114524 
L 165.34476 196.450995 
L 165.51213 152.76467 
L 165.679501 118.910399 
L 165.707396 119.794653 
L 165.763186 122.468466 
L 165.791082 121.078925 
L 165.930557 98.61468 
L 166.014243 106.741389 
L 166.209508 145.459053 
L 166.237403 145.416946 
L 166.293194 149.564515 
L 166.460564 171.79717 
L 166.54425 165.207377 
L 166.627935 158.933389 
L 166.683725 161.438774 
L 166.739516 164.323124 
L 166.767411 163.354656 
L 166.878991 145.122194 
L 166.990572 126.868679 
L 167.046362 130.574122 
L 167.157942 143.164205 
L 167.241628 139.564031 
L 167.325313 132.089985 
L 167.381103 134.911174 
L 167.576369 167.081152 
L 167.660054 160.32293 
L 167.68795 158.554424 
L 167.74374 161.628257 
L 167.85532 174.197286 
L 167.911111 172.386672 
L 168.022691 161.165076 
L 168.078481 164.786304 
L 168.190062 174.470984 
L 168.245852 173.018282 
L 168.357432 160.470306 
L 168.413223 163.670461 
L 168.552698 182.597693 
L 168.636384 176.197383 
L 168.747964 169.502322 
L 168.775859 170.618166 
L 168.94323 185.966277 
L 168.99902 184.976755 
L 169.110601 182.745068 
L 169.891664 235.568678 
L 170.003244 242.116364 
L 170.03114 239.842569 
L 170.170615 199.924847 
L 170.421671 145.395892 
L 170.505357 123.58431 
L 170.700622 49.53862 
L 170.728518 53.349331 
L 170.895888 94.319735 
L 170.951678 91.161687 
L 171.007469 89.014215 
L 171.035364 91.182741 
L 171.146944 133.374257 
L 171.370105 196.514156 
L 171.593266 224.094439 
L 171.649056 219.673172 
L 171.816427 206.893606 
L 171.844322 207.967342 
L 171.900112 206.577801 
L 172.011693 183.692483 
L 172.151169 160.470306 
L 172.179064 161.501935 
L 172.346434 177.629031 
L 172.402225 172.765638 
L 172.5417 153.754191 
L 172.59749 154.78582 
L 172.709071 160.259769 
L 172.764861 158.933389 
L 173.183288 106.17294 
L 173.211183 106.720335 
L 173.406449 110.509993 
L 173.518029 122.615842 
L 173.992246 194.282469 
L 174.075932 199.398506 
L 174.103827 198.766897 
L 174.243302 172.070867 
L 174.578044 123.121129 
L 174.633834 120.594691 
L 174.689624 121.794749 
L 174.745415 123.500095 
L 174.801205 122.573734 
L 174.856995 121.457891 
L 174.88489 122.0895 
L 175.052261 146.911755 
L 175.191736 154.217372 
L 175.219632 152.301489 
L 175.275422 153.522601 
L 175.442793 158.722853 
L 175.470688 157.270151 
L 175.498583 157.375419 
L 175.749639 138.40608 
L 175.861219 140.069318 
L 175.889114 140.237747 
L 176.056485 145.26957 
L 176.14017 148.364457 
L 176.168066 148.217081 
L 176.558597 168.554908 
L 176.642283 166.154792 
L 176.670178 166.175845 
L 176.893339 172.89196 
L 176.949129 175.102593 
L 177.032814 174.997325 
L 177.1165 171.923492 
L 177.17229 172.02876 
L 177.255975 174.723627 
L 177.423346 179.692289 
L 177.534926 177.7343 
L 177.841773 187.650569 
L 178.037039 194.11404 
L 178.399675 216.725661 
L 178.48336 214.87294 
L 178.539151 213.567613 
L 178.594941 214.515027 
L 178.678626 220.662693 
L 178.734416 225.505033 
L 178.790207 223.715473 
L 178.901787 188.197964 
L 179.013368 159.85975 
L 179.041263 162.554617 
L 179.124948 172.155082 
L 179.180738 167.102206 
L 179.376004 96.151403 
L 179.45969 114.825991 
L 179.543375 127.858201 
L 179.57127 124.847529 
L 179.710746 105.036043 
L 179.738641 110.573153 
L 179.933907 155.796395 
L 179.989697 151.375129 
L 180.017592 151.459343 
L 180.101277 168.344371 
L 180.240753 194.387737 
L 180.268648 193.335055 
L 180.408124 178.618553 
L 180.436019 181.671332 
L 180.575494 199.524828 
L 180.631285 195.503581 
L 180.82655 172.849853 
L 180.854445 174.849949 
L 180.966026 182.724015 
L 181.021816 179.881772 
L 181.161292 174.239393 
L 181.328662 168.007513 
L 181.496033 161.038754 
L 181.886565 130.932034 
L 181.91446 132.089985 
L 181.942355 131.247839 
L 181.97025 131.437321 
L 182.109726 134.469047 
L 182.137621 132.047877 
L 182.193411 132.86897 
L 182.360782 149.859266 
L 182.556048 167.839084 
L 182.611838 166.470596 
L 182.639733 165.86004 
L 182.667628 166.765347 
L 182.807104 171.039239 
L 182.862894 171.018185 
L 182.946579 166.281113 
L 183.281321 139.606138 
L 183.365006 140.364069 
L 183.392901 140.490391 
L 183.532377 134.490101 
L 183.560272 135.584891 
L 183.616062 138.40608 
L 183.839223 153.964728 
L 183.978699 159.543945 
L 184.034489 156.912239 
L 184.062384 157.375419 
L 184.146069 152.36465 
L 184.20186 153.080474 
L 184.285545 156.154307 
L 184.31344 155.733234 
L 184.536601 137.985007 
L 184.620286 141.227269 
L 184.731867 143.31158 
L 184.787657 142.701025 
L 184.815552 141.879932 
L 184.871343 142.511542 
L 185.010818 149.101334 
L 185.289769 162.04933 
L 185.373455 165.881094 
L 185.40135 165.060002 
L 185.45714 163.417817 
L 185.51293 164.575768 
L 185.56872 166.154792 
L 185.736091 175.08154 
L 185.763986 174.386769 
L 185.847672 170.765541 
L 185.931357 171.986653 
L 186.098728 180.471274 
L 186.126623 178.344855 
L 186.182413 179.965987 
L 186.238203 181.439742 
L 186.293994 180.45022 
L 186.489259 183.145088 
L 186.991372 210.577995 
L 187.158742 218.494167 
L 187.242428 220.746908 
L 187.298218 226.326126 
L 187.549274 240.979466 
L 187.660854 217.967826 
L 187.85612 150.322446 
L 187.91191 150.490875 
L 187.939806 151.922524 
L 187.967701 149.311871 
L 188.051386 115.773405 
L 188.190862 44.675227 
L 188.246652 53.05458 
L 188.386127 95.035559 
L 188.441918 89.835307 
L 188.525603 83.308676 
L 188.553498 88.86684 
L 189.05561 232.010611 
L 189.167191 211.335926 
L 189.250876 198.577414 
L 189.306666 203.609236 
L 189.362457 208.493683 
L 189.418247 205.630387 
L 189.641408 151.66988 
L 189.697198 158.701799 
L 189.808778 172.49194 
L 189.864569 169.565483 
L 190.004044 160.32293 
L 190.031939 161.017701 
L 190.171415 166.596918 
L 190.394576 149.838212 
L 190.673527 104.257058 
L 190.757212 106.551906 
L 190.813003 108.425681 
L 190.868793 107.941447 
L 190.952478 105.393955 
L 190.980373 106.046619 
L 191.091954 127.942415 
L 191.370905 182.681907 
L 191.594066 198.577414 
L 191.621961 198.493199 
L 191.677751 195.145669 
L 191.984598 135.079603 
L 192.179864 116.236586 
L 192.235654 115.015474 
L 192.263549 116.3208 
L 192.291444 116.805034 
L 192.403024 113.815416 
L 192.43092 114.99442 
L 192.709871 155.522698 
L 192.849346 151.227753 
L 192.988822 159.375516 
L 193.072507 156.996453 
L 193.351458 134.069028 
L 193.435144 132.321575 
L 193.463039 134.047974 
L 193.490934 133.879545 
L 193.993046 157.691224 
L 194.104627 165.291592 
L 194.160417 164.491553 
L 194.244102 160.238716 
L 194.299893 160.638735 
L 194.467263 171.944546 
L 194.523053 171.228721 
L 194.634634 165.62845 
L 194.690424 167.565386 
L 194.857795 175.1447 
L 194.88569 173.923589 
L 194.94148 175.376291 
L 194.969375 175.039432 
L 195.108851 178.618553 
L 195.164641 178.071158 
L 195.220431 177.7343 
L 195.276222 177.650085 
L 195.359907 182.766122 
L 195.527278 190.787563 
L 195.555173 190.492812 
L 195.583068 189.145378 
L 195.638858 189.798041 
L 195.750439 198.914272 
L 195.889914 213.693935 
L 195.945705 213.020218 
L 196.113075 223.189132 
L 196.308341 237.779312 
L 196.392026 238.705672 
L 196.447817 232.894865 
L 196.949929 77.939995 
L 197.033614 44.443636 
L 197.089404 53.244062 
L 197.22888 94.067091 
L 197.28467 89.287913 
L 197.34046 82.129671 
L 197.396251 85.182451 
L 197.898363 223.673366 
L 197.926258 222.704898 
L 198.093629 191.987621 
L 198.149419 198.872165 
L 198.233104 205.883031 
L 198.260999 203.209217 
L 198.456265 152.427811 
L 198.539951 163.502032 
L 198.651531 177.271119 
L 198.707321 172.618262 
L 198.818902 163.059905 
L 198.846797 163.438871 
L 198.958377 171.018185 
L 199.014168 168.365425 
L 199.348909 130.510961 
L 199.544175 104.38338 
L 199.655755 109.394149 
L 199.711545 107.562481 
L 199.767336 103.793878 
L 199.823126 104.488648 
L 199.906811 118.552487 
L 200.269448 187.966374 
L 200.408923 197.714214 
L 200.436819 196.556263 
L 200.464714 196.450995 
L 200.687875 168.954927 
L 201.078406 118.678809 
L 201.245777 108.888861 
L 201.273672 111.47846 
L 201.803679 159.333409 
L 201.85947 158.322833 
L 202.110526 144.153727 
L 202.277896 131.984716 
L 202.305791 132.258414 
L 202.445267 137.985007 
L 202.473162 137.31129 
L 202.501057 136.61652 
L 202.528952 137.669202 
L 202.556848 137.458666 
L 202.612638 137.374451 
L 202.640533 140.006157 
L 203.003169 164.259963 
L 203.031065 163.417817 
L 203.086855 164.912626 
L 203.11475 164.217856 
L 203.449491 172.807745 
L 203.477386 171.965599 
L 203.616862 169.165464 
L 203.644757 169.944449 
L 204.174764 182.029244 
L 204.453716 193.440323 
L 204.481611 192.871874 
L 204.509506 194.092986 
L 204.927933 218.641543 
L 205.290569 240.621554 
L 205.318464 239.863623 
L 205.430045 213.967633 
L 205.625311 155.18584 
L 205.653206 155.291108 
L 205.708996 157.270151 
L 205.792681 131.942609 
L 205.960052 55.117837 
L 206.015842 67.097365 
L 206.155318 99.288397 
L 206.183213 94.488164 
L 206.266898 84.25609 
L 206.294793 85.266665 
L 206.434269 142.974722 
L 206.60164 179.039626 
L 206.741115 210.788531 
L 206.824801 224.199707 
L 206.852696 220.87323 
L 206.992171 195.566742 
L 207.047962 201.082798 
L 207.159542 212.472823 
L 207.187437 208.346308 
L 207.382703 157.228044 
L 207.438493 164.238909 
L 207.550074 181.123937 
L 207.605864 178.765928 
L 207.74534 167.628547 
L 207.773235 169.523376 
L 207.91271 175.860525 
L 207.968501 173.165657 
L 208.163766 159.16498 
L 208.470613 112.699572 
L 208.526403 113.920684 
L 208.554298 114.868098 
L 208.610088 113.289074 
L 208.721669 107.26773 
L 208.777459 109.815222 
L 209.363256 198.008965 
L 209.419047 197.019444 
L 209.502732 192.429748 
L 209.614312 176.323705 
L 209.921159 127.773986 
L 210.004844 123.626417 
L 210.14432 111.331085 
L 210.20011 113.878577 
L 210.674327 159.438677 
L 210.758012 160.975593 
L 211.176439 132.174199 
L 211.260124 134.02692 
L 211.371705 137.985007 
L 211.45539 136.595466 
L 211.483285 136.237554 
L 211.511181 137.142861 
L 211.539076 136.595466 
L 211.650656 145.080087 
L 211.929607 164.323124 
L 211.985398 164.028373 
L 212.264349 174.955218 
L 212.375929 172.765638 
L 212.403824 174.365715 
L 212.431719 171.649794 
L 212.459615 172.070867 
L 212.515405 170.323414 
L 212.571195 170.870809 
L 212.822251 176.260544 
L 212.850146 175.923686 
L 212.905936 176.0079 
L 212.933832 175.039432 
L 213.017517 175.165754 
L 213.938056 220.494264 
L 214.244902 238.095116 
L 214.300692 233.379099 
L 214.412273 201.482818 
L 214.635434 154.954249 
L 214.691224 149.775051 
L 214.914385 60.654947 
L 214.99807 75.350396 
L 215.109651 95.288203 
L 215.137546 94.17236 
L 215.221231 85.708792 
L 215.249126 87.266762 
L 215.332812 111.710051 
L 215.583868 176.702671 
L 215.779134 215.378227 
L 215.834924 210.599048 
L 215.974399 193.314001 
L 216.002295 194.97724 
L 216.113875 204.072417 
L 216.14177 201.714408 
L 216.337036 158.659692 
L 216.420721 167.965406 
L 216.532302 180.155469 
L 216.588092 177.250066 
L 216.699673 167.649601 
L 216.727568 169.081249 
L 216.867043 174.765735 
L 216.922834 172.512994 
L 217.424946 108.909915 
L 217.536526 112.215338 
L 217.564421 112.783787 
L 217.592316 111.225817 
L 217.703897 106.383477 
L 217.731792 107.836179 
L 217.871268 138.342919 
L 218.150219 181.881869 
L 218.317589 197.798429 
L 218.345485 197.040497 
L 218.42917 193.65086 
L 218.652331 163.438871 
L 218.931282 121.878964 
L 219.154443 116.173425 
L 219.210233 117.099785 
L 219.68445 157.354366 
L 219.768136 160.744003 
L 219.796031 159.62816 
L 219.823926 159.375516 
L 220.270248 130.784658 
L 220.326038 131.268892 
L 220.493409 139.50087 
L 220.521304 139.353494 
L 220.577094 140.65882 
L 220.688674 146.027501 
L 220.88394 165.312646 
L 220.967626 163.628353 
L 220.995521 163.333602 
L 221.023416 161.81774 
L 221.079206 164.386285 
L 221.246577 172.786692 
L 221.302367 170.765541 
L 221.330262 169.565483 
L 221.413948 169.628644 
L 221.525528 172.997228 
L 221.581318 171.1024 
L 221.692899 168.470693 
L 221.720794 169.83918 
L 221.860269 177.523763 
L 221.91606 175.923686 
L 222.02764 171.923492 
L 222.08343 174.176233 
L 222.334486 184.59779 
L 222.362382 183.650375 
L 222.418172 184.997809 
L 223.031864 218.704704 
L 223.05976 218.91524 
L 223.310816 234.242298 
L 223.366606 229.589441 
L 223.478186 204.135578 
L 223.729242 148.911852 
L 223.757138 148.090759 
L 223.868718 114.889152 
L 224.008194 63.434029 
L 224.063984 69.097461 
L 224.203459 96.19351 
L 224.25925 92.67755 
L 224.31504 89.7932 
L 224.342935 91.014312 
L 224.454515 124.27908 
L 224.677676 174.092018 
L 224.872942 213.946579 
L 224.928732 209.041078 
L 225.068208 189.776988 
L 225.123998 192.766606 
L 225.207684 200.872262 
L 225.235579 200.240652 
L 225.430845 159.459731 
L 225.51453 166.554811 
L 225.62611 181.039723 
L 225.654006 180.260738 
L 225.821376 168.175942 
L 225.849271 169.691805 
L 225.960852 175.734203 
L 225.988747 174.976271 
L 226.351384 134.490101 
L 226.518754 109.373095 
L 226.546649 109.794168 
L 226.65823 118.405112 
L 226.71402 116.847141 
L 226.797705 111.310031 
L 226.825601 112.910109 
L 226.881391 118.910399 
L 227.271922 185.103077 
L 227.439293 195.987815 
L 227.606664 184.534629 
L 227.774035 160.933486 
L 228.136671 125.352816 
L 228.220356 118.005092 
L 228.276147 119.520955 
L 228.471413 135.542783 
L 228.722469 151.059324 
L 228.861944 155.522698 
L 228.973525 160.470306 
L 229.00142 159.586053 
L 229.196686 148.069706 
L 229.252476 147.522311 
L 229.587217 139.353494 
L 230.396176 173.081443 
L 230.451966 172.02876 
L 230.479861 171.544526 
L 230.507756 172.828799 
L 230.535651 172.913013 
L 230.675127 176.218437 
L 230.842498 170.93397 
L 230.870393 171.207668 
L 230.898288 171.186614 
L 230.926183 173.902535 
L 231.009868 172.512994 
L 231.149344 167.691708 
L 231.177239 169.670751 
L 231.205134 169.944449 
L 231.372505 181.208152 
L 231.45619 179.250162 
L 231.484085 179.629128 
L 231.735141 198.977433 
L 231.763036 198.914272 
L 232.516205 227.673559 
L 232.571995 227.73672 
L 232.627785 224.768155 
L 232.739366 196.977336 
L 232.906736 144.743229 
L 232.934631 145.838019 
L 233.018317 149.4803 
L 233.102002 123.794846 
L 233.241478 58.402207 
L 233.297268 63.602459 
L 233.436744 113.89963 
L 233.492534 106.425584 
L 233.576219 89.161591 
L 233.632009 98.677841 
L 233.827275 179.52386 
L 233.910961 172.976174 
L 233.966751 177.650085 
L 234.134122 223.883902 
L 234.162017 217.778343 
L 234.301492 180.471274 
L 234.357282 187.629515 
L 234.468863 209.777956 
L 234.496758 205.504065 
L 234.664129 145.522214 
L 234.747814 159.059711 
L 234.859395 183.187195 
L 234.88729 180.808133 
L 235.026765 157.90176 
L 235.082556 163.059905 
L 235.222031 177.186905 
L 235.249926 172.407726 
L 235.389402 152.912045 
L 235.445192 153.817352 
L 235.473087 154.448962 
L 235.500982 153.85946 
L 235.584668 140.59566 
L 235.752038 106.657174 
L 235.779934 109.836276 
L 235.919409 124.321187 
L 235.947304 121.605267 
L 236.058885 110.846851 
L 236.08678 112.952216 
L 236.19836 142.132576 
L 236.393626 171.376097 
L 236.449416 175.249969 
L 236.616787 196.198351 
L 236.672577 192.956089 
L 237.314165 130.784658 
L 237.34206 130.363585 
L 237.453641 121.710535 
L 237.509431 123.879061 
L 237.621011 132.70054 
L 237.844172 152.006738 
L 237.899963 152.59624 
L 238.011543 151.227753 
L 238.095228 153.543655 
L 238.151019 153.291011 
L 238.513655 136.44809 
L 238.54155 136.995485 
L 238.569445 135.3533 
L 238.625236 137.77447 
L 238.681026 139.816674 
L 238.764711 142.911561 
L 238.820501 142.827347 
L 238.876292 142.8484 
L 239.238928 161.18613 
L 239.266823 160.301877 
L 239.294718 160.196608 
L 239.378404 156.996453 
L 239.406299 157.480687 
L 239.462089 159.817643 
L 239.57367 167.228528 
L 239.601565 165.754772 
L 239.713145 160.912433 
L 239.796831 162.7441 
L 239.964201 166.849562 
L 239.992096 166.49165 
L 240.019992 166.996938 
L 240.075782 168.386479 
L 240.159467 172.239297 
L 240.243152 171.902438 
L 240.382628 167.291689 
L 240.410523 167.733815 
L 240.549999 175.08154 
L 240.577894 176.450027 
L 240.633684 174.786788 
L 240.661579 174.828896 
L 240.77316 172.597209 
L 241.331062 197.672107 
L 241.358957 197.145766 
L 241.386852 197.903697 
L 241.944755 223.841795 
L 241.97265 222.915434 
L 242.112125 191.313904 
L 242.335286 152.785723 
L 242.418972 139.058743 
L 242.614238 77.834727 
L 242.670028 80.592755 
L 242.809503 94.740808 
L 242.837398 94.046038 
L 242.865294 93.035462 
L 242.921084 94.846076 
L 243.060559 127.79504 
L 243.423196 202.261803 
L 243.451091 205.672494 
L 243.506881 203.314485 
L 243.646357 190.029632 
L 243.730042 193.966664 
L 243.785832 196.514156 
L 243.813728 196.324673 
L 244.064784 157.543848 
L 244.148469 164.975787 
L 244.232154 170.218146 
L 244.287945 169.523376 
L 244.37163 165.291592 
L 244.42742 165.838987 
L 244.455315 166.112684 
L 244.539001 169.712859 
L 244.594791 168.891766 
L 244.678476 165.417914 
L 245.013218 129.268795 
L 245.124798 117.057678 
L 245.180588 117.584019 
L 245.236379 120.131511 
L 245.292169 118.552487 
L 245.403749 113.289074 
L 245.45954 115.310225 
L 246.073232 190.36649 
L 246.268498 185.52415 
L 246.71482 135.942803 
L 246.882191 127.268699 
L 246.937981 127.647664 
L 246.965876 127.437128 
L 247.272722 144.027405 
L 247.300617 143.501063 
L 247.328513 144.532692 
L 247.356408 141.900986 
L 247.440093 140.321962 
L 247.467988 141.858879 
L 247.607464 149.964534 
L 247.663254 148.953959 
L 247.85852 140.82725 
L 247.942205 140.343016 
L 247.91431 140.953572 
L 247.9701 140.785142 
L 247.997995 141.437806 
L 248.02589 140.785142 
L 248.053786 140.111426 
L 248.081681 142.069415 
L 248.249051 142.974722 
L 248.276947 143.037883 
L 248.304842 143.016829 
L 248.332737 142.637864 
L 248.360632 143.058937 
L 248.583793 153.333118 
L 248.723268 156.933293 
L 248.751164 156.322737 
L 248.834849 157.333312 
L 248.806954 156.006932 
L 248.862744 156.491166 
L 249.05801 165.081055 
L 249.1138 167.35485 
L 249.16959 165.333699 
L 249.197485 164.807358 
L 249.253276 164.93368 
L 249.336961 167.58644 
L 249.364856 166.196899 
L 249.448542 166.639026 
L 249.476437 166.449543 
L 249.504332 166.196899 
L 249.532227 166.72324 
L 249.560122 166.239006 
L 249.588017 166.849562 
L 249.615912 165.417914 
L 249.643807 165.16527 
L 249.727493 161.41772 
L 249.811178 161.838793 
L 249.839073 161.565096 
L 249.866968 162.365134 
L 250.090129 168.344371 
L 250.118024 167.923298 
L 250.229605 170.344468 
L 250.731717 194.156147 
L 251.484885 220.831123 
L 251.540675 218.473114 
L 251.652256 198.577414 
L 251.875417 157.249097 
L 251.931207 150.638251 
L 252.098578 95.793491 
L 252.182263 79.561126 
L 252.238053 83.750802 
L 252.377529 96.614583 
L 252.405424 96.530368 
L 252.461214 94.803969 
L 252.489109 97.05671 
L 252.60069 122.700056 
L 252.991222 206.956767 
L 253.047012 210.978014 
L 253.074907 208.451576 
L 253.242278 193.377162 
L 253.270173 195.0404 
L 253.381753 200.872262 
L 253.409648 197.966858 
L 253.604914 162.196705 
L 253.688599 167.544333 
L 253.772285 173.565677 
L 253.828075 170.407629 
L 253.91176 164.849465 
L 253.995446 167.312742 
L 254.107026 174.134125 
L 254.134921 173.75516 
L 254.525453 142.532595 
L 254.664929 119.43674 
L 254.720719 120.69996 
L 254.832299 125.900211 
L 254.860194 123.394827 
L 254.88809 123.373773 
L 254.971775 119.184097 
L 254.99967 120.868389 
L 255.167041 149.417139 
L 255.501782 192.682392 
L 255.585468 194.282469 
L 255.613363 193.25084 
L 255.892314 181.144991 
L 256.227055 142.953668 
L 256.422321 126.152855 
L 256.478111 126.658143 
L 256.729167 139.690353 
L 256.757063 139.585084 
L 257.119699 151.606719 
L 257.147594 151.459343 
L 257.203384 151.711987 
L 257.23128 152.343597 
L 257.28707 152.048846 
L 257.482336 143.269473 
L 257.566021 144.953765 
L 257.649706 147.838115 
L 257.705497 146.953862 
L 257.844972 143.922136 
L 257.872867 143.985297 
L 258.068133 155.754288 
L 258.123923 155.101625 
L 258.151818 154.55423 
L 258.179714 155.122679 
L 258.347084 160.175555 
L 258.374979 160.133447 
L 258.43077 158.596531 
L 258.458665 159.754482 
L 258.59814 161.18613 
L 258.514455 159.207087 
L 258.626035 160.786111 
L 258.653931 160.912433 
L 258.737616 162.154598 
L 258.765511 161.81774 
L 258.877092 158.53337 
L 258.904987 158.596531 
L 259.100252 164.407339 
L 259.128148 164.512607 
L 259.267623 159.249194 
L 259.295518 160.870325 
L 259.323413 160.533467 
L 259.462889 164.449446 
L 259.490784 164.049427 
L 259.79763 171.039239 
L 259.937106 176.134222 
L 260.634484 199.398506 
L 260.662379 197.798429 
L 260.746064 199.103755 
L 261.136596 212.641253 
L 261.192386 210.746424 
L 261.303967 194.471952 
L 261.833974 85.919328 
L 261.861869 86.929904 
L 262.224506 114.152274 
L 262.587142 191.524441 
L 262.698723 204.851402 
L 262.726618 204.619812 
L 262.838198 194.071933 
L 262.893989 189.840149 
L 262.949779 191.650763 
L 263.033464 193.88245 
L 263.28452 157.143829 
L 263.396101 164.344178 
L 263.451891 167.017991 
L 263.479786 166.175845 
L 263.591367 160.428199 
L 263.619262 160.996647 
L 263.786632 172.702477 
L 263.842423 169.691805 
L 264.009793 161.859847 
L 264.037688 162.386188 
L 264.065584 161.901954 
L 264.121374 157.67017 
L 264.344535 123.500095 
L 264.42822 125.184387 
L 264.456115 126.952894 
L 264.511905 125.879158 
L 264.623486 117.478751 
L 264.679276 119.457794 
L 265.265074 189.398022 
L 265.348759 185.966277 
L 265.404549 186.639994 
L 265.460339 185.882062 
L 265.599815 166.133738 
L 265.795081 146.280145 
L 265.822976 145.943287 
L 266.046137 130.279371 
L 266.074032 130.953087 
L 266.241403 137.290236 
L 266.269298 136.67968 
L 266.325088 134.384833 
L 266.380878 134.974335 
L 266.520354 143.901083 
L 266.576144 142.427327 
L 266.71562 138.237651 
L 266.743515 139.058743 
L 266.8272 144.680068 
L 266.88299 144.258995 
L 266.910886 144.132673 
L 267.022466 138.932421 
L 267.078256 140.069318 
L 267.329312 147.480203 
L 267.412998 147.374935 
L 267.440893 147.080184 
L 267.608264 152.196221 
L 267.636159 151.690933 
L 267.803529 148.975013 
L 267.943005 151.101431 
L 268.110376 147.627579 
L 268.305642 157.270151 
L 268.361432 155.901664 
L 268.417222 153.901567 
L 268.445117 154.154211 
L 268.640383 162.238813 
L 268.779859 158.828121 
L 268.807754 159.207087 
L 268.891439 161.059808 
L 268.919334 159.712374 
L 268.947229 159.775535 
L 268.975124 160.238716 
L 269.030915 159.62816 
L 269.142495 156.238522 
L 269.17039 156.491166 
L 269.393551 161.144023 
L 269.421446 160.133447 
L 269.477236 161.122969 
L 269.588817 168.975981 
L 269.756188 179.313323 
L 269.784083 178.66066 
L 269.811978 177.944836 
L 269.839873 178.681714 
L 270.007244 189.482237 
L 270.090929 189.355915 
L 270.174614 188.029535 
L 270.20251 188.303232 
L 270.341985 192.198158 
L 270.36988 190.745456 
L 270.481461 187.755837 
L 270.509356 189.440129 
L 271.039363 213.693935 
L 271.067258 213.357077 
L 271.206734 197.503678 
L 271.51358 147.732847 
L 271.625161 116.741873 
L 271.764636 82.782334 
L 271.792531 86.466723 
L 271.959902 113.520665 
L 272.015692 110.804744 
L 272.043587 109.499417 
L 272.071482 111.310031 
L 272.60149 212.05175 
L 272.65728 203.314485 
L 272.796756 176.850046 
L 272.852546 179.650182 
L 272.936231 188.724305 
L 272.964126 188.471661 
L 273.159392 144.616907 
L 273.243077 154.133157 
L 273.354658 167.396957 
L 273.410448 164.007319 
L 273.494134 159.459731 
L 273.522029 160.701896 
L 273.661504 177.79746 
L 273.717294 175.418398 
L 273.884665 161.165076 
L 273.91256 163.923105 
L 273.968351 166.933777 
L 273.996246 164.849465 
L 274.052036 158.828121 
L 274.219407 121.62632 
L 274.275197 125.037012 
L 274.386777 135.269086 
L 274.414672 134.447993 
L 274.526253 120.53153 
L 274.582043 121.731588 
L 275.084155 192.050782 
L 275.11205 191.819192 
L 275.251526 177.944836 
L 275.307316 179.818611 
L 275.391002 183.881966 
L 275.418897 183.545107 
L 275.669953 145.795911 
L 275.753638 150.006641 
L 275.781533 149.901373 
L 275.893114 141.458859 
L 275.976799 136.953378 
L 276.004694 137.921846 
L 276.19996 147.669686 
L 276.227855 146.764379 
L 276.339436 142.827347 
L 276.367331 143.374741 
L 276.451016 146.617004 
L 276.478911 147.774954 
L 276.506806 146.890701 
L 276.702072 135.163818 
L 276.757862 138.132382 
L 276.897338 144.195834 
L 277.036814 135.774373 
L 277.064709 136.953378 
L 277.232079 153.248904 
L 277.371555 150.322446 
L 277.39945 149.985588 
L 277.594716 159.16498 
L 277.622611 157.396473 
L 277.762087 151.143539 
L 277.929457 157.228044 
L 278.068933 149.94348 
L 278.096828 150.322446 
L 278.152618 151.059324 
L 278.292094 159.080765 
L 278.319989 158.554424 
L 278.459465 152.36465 
L 278.48736 153.964728 
L 278.571045 160.870325 
L 278.626835 164.028373 
L 278.682626 162.407242 
L 278.822101 155.606913 
L 278.849996 155.712181 
L 278.989472 161.965115 
L 279.045262 160.786111 
L 279.101052 157.43858 
L 279.156843 159.586053 
L 279.212633 162.04933 
L 279.324213 170.723434 
L 279.380003 169.754966 
L 279.407899 169.228625 
L 279.463689 169.860234 
L 279.74264 186.703155 
L 279.826325 185.966277 
L 279.854221 185.124131 
L 279.882116 185.397828 
L 280.021591 192.471855 
L 280.077381 191.734977 
L 280.216857 186.15576 
L 280.272647 186.429457 
L 280.300542 186.534726 
L 280.384228 188.050588 
L 280.523703 182.955605 
L 280.551598 184.408307 
L 280.746864 193.229787 
L 280.774759 192.871874 
L 280.94213 201.251227 
L 281.109501 213.37813 
L 281.137396 212.999165 
L 281.221081 207.630484 
L 281.472137 168.428586 
L 281.890564 102.867517 
L 281.946354 107.541428 
L 282.308991 148.322349 
L 282.671627 195.798332 
L 282.699523 195.019347 
L 282.811103 184.618843 
L 282.978474 177.502709 
L 283.034264 176.47108 
L 283.145844 164.449446 
L 283.257425 152.322543 
L 283.313215 152.76467 
L 283.508481 161.18613 
L 283.536376 160.659789 
L 283.564271 162.175652 
L 283.703747 169.818127 
L 283.787432 171.418204 
L 283.815327 170.00761 
L 283.982698 162.575671 
L 284.010593 162.723047 
L 284.094279 159.122872 
L 284.37323 128.805615 
L 284.456915 130.574122 
L 284.48481 129.058259 
L 284.624286 127.142377 
L 284.707971 133.416365 
L 285.154293 178.450124 
L 285.182188 179.06068 
L 285.210083 178.386963 
L 285.405349 172.197189 
L 285.433244 172.66037 
L 285.461139 171.923492 
L 285.57272 162.617778 
L 285.795881 145.943287 
L 285.823776 146.574896 
L 285.851671 144.785336 
L 285.907461 143.522117 
L 286.019042 141.564127 
L 286.046937 142.258898 
L 286.214307 146.82754 
L 286.270098 145.332731 
L 286.325888 146.385413 
L 286.437468 148.448671 
L 286.465364 147.564418 
L 286.71642 142.174683 
L 286.744315 142.258898 
L 286.88379 139.26928 
L 286.911685 139.690353 
L 286.939581 139.121904 
L 286.967476 140.553552 
L 286.995371 140.511445 
L 287.162742 143.185259 
L 287.190637 141.437806 
L 287.246427 143.48001 
L 287.469588 149.438193 
L 287.553273 147.838115 
L 287.609063 148.764476 
L 287.720644 150.280339 
L 287.888015 146.743326 
L 287.91591 147.05913 
L 287.943805 147.45915 
L 287.9717 146.785433 
L 287.999595 145.585375 
L 288.08328 146.174877 
L 288.808554 164.407339 
L 288.892239 162.765154 
L 288.948029 160.049233 
L 289.031714 160.849272 
L 289.087505 161.775632 
L 289.143295 161.459827 
L 289.282771 158.975497 
L 289.505931 163.038851 
L 289.533827 162.51251 
L 289.561722 163.712568 
L 289.896463 172.89196 
L 289.924358 172.155082 
L 289.980148 173.060389 
L 290.008044 172.744584 
L 290.231205 177.018475 
L 290.37068 175.228915 
L 290.538051 181.566064 
L 290.565946 181.208152 
L 290.593841 181.060776 
L 290.621736 180.260738 
L 290.677526 180.323899 
L 291.291219 204.577704 
L 291.486485 193.903503 
L 292.072282 105.141312 
L 292.100177 105.225526 
L 292.407024 124.615939 
L 292.909136 187.734784 
L 293.467038 154.448962 
L 293.578619 157.817546 
L 293.662304 160.786111 
L 293.718094 159.22814 
L 293.745989 159.122872 
L 293.829675 162.51251 
L 293.96915 168.112781 
L 294.220206 160.428199 
L 294.248102 160.365038 
L 294.694423 129.542493 
L 294.778109 126.637089 
L 294.833899 127.247645 
L 295.419697 171.670848 
L 295.503382 169.628644 
L 295.614962 171.144507 
L 295.642857 170.891863 
L 295.670753 170.723434 
L 295.782333 164.30207 
L 295.893914 155.543752 
L 295.949704 155.627966 
L 296.20076 148.048652 
L 296.25655 146.532789 
L 296.284445 147.311774 
L 296.423921 150.996163 
L 296.451816 150.048749 
L 296.898138 136.784949 
L 296.981823 139.248226 
L 297.009718 139.458762 
L 297.037613 139.227172 
L 297.065509 139.248226 
L 297.149194 136.574412 
L 297.260774 137.837631 
L 297.567621 152.827831 
L 297.874467 156.891185 
L 297.986047 154.78582 
L 298.041838 155.396376 
L 298.069733 155.691127 
L 298.264999 149.522407 
L 298.292894 147.943384 
L 298.348684 148.975013 
L 298.516055 155.627966 
L 298.54395 154.891088 
L 298.571845 154.806874 
L 298.59974 153.648923 
L 298.627635 154.870035 
L 298.822901 162.680939 
L 298.934481 161.291398 
L 298.990272 164.30207 
L 299.073957 163.775729 
L 299.241328 159.291301 
L 299.297118 158.638638 
L 299.325013 160.617681 
L 299.352908 158.53337 
L 299.408698 159.22814 
L 299.436594 158.512316 
L 299.464489 159.564999 
L 299.492384 158.954443 
L 299.79923 164.112587 
L 299.966601 172.007707 
L 300.022391 171.734009 
L 300.301342 180.45022 
L 300.329237 179.881772 
L 300.385028 180.61865 
L 300.440818 183.208249 
L 300.524503 181.902922 
L 300.580293 180.955508 
L 300.663979 180.997615 
L 300.747664 184.071448 
L 300.803454 182.660854 
L 300.83135 182.976659 
L 300.88714 181.608171 
L 300.94293 182.239781 
L 301.221881 188.282179 
L 301.556623 198.072126 
L 301.668203 202.324964 
L 301.696098 202.30391 
L 301.835574 189.650666 
L 302.477161 114.257542 
L 302.532952 115.731298 
L 302.672427 125.079119 
L 303.23033 185.082024 
L 303.927708 160.470306 
L 303.983498 161.670364 
L 304.206659 170.47079 
L 304.318239 169.397054 
L 304.37403 171.649794 
L 304.457715 171.123453 
L 304.820351 144.722175 
L 304.987722 138.342919 
L 305.099303 136.005964 
L 305.155093 137.100753 
L 305.796681 177.186905 
L 305.852471 176.260544 
L 305.880366 176.260544 
L 306.354583 157.017507 
L 306.382478 157.333312 
L 306.410373 156.954346 
L 306.438268 157.059614 
L 306.466163 156.9754 
L 306.717219 152.301489 
L 306.745115 153.080474 
L 306.800905 154.280533 
L 306.856695 153.796299 
L 306.88459 153.964728 
L 306.912485 153.775245 
L 307.442493 136.932324 
L 307.498283 139.985104 
L 307.637758 143.543171 
L 307.665654 143.016829 
L 307.693549 142.785239 
L 307.721444 143.458956 
L 307.944605 157.775439 
L 308.056185 156.764863 
L 308.167766 159.22814 
L 308.223556 159.101819 
L 308.725668 148.217081 
L 308.753563 148.490779 
L 308.781458 148.38551 
L 309.032514 157.375419 
L 309.088305 157.607009 
L 309.1162 156.870132 
L 309.199885 160.259769 
L 309.28357 163.775729 
L 309.367256 163.20728 
L 309.506731 159.522892 
L 309.562522 160.196608 
L 309.646207 159.712374 
L 309.674102 159.733428 
L 309.813578 155.964825 
L 310.42727 172.302458 
L 310.48306 171.586633 
L 310.510956 171.965599 
L 310.706221 176.028954 
L 310.762012 174.807842 
L 310.789907 174.639413 
L 310.929382 171.249775 
L 311.124648 175.292076 
L 311.152543 175.586827 
L 311.180438 173.544623 
L 311.264124 174.428876 
L 311.375704 177.229012 
L 311.487285 180.281791 
L 311.51518 179.839665 
L 311.543075 179.944933 
L 312.100977 198.198448 
L 312.156768 196.114137 
L 312.184663 195.9036 
L 312.491509 167.649601 
L 312.965726 118.236682 
L 313.021516 119.647277 
L 313.105202 125.584407 
L 313.579419 172.007707 
L 313.774684 177.860621 
L 313.80258 177.418495 
L 314.416272 155.606913 
L 314.472062 158.217565 
L 314.611538 163.986266 
L 314.639433 163.544139 
L 314.667328 162.554617 
L 314.751014 163.37571 
L 314.834699 165.312646 
L 314.918384 168.133835 
L 314.946279 167.207474 
L 315.085755 157.080668 
L 315.476287 136.953378 
L 315.504182 137.163914 
L 315.866818 149.059227 
L 316.089979 162.112491 
L 316.31314 170.281307 
L 316.36893 169.418107 
L 316.871043 153.101528 
L 316.898938 154.385801 
L 316.954728 152.59624 
L 317.038413 153.585762 
L 317.066308 153.417333 
L 317.122099 151.480397 
L 317.205784 151.606719 
L 317.233679 151.501451 
L 317.261574 152.301489 
L 317.317364 152.175167 
L 317.484735 142.932615 
L 317.624211 144.848497 
L 317.707896 141.711503 
L 317.819477 134.153242 
L 317.875267 134.763798 
L 318.265798 148.38551 
L 318.65633 157.922814 
L 318.684225 157.249097 
L 318.767911 155.333215 
L 318.907386 150.427714 
L 318.935281 150.638251 
L 319.018967 153.396279 
L 319.074757 152.890992 
L 319.102652 152.785723 
L 319.242128 147.817062 
L 319.270023 149.080281 
L 319.381603 153.796299 
L 319.465289 153.164689 
L 319.493184 153.396279 
L 319.521079 152.448865 
L 319.576869 152.469919 
L 319.68845 156.912239 
L 319.74424 155.691127 
L 319.883715 152.554133 
L 319.939506 153.080474 
L 320.051086 155.985878 
L 320.218457 151.922524 
L 320.246352 151.606719 
L 320.636884 161.628257 
L 320.692674 161.607203 
L 320.720569 162.554617 
L 320.860044 167.102206 
L 320.971625 165.291592 
L 321.083205 169.986556 
L 321.138996 169.902341 
L 321.250576 165.354753 
L 321.306366 166.596918 
L 321.501632 171.439258 
L 321.585318 168.470693 
L 321.613213 169.418107 
L 321.696898 172.555101 
L 321.836374 177.039529 
L 321.864269 177.018475 
L 321.920059 177.376387 
L 322.171115 184.050395 
L 322.19901 183.587214 
L 322.2548 185.92417 
L 322.310591 184.850433 
L 322.338486 184.260931 
L 322.366381 185.018863 
L 322.394276 185.018863 
L 322.561647 189.67172 
L 322.673227 187.903213 
L 322.701122 188.682198 
L 322.729017 189.566451 
L 322.784808 188.57693 
L 322.812703 188.976949 
L 322.980073 180.408113 
L 323.677451 125.879158 
L 323.761137 130.805712 
L 323.956403 143.922136 
L 324.291144 172.281404 
L 324.319039 171.270829 
L 324.374829 172.66037 
L 324.514305 179.039626 
L 324.5422 177.418495 
L 324.793256 162.259866 
L 324.821151 162.701993 
L 324.849046 163.417817 
L 324.904837 162.154598 
L 325.100102 154.259479 
L 325.127998 155.522698 
L 325.239578 163.102012 
L 325.295368 161.81774 
L 325.406949 160.112394 
L 325.546424 166.175845 
L 325.574319 166.02847 
L 325.602215 165.691611 
L 325.769585 153.669977 
L 325.825376 154.533176 
L 325.853271 155.733234 
L 325.936956 154.722659 
L 326.104327 140.174587 
L 326.132222 141.227269 
L 326.522754 153.564708 
L 326.718019 164.449446 
L 326.745914 163.080959 
L 326.77381 164.70209 
L 326.94118 171.986653 
L 326.996971 172.512994 
L 327.080656 167.502225 
L 327.220131 164.407339 
L 327.248027 165.16527 
L 327.303817 164.449446 
L 327.471188 156.049039 
L 327.582768 156.596434 
L 327.638558 157.922814 
L 327.694348 157.649117 
L 328.02909 150.11191 
L 328.056985 151.922524 
L 328.14067 152.659401 
L 328.196461 152.448865 
L 328.391726 146.027501 
L 328.419622 147.017023 
L 328.503307 149.606622 
L 328.559097 148.280242 
L 328.614887 148.427618 
L 328.642783 147.374935 
L 328.810153 153.92262 
L 328.865943 152.659401 
L 328.977524 149.606622 
L 329.17279 155.691127 
L 329.34016 149.417139 
L 329.368056 149.964534 
L 329.535426 152.53308 
L 329.925958 157.964921 
L 329.591217 151.943577 
L 329.981748 157.733331 
L 330.009643 157.396473 
L 330.037538 158.280726 
L 330.204909 161.270345 
L 330.260699 160.32293 
L 330.400175 155.985878 
L 330.42807 156.554327 
L 330.539651 160.470306 
L 330.567546 160.175555 
L 330.651231 153.838406 
L 330.790707 156.280629 
L 330.902287 159.901857 
L 330.958077 159.670267 
L 331.264924 167.439064 
L 331.320714 167.165367 
L 331.376504 167.039045 
L 331.51598 170.344468 
L 331.794931 164.681036 
L 331.990197 168.007513 
L 332.018092 167.839084 
L 332.073882 166.533757 
L 332.129672 167.754869 
L 332.157567 167.165367 
L 332.185463 168.302264 
L 332.408623 173.418301 
L 332.575994 177.650085 
L 332.603889 177.144797 
L 332.631784 177.165851 
L 332.743365 178.071158 
L 332.77126 177.33428 
L 332.799155 178.576446 
L 333.022316 180.808133 
L 333.050211 180.787079 
L 333.106001 181.94503 
L 333.161792 181.060776 
L 333.189687 180.344952 
L 333.217582 181.566064 
L 333.245477 180.892347 
L 333.384953 184.82938 
L 333.412848 184.029341 
L 333.552323 187.71373 
L 333.97075 165.881094 
L 334.193911 143.164205 
L 334.305492 139.858782 
L 334.472862 128.763508 
L 335.05866 169.439161 
L 335.142345 168.554908 
L 335.281821 174.91311 
L 335.337611 174.113072 
L 335.421296 167.628547 
L 335.532877 160.891379 
L 335.588667 161.459827 
L 335.672352 162.828315 
L 335.700247 161.754579 
L 335.839723 154.659498 
L 335.895513 155.164786 
L 336.034989 162.933583 
L 336.062884 162.7441 
L 336.174464 158.322833 
L 336.20236 159.922911 
L 336.230255 159.522892 
L 336.341835 166.281113 
L 336.397625 164.365231 
L 336.537101 153.985781 
L 336.648681 156.428005 
L 336.704472 157.607009 
L 336.732367 155.859556 
L 336.899738 144.027405 
L 336.983423 147.585472 
L 337.067108 151.817255 
L 337.122898 150.554036 
L 337.206584 148.890798 
L 337.234479 149.901373 
L 337.290269 153.22785 
L 337.40185 161.923008 
L 337.45764 161.312452 
L 337.541325 159.817643 
L 337.56922 160.386091 
L 337.764486 167.439064 
L 337.792381 166.428489 
L 337.959752 159.080765 
L 337.987647 158.76496 
L 338.015542 158.828121 
L 338.043437 159.543945 
L 338.099228 158.470209 
L 338.322389 152.322543 
L 338.350284 152.343597 
L 338.406074 154.996357 
L 338.489759 154.470015 
L 338.65713 149.417139 
L 338.71292 150.638251 
L 338.824501 156.049039 
L 338.880291 154.133157 
L 338.991871 146.280145 
L 339.075557 146.911755 
L 339.187137 152.238328 
L 339.215032 151.311968 
L 339.382403 147.332828 
L 339.410298 148.364457 
L 339.493984 151.375129 
L 339.549774 150.764573 
L 339.605564 150.048749 
L 339.633459 147.774954 
L 339.717144 149.332925 
L 339.80083 153.543655 
L 339.91241 152.575187 
L 340.079781 150.11191 
L 340.275047 155.522698 
L 340.302942 155.059518 
L 340.442418 149.669783 
L 340.470313 151.080378 
L 340.665579 157.185936 
L 340.777159 153.880513 
L 340.916635 158.07019 
L 340.94453 157.059614 
L 341.05611 153.480494 
L 341.1119 154.954249 
L 341.139796 155.143732 
L 341.223481 158.385994 
L 341.279271 157.649117 
L 341.446642 153.248904 
L 341.669803 158.99655 
L 341.697698 157.880707 
L 341.753488 159.333409 
L 341.809278 159.186033 
L 341.837173 159.459731 
L 342.060334 163.017798 
L 342.14402 161.41772 
L 342.171915 161.628257 
L 342.2556 165.965309 
L 342.339286 165.417914 
L 342.450866 161.670364 
L 342.478761 162.344081 
L 342.506656 162.259866 
L 342.701922 167.017991 
L 342.757712 165.923201 
L 342.785608 165.965309 
L 343.120349 172.26035 
L 343.148244 171.839277 
L 343.176139 172.828799 
L 343.231929 173.018282 
L 343.28772 171.670848 
L 343.34351 171.965599 
L 343.482985 173.544623 
L 343.594566 172.807745 
L 343.706146 174.155179 
L 343.901412 172.134028 
L 343.761937 174.513091 
L 343.929307 173.12355 
L 344.068783 176.723724 
L 344.319839 182.850337 
L 344.347734 182.450317 
L 344.403524 181.94503 
L 344.43142 182.87139 
L 344.961427 152.301489 
L 345.156693 146.764379 
L 345.324063 138.86926 
L 345.407749 141.164108 
L 345.63091 150.827734 
L 345.658805 150.869841 
L 345.881966 165.944255 
L 345.909861 164.512607 
L 345.965651 161.775632 
L 346.049336 163.523085 
L 346.077231 163.712568 
L 346.188812 169.14441 
L 346.216707 167.165367 
L 346.411973 157.291205 
L 346.551448 158.428102 
L 346.579344 158.849175 
L 346.607239 158.30178 
L 346.690924 155.227947 
L 346.746714 156.259576 
L 346.802505 157.691224 
L 346.88619 161.080862 
L 346.94198 158.954443 
L 346.969875 158.638638 
L 346.99777 159.796589 
L 347.025666 157.375419 
L 347.081456 158.786014 
L 347.193036 161.375613 
L 347.248826 160.72295 
L 347.750939 151.333021 
L 347.778834 149.901373 
L 347.862519 151.164592 
L 347.9741 155.438483 
L 348.001995 154.975303 
L 348.057785 153.880513 
L 348.113575 154.32264 
L 348.14147 154.09105 
L 348.308841 161.501935 
L 348.364631 161.144023 
L 348.476212 158.596531 
L 348.504107 159.649213 
L 348.643582 162.428295 
L 348.866743 156.764863 
L 348.894638 157.859653 
L 348.950429 159.564999 
L 349.006219 158.701799 
L 349.034114 158.743907 
L 349.201485 155.101625 
L 349.452541 152.680455 
L 349.619912 154.596337 
L 349.787282 152.069899 
L 349.954653 154.933196 
L 349.982548 154.09105 
L 350.066233 154.891088 
L 350.094129 154.722659 
L 350.177814 152.575187 
L 350.205709 153.775245 
L 350.42887 152.069899 
L 350.261499 153.985781 
L 350.48466 152.112007 
L 350.568346 153.69103 
L 350.596241 152.53308 
L 350.652031 153.417333 
L 350.679926 152.53308 
L 350.763611 151.480397 
L 350.819402 151.543558 
L 350.847297 150.532983 
L 351.014667 152.890992 
L 351.042563 152.175167 
L 351.098353 152.933099 
L 351.126248 152.259382 
L 351.712045 160.659789 
L 351.739941 160.09134 
L 351.851521 158.470209 
L 351.879416 158.99655 
L 351.963101 161.691418 
L 352.018892 160.238716 
L 352.046787 160.217662 
L 352.102577 159.543945 
L 352.214158 156.996453 
L 352.269948 158.133351 
L 352.632584 161.312452 
L 352.688375 160.007126 
L 352.71627 161.396667 
L 352.744165 161.18613 
L 352.855745 162.786207 
L 352.88364 161.859847 
L 352.939431 162.091437 
L 353.078906 164.53366 
L 353.106801 164.596821 
L 353.246277 163.291495 
L 353.413648 166.239006 
L 353.497333 164.93368 
L 353.469438 166.281113 
L 353.525228 165.502128 
L 353.664704 168.091727 
L 353.692599 167.881191 
L 353.85997 171.649794 
L 353.887865 171.523473 
L 354.02734 172.913013 
L 354.111026 171.734009 
L 354.138921 173.249872 
L 354.222606 172.828799 
L 354.250501 173.018282 
L 354.278396 172.723531 
L 354.445767 171.355043 
L 354.501557 172.470887 
L 354.585243 172.344565 
L 354.641033 171.018185 
L 354.724718 171.291882 
L 355.05946 175.228915 
L 355.087355 175.249969 
L 355.198935 176.892153 
L 355.394201 174.239393 
L 355.449991 173.397247 
L 355.645257 166.617972 
L 355.673152 166.933777 
L 355.728942 163.859944 
L 355.952103 156.091147 
L 356.007894 155.227947 
L 356.175264 150.154017 
L 356.31474 155.501644 
L 356.42632 153.817352 
L 356.454216 153.080474 
L 356.482111 153.543655 
L 356.677376 160.238716 
L 356.705272 159.796589 
L 356.761062 158.891282 
L 356.788957 159.417623 
L 356.984223 163.038851 
L 357.040013 162.070383 
L 357.151593 158.891282 
L 357.179489 159.986072 
L 357.235279 161.944061 
L 357.346859 161.207184 
L 357.51423 156.006932 
L 357.57002 156.385898 
L 357.681601 159.186033 
L 357.765286 158.470209 
L 357.821076 156.428005 
L 357.904762 156.933293 
L 358.100027 158.891282 
L 358.183713 155.606913 
L 358.267398 156.954346 
L 358.351084 159.22814 
L 358.406874 158.280726 
L 358.546349 154.827927 
L 358.60214 155.41743 
L 358.685825 158.259673 
L 358.797405 158.07019 
L 358.881091 155.670073 
L 358.936881 156.301683 
L 359.104252 157.564902 
L 359.187937 156.027986 
L 359.243727 157.038561 
L 359.271622 156.933293 
L 359.355308 158.701799 
L 359.383203 157.8386 
L 359.494783 156.9754 
L 359.578469 155.059518 
L 359.606364 156.259576 
L 359.634259 157.607009 
L 359.717944 156.996453 
L 359.745839 157.185936 
L 359.941105 152.99626 
L 359.969 152.59624 
L 360.024791 153.375226 
L 360.052686 152.722562 
L 360.080581 153.080474 
L 360.247952 149.353978 
L 360.387427 152.785723 
L 360.526903 149.922427 
L 360.554798 150.154017 
L 360.694274 154.470015 
L 360.722169 154.406854 
L 360.889539 152.575187 
L 360.917434 152.722562 
L 360.94533 151.922524 
L 360.973225 152.554133 
L 361.00112 154.238425 
L 361.084805 152.617294 
L 361.1127 152.701509 
L 361.363756 150.11191 
L 361.391651 150.006641 
L 361.419547 150.217178 
L 361.447442 150.638251 
L 361.475337 150.006641 
L 361.559022 148.069706 
L 361.586917 148.511832 
L 361.726393 151.101431 
L 361.754288 150.911948 
L 361.837973 151.522504 
L 361.921659 150.406661 
L 361.949554 151.501451 
L 361.977449 151.606719 
L 362.089029 154.385801 
L 362.14482 153.543655 
L 362.172715 151.66988 
L 362.2564 151.775148 
L 362.395876 153.964728 
L 362.423771 153.438387 
L 362.479561 152.469919 
L 362.535351 152.722562 
L 362.646932 154.301586 
L 362.591142 152.575187 
L 362.674827 153.585762 
L 362.702722 155.543752 
L 362.786407 155.333215 
L 362.870093 153.985781 
L 362.897988 154.217372 
L 362.953778 155.543752 
L 363.009568 154.427908 
L 363.065359 153.901567 
L 363.176939 155.522698 
L 363.204834 155.480591 
L 363.232729 155.901664 
L 363.260624 155.585859 
L 363.28852 154.617391 
L 363.372205 155.41743 
L 363.51168 157.354366 
L 363.539576 156.217468 
L 363.623261 156.449059 
L 363.818527 159.375516 
L 363.846422 158.870228 
L 363.902212 159.564999 
L 363.958002 158.891282 
L 363.985897 158.722853 
L 364.013793 159.122872 
L 364.041688 158.828121 
L 364.069583 159.712374 
L 364.153268 159.607106 
L 364.209058 159.754482 
L 364.236954 159.122872 
L 364.264849 160.133447 
L 364.292744 158.99655 
L 364.348534 159.733428 
L 364.376429 159.62816 
L 364.48801 160.659789 
L 364.432219 159.207087 
L 364.515905 160.575574 
L 364.5438 160.196608 
L 364.571695 160.72295 
L 364.627485 160.533467 
L 364.65538 160.49136 
L 364.683275 160.596628 
L 364.711171 160.701896 
L 364.739066 160.55452 
L 364.934331 165.460021 
L 365.073807 163.080959 
L 365.241178 166.933777 
L 365.464339 164.386285 
L 365.631709 167.649601 
L 365.6875 166.870616 
L 365.79908 166.112684 
L 365.938556 168.407532 
L 365.966451 167.544333 
L 366.050136 167.58644 
L 366.189612 169.186517 
L 366.245402 168.702283 
L 366.273297 169.77602 
L 366.301192 168.639122 
L 366.356983 169.081249 
L 366.496458 166.575865 
L 366.552248 167.207474 
L 366.580143 167.544333 
L 366.859095 160.049233 
L 366.88699 160.196608 
L 367.082256 157.017507 
L 367.110151 156.385898 
L 367.138046 157.312258 
L 367.165941 156.554327 
L 367.193836 157.712278 
L 367.277521 156.785917 
L 367.361207 155.312161 
L 367.389102 156.322737 
L 367.584368 159.754482 
L 367.668053 157.964921 
L 367.723843 158.091243 
L 367.779634 160.133447 
L 367.863319 159.333409 
L 367.891214 159.649213 
L 368.002795 157.059614 
L 368.03069 157.691224 
L 368.08648 158.196512 
L 368.14227 157.796492 
L 368.337536 153.817352 
L 368.449116 154.912142 
L 368.477012 154.448962 
L 368.616487 152.99626 
L 368.644382 153.080474 
L 368.672277 152.933099 
L 368.700172 154.280533 
L 368.783858 153.669977 
L 368.811753 153.669977 
L 368.839648 155.459537 
L 368.923333 155.164786 
L 369.034914 152.827831 
L 369.062809 153.333118 
L 369.146494 155.41743 
L 369.174389 154.55423 
L 369.313865 152.722562 
L 369.23018 154.912142 
L 369.369655 153.754191 
L 369.39755 153.817352 
L 369.481236 152.827831 
L 369.509131 153.417333 
L 369.537026 153.291011 
L 369.704397 151.66988 
L 369.760187 151.564612 
L 369.843872 153.143635 
L 369.927558 153.501547 
L 370.011243 151.606719 
L 370.150719 153.164689 
L 370.067033 150.975109 
L 370.178614 152.806777 
L 370.206509 153.164689 
L 370.234404 152.406758 
L 370.262299 153.038367 
L 370.345984 151.017217 
L 370.37388 151.585665 
L 370.597041 154.638445 
L 370.736516 151.964631 
L 370.820201 154.069996 
L 370.848097 153.375226 
L 370.875992 153.206796 
L 370.931782 153.185743 
L 371.015467 154.764767 
L 371.154943 151.43829 
L 371.322314 154.659498 
L 371.350209 154.470015 
L 371.405999 154.722659 
L 371.489684 153.164689 
L 371.517579 154.575284 
L 371.601265 153.206796 
L 371.62916 151.943577 
L 371.68495 152.027792 
L 371.824426 153.417333 
L 371.908111 153.059421 
L 371.963901 154.78582 
L 372.019692 153.143635 
L 372.103377 153.248904 
L 372.159167 153.985781 
L 372.187062 153.817352 
L 372.214957 152.659401 
L 372.270748 154.933196 
L 372.354433 153.648923 
L 372.326538 154.954249 
L 372.410223 154.385801 
L 372.466013 153.564708 
L 372.521804 155.18584 
L 372.577594 153.333118 
L 372.633384 154.78582 
L 372.661279 153.985781 
L 372.689174 155.522698 
L 372.71707 154.912142 
L 372.744965 155.038464 
L 372.800755 153.985781 
L 372.82865 155.375322 
L 372.856545 155.964825 
L 372.88444 155.712181 
L 372.912335 154.722659 
L 372.94023 155.922717 
L 372.996021 155.64902 
L 373.023916 155.733234 
L 373.135496 157.059614 
L 373.163391 156.301683 
L 373.219182 157.122775 
L 373.386552 159.375516 
L 373.414447 159.312355 
L 373.442343 157.880707 
L 373.498133 158.680746 
L 373.553923 160.407145 
L 373.581818 158.680746 
" style="fill:none;stroke:#000000;stroke-linecap:square;stroke-width:1.5;"/>
   </g>
   <g id="patch_3">
    <path d="M 54 252 
L 54 34.56 
" style="fill:none;stroke:#000000;stroke-linecap:square;stroke-linejoin:miter;stroke-width:0.8;"/>
   </g>
   <g id="patch_4">
    <path d="M 388.8 252 
L 388.8 34.56 
" style="fill:none;stroke:#000000;stroke-linecap:square;stroke-linejoin:miter;stroke-width:0.8;"/>
   </g>
   <g id="patch_5">
    <path d="M 54 252 
L 388.8 252 
" style="fill:none;stroke:#000000;stroke-linecap:square;stroke-linejoin:miter;stroke-width:0.8;"/>
   </g>
   <g id="patch_6">
    <path d="M 54 34.56 
L 388.8 34.56 
" style="fill:none;stroke:#000000;stroke-linecap:square;stroke-linejoin:miter;stroke-width:0.8;"/>
   </g>
  </g>
 </g>
 <defs>
  <clipPath id="pe6cb1a8ce0">
   <rect height="217.44" width="334.8" x="54" y="34.56"/>
  </clipPath>
 </defs>
</svg>
