<?xml version="1.0" encoding="utf-8" standalone="no"?>
<!DOCTYPE svg PUBLIC "-//W3C//DTD SVG 1.1//EN"
  "http://www.w3.org/Graphics/SVG/1.1/DTD/svg11.dtd">
<!-- Created with matplotlib (https://matplotlib.org/) -->
<svg height="288pt" version="1.1" viewBox="0 0 432 288" width="432pt" xmlns="http://www.w3.org/2000/svg" xmlns:xlink="http://www.w3.org/1999/xlink">
 <defs>
  <style type="text/css">
*{stroke-linecap:butt;stroke-linejoin:round;}
  </style>
 </defs>
 <g id="figure_1">
  <g id="patch_1">
   <path d="M 0 288 
L 432 288 
L 432 0 
L 0 0 
z
" style="fill:#ffffff;"/>
  </g>
  <g id="axes_1">
   <g id="patch_2">
    <path d="M 54 252 
L 388.8 252 
L 388.8 34.56 
L 54 34.56 
z
" style="fill:#ffffff;"/>
   </g>
   <g id="matplotlib.axis_1">
    <g id="xtick_1">
     <g id="line2d_1">
      <defs>
       <path d="M 0 0 
L 0 3.5 
" id="m8347316545" style="stroke:#000000;stroke-width:0.8;"/>
      </defs>
      <g>
       <use style="stroke:#000000;stroke-width:0.8;" x="69.218182" xlink:href="#m8347316545" y="252"/>
      </g>
     </g>
     <g id="text_1">
      <!-- 0.0 -->
      <defs>
       <path d="M 31.78125 66.40625 
Q 24.171875 66.40625 20.328125 58.90625 
Q 16.5 51.421875 16.5 36.375 
Q 16.5 21.390625 20.328125 13.890625 
Q 24.171875 6.390625 31.78125 6.390625 
Q 39.453125 6.390625 43.28125 13.890625 
Q 47.125 21.390625 47.125 36.375 
Q 47.125 51.421875 43.28125 58.90625 
Q 39.453125 66.40625 31.78125 66.40625 
z
M 31.78125 74.21875 
Q 44.046875 74.21875 50.515625 64.515625 
Q 56.984375 54.828125 56.984375 36.375 
Q 56.984375 17.96875 50.515625 8.265625 
Q 44.046875 -1.421875 31.78125 -1.421875 
Q 19.53125 -1.421875 13.0625 8.265625 
Q 6.59375 17.96875 6.59375 36.375 
Q 6.59375 54.828125 13.0625 64.515625 
Q 19.53125 74.21875 31.78125 74.21875 
z
" id="DejaVuSans-48"/>
       <path d="M 10.6875 12.40625 
L 21 12.40625 
L 21 0 
L 10.6875 0 
z
" id="DejaVuSans-46"/>
      </defs>
      <g transform="translate(61.266619 266.598437)scale(0.1 -0.1)">
       <use xlink:href="#DejaVuSans-48"/>
       <use x="63.623047" xlink:href="#DejaVuSans-46"/>
       <use x="95.410156" xlink:href="#DejaVuSans-48"/>
      </g>
     </g>
    </g>
    <g id="xtick_2">
     <g id="line2d_2">
      <g>
       <use style="stroke:#000000;stroke-width:0.8;" x="131.218442" xlink:href="#m8347316545" y="252"/>
      </g>
     </g>
     <g id="text_2">
      <!-- 0.1 -->
      <defs>
       <path d="M 12.40625 8.296875 
L 28.515625 8.296875 
L 28.515625 63.921875 
L 10.984375 60.40625 
L 10.984375 69.390625 
L 28.421875 72.90625 
L 38.28125 72.90625 
L 38.28125 8.296875 
L 54.390625 8.296875 
L 54.390625 0 
L 12.40625 0 
z
" id="DejaVuSans-49"/>
      </defs>
      <g transform="translate(123.26688 266.598437)scale(0.1 -0.1)">
       <use xlink:href="#DejaVuSans-48"/>
       <use x="63.623047" xlink:href="#DejaVuSans-46"/>
       <use x="95.410156" xlink:href="#DejaVuSans-49"/>
      </g>
     </g>
    </g>
    <g id="xtick_3">
     <g id="line2d_3">
      <g>
       <use style="stroke:#000000;stroke-width:0.8;" x="193.218703" xlink:href="#m8347316545" y="252"/>
      </g>
     </g>
     <g id="text_3">
      <!-- 0.2 -->
      <defs>
       <path d="M 19.1875 8.296875 
L 53.609375 8.296875 
L 53.609375 0 
L 7.328125 0 
L 7.328125 8.296875 
Q 12.9375 14.109375 22.625 23.890625 
Q 32.328125 33.6875 34.8125 36.53125 
Q 39.546875 41.84375 41.421875 45.53125 
Q 43.3125 49.21875 43.3125 52.78125 
Q 43.3125 58.59375 39.234375 62.25 
Q 35.15625 65.921875 28.609375 65.921875 
Q 23.96875 65.921875 18.8125 64.3125 
Q 13.671875 62.703125 7.8125 59.421875 
L 7.8125 69.390625 
Q 13.765625 71.78125 18.9375 73 
Q 24.125 74.21875 28.421875 74.21875 
Q 39.75 74.21875 46.484375 68.546875 
Q 53.21875 62.890625 53.21875 53.421875 
Q 53.21875 48.921875 51.53125 44.890625 
Q 49.859375 40.875 45.40625 35.40625 
Q 44.1875 33.984375 37.640625 27.21875 
Q 31.109375 20.453125 19.1875 8.296875 
z
" id="DejaVuSans-50"/>
      </defs>
      <g transform="translate(185.26714 266.598437)scale(0.1 -0.1)">
       <use xlink:href="#DejaVuSans-48"/>
       <use x="63.623047" xlink:href="#DejaVuSans-46"/>
       <use x="95.410156" xlink:href="#DejaVuSans-50"/>
      </g>
     </g>
    </g>
    <g id="xtick_4">
     <g id="line2d_4">
      <g>
       <use style="stroke:#000000;stroke-width:0.8;" x="255.218963" xlink:href="#m8347316545" y="252"/>
      </g>
     </g>
     <g id="text_4">
      <!-- 0.3 -->
      <defs>
       <path d="M 40.578125 39.3125 
Q 47.65625 37.796875 51.625 33 
Q 55.609375 28.21875 55.609375 21.1875 
Q 55.609375 10.40625 48.1875 4.484375 
Q 40.765625 -1.421875 27.09375 -1.421875 
Q 22.515625 -1.421875 17.65625 -0.515625 
Q 12.796875 0.390625 7.625 2.203125 
L 7.625 11.71875 
Q 11.71875 9.328125 16.59375 8.109375 
Q 21.484375 6.890625 26.8125 6.890625 
Q 36.078125 6.890625 40.9375 10.546875 
Q 45.796875 14.203125 45.796875 21.1875 
Q 45.796875 27.640625 41.28125 31.265625 
Q 36.765625 34.90625 28.71875 34.90625 
L 20.21875 34.90625 
L 20.21875 43.015625 
L 29.109375 43.015625 
Q 36.375 43.015625 40.234375 45.921875 
Q 44.09375 48.828125 44.09375 54.296875 
Q 44.09375 59.90625 40.109375 62.90625 
Q 36.140625 65.921875 28.71875 65.921875 
Q 24.65625 65.921875 20.015625 65.03125 
Q 15.375 64.15625 9.8125 62.3125 
L 9.8125 71.09375 
Q 15.4375 72.65625 20.34375 73.4375 
Q 25.25 74.21875 29.59375 74.21875 
Q 40.828125 74.21875 47.359375 69.109375 
Q 53.90625 64.015625 53.90625 55.328125 
Q 53.90625 49.265625 50.4375 45.09375 
Q 46.96875 40.921875 40.578125 39.3125 
z
" id="DejaVuSans-51"/>
      </defs>
      <g transform="translate(247.2674 266.598437)scale(0.1 -0.1)">
       <use xlink:href="#DejaVuSans-48"/>
       <use x="63.623047" xlink:href="#DejaVuSans-46"/>
       <use x="95.410156" xlink:href="#DejaVuSans-51"/>
      </g>
     </g>
    </g>
    <g id="xtick_5">
     <g id="line2d_5">
      <g>
       <use style="stroke:#000000;stroke-width:0.8;" x="317.219223" xlink:href="#m8347316545" y="252"/>
      </g>
     </g>
     <g id="text_5">
      <!-- 0.4 -->
      <defs>
       <path d="M 37.796875 64.3125 
L 12.890625 25.390625 
L 37.796875 25.390625 
z
M 35.203125 72.90625 
L 47.609375 72.90625 
L 47.609375 25.390625 
L 58.015625 25.390625 
L 58.015625 17.1875 
L 47.609375 17.1875 
L 47.609375 0 
L 37.796875 0 
L 37.796875 17.1875 
L 4.890625 17.1875 
L 4.890625 26.703125 
z
" id="DejaVuSans-52"/>
      </defs>
      <g transform="translate(309.267661 266.598437)scale(0.1 -0.1)">
       <use xlink:href="#DejaVuSans-48"/>
       <use x="63.623047" xlink:href="#DejaVuSans-46"/>
       <use x="95.410156" xlink:href="#DejaVuSans-52"/>
      </g>
     </g>
    </g>
    <g id="xtick_6">
     <g id="line2d_6">
      <g>
       <use style="stroke:#000000;stroke-width:0.8;" x="379.219484" xlink:href="#m8347316545" y="252"/>
      </g>
     </g>
     <g id="text_6">
      <!-- 0.5 -->
      <defs>
       <path d="M 10.796875 72.90625 
L 49.515625 72.90625 
L 49.515625 64.59375 
L 19.828125 64.59375 
L 19.828125 46.734375 
Q 21.96875 47.46875 24.109375 47.828125 
Q 26.265625 48.1875 28.421875 48.1875 
Q 40.625 48.1875 47.75 41.5 
Q 54.890625 34.8125 54.890625 23.390625 
Q 54.890625 11.625 47.5625 5.09375 
Q 40.234375 -1.421875 26.90625 -1.421875 
Q 22.3125 -1.421875 17.546875 -0.640625 
Q 12.796875 0.140625 7.71875 1.703125 
L 7.71875 11.625 
Q 12.109375 9.234375 16.796875 8.0625 
Q 21.484375 6.890625 26.703125 6.890625 
Q 35.15625 6.890625 40.078125 11.328125 
Q 45.015625 15.765625 45.015625 23.390625 
Q 45.015625 31 40.078125 35.4375 
Q 35.15625 39.890625 26.703125 39.890625 
Q 22.75 39.890625 18.8125 39.015625 
Q 14.890625 38.140625 10.796875 36.28125 
z
" id="DejaVuSans-53"/>
      </defs>
      <g transform="translate(371.267921 266.598437)scale(0.1 -0.1)">
       <use xlink:href="#DejaVuSans-48"/>
       <use x="63.623047" xlink:href="#DejaVuSans-46"/>
       <use x="95.410156" xlink:href="#DejaVuSans-53"/>
      </g>
     </g>
    </g>
    <g id="text_7">
     <!-- Time (sec) -->
     <defs>
      <path d="M -0.296875 72.90625 
L 61.375 72.90625 
L 61.375 64.59375 
L 35.5 64.59375 
L 35.5 0 
L 25.59375 0 
L 25.59375 64.59375 
L -0.296875 64.59375 
z
" id="DejaVuSans-84"/>
      <path d="M 9.421875 54.6875 
L 18.40625 54.6875 
L 18.40625 0 
L 9.421875 0 
z
M 9.421875 75.984375 
L 18.40625 75.984375 
L 18.40625 64.59375 
L 9.421875 64.59375 
z
" id="DejaVuSans-105"/>
      <path d="M 52 44.1875 
Q 55.375 50.25 60.0625 53.125 
Q 64.75 56 71.09375 56 
Q 79.640625 56 84.28125 50.015625 
Q 88.921875 44.046875 88.921875 33.015625 
L 88.921875 0 
L 79.890625 0 
L 79.890625 32.71875 
Q 79.890625 40.578125 77.09375 44.375 
Q 74.3125 48.1875 68.609375 48.1875 
Q 61.625 48.1875 57.5625 43.546875 
Q 53.515625 38.921875 53.515625 30.90625 
L 53.515625 0 
L 44.484375 0 
L 44.484375 32.71875 
Q 44.484375 40.625 41.703125 44.40625 
Q 38.921875 48.1875 33.109375 48.1875 
Q 26.21875 48.1875 22.15625 43.53125 
Q 18.109375 38.875 18.109375 30.90625 
L 18.109375 0 
L 9.078125 0 
L 9.078125 54.6875 
L 18.109375 54.6875 
L 18.109375 46.1875 
Q 21.1875 51.21875 25.484375 53.609375 
Q 29.78125 56 35.6875 56 
Q 41.65625 56 45.828125 52.96875 
Q 50 49.953125 52 44.1875 
z
" id="DejaVuSans-109"/>
      <path d="M 56.203125 29.59375 
L 56.203125 25.203125 
L 14.890625 25.203125 
Q 15.484375 15.921875 20.484375 11.0625 
Q 25.484375 6.203125 34.421875 6.203125 
Q 39.59375 6.203125 44.453125 7.46875 
Q 49.3125 8.734375 54.109375 11.28125 
L 54.109375 2.78125 
Q 49.265625 0.734375 44.1875 -0.34375 
Q 39.109375 -1.421875 33.890625 -1.421875 
Q 20.796875 -1.421875 13.15625 6.1875 
Q 5.515625 13.8125 5.515625 26.8125 
Q 5.515625 40.234375 12.765625 48.109375 
Q 20.015625 56 32.328125 56 
Q 43.359375 56 49.78125 48.890625 
Q 56.203125 41.796875 56.203125 29.59375 
z
M 47.21875 32.234375 
Q 47.125 39.59375 43.09375 43.984375 
Q 39.0625 48.390625 32.421875 48.390625 
Q 24.90625 48.390625 20.390625 44.140625 
Q 15.875 39.890625 15.1875 32.171875 
z
" id="DejaVuSans-101"/>
      <path id="DejaVuSans-32"/>
      <path d="M 31 75.875 
Q 24.46875 64.65625 21.28125 53.65625 
Q 18.109375 42.671875 18.109375 31.390625 
Q 18.109375 20.125 21.3125 9.0625 
Q 24.515625 -2 31 -13.1875 
L 23.1875 -13.1875 
Q 15.875 -1.703125 12.234375 9.375 
Q 8.59375 20.453125 8.59375 31.390625 
Q 8.59375 42.28125 12.203125 53.3125 
Q 15.828125 64.359375 23.1875 75.875 
z
" id="DejaVuSans-40"/>
      <path d="M 44.28125 53.078125 
L 44.28125 44.578125 
Q 40.484375 46.53125 36.375 47.5 
Q 32.28125 48.484375 27.875 48.484375 
Q 21.1875 48.484375 17.84375 46.4375 
Q 14.5 44.390625 14.5 40.28125 
Q 14.5 37.15625 16.890625 35.375 
Q 19.28125 33.59375 26.515625 31.984375 
L 29.59375 31.296875 
Q 39.15625 29.25 43.1875 25.515625 
Q 47.21875 21.78125 47.21875 15.09375 
Q 47.21875 7.46875 41.1875 3.015625 
Q 35.15625 -1.421875 24.609375 -1.421875 
Q 20.21875 -1.421875 15.453125 -0.5625 
Q 10.6875 0.296875 5.421875 2 
L 5.421875 11.28125 
Q 10.40625 8.6875 15.234375 7.390625 
Q 20.0625 6.109375 24.8125 6.109375 
Q 31.15625 6.109375 34.5625 8.28125 
Q 37.984375 10.453125 37.984375 14.40625 
Q 37.984375 18.0625 35.515625 20.015625 
Q 33.0625 21.96875 24.703125 23.78125 
L 21.578125 24.515625 
Q 13.234375 26.265625 9.515625 29.90625 
Q 5.8125 33.546875 5.8125 39.890625 
Q 5.8125 47.609375 11.28125 51.796875 
Q 16.75 56 26.8125 56 
Q 31.78125 56 36.171875 55.265625 
Q 40.578125 54.546875 44.28125 53.078125 
z
" id="DejaVuSans-115"/>
      <path d="M 48.78125 52.59375 
L 48.78125 44.1875 
Q 44.96875 46.296875 41.140625 47.34375 
Q 37.3125 48.390625 33.40625 48.390625 
Q 24.65625 48.390625 19.8125 42.84375 
Q 14.984375 37.3125 14.984375 27.296875 
Q 14.984375 17.28125 19.8125 11.734375 
Q 24.65625 6.203125 33.40625 6.203125 
Q 37.3125 6.203125 41.140625 7.25 
Q 44.96875 8.296875 48.78125 10.40625 
L 48.78125 2.09375 
Q 45.015625 0.34375 40.984375 -0.53125 
Q 36.96875 -1.421875 32.421875 -1.421875 
Q 20.0625 -1.421875 12.78125 6.34375 
Q 5.515625 14.109375 5.515625 27.296875 
Q 5.515625 40.671875 12.859375 48.328125 
Q 20.21875 56 33.015625 56 
Q 37.15625 56 41.109375 55.140625 
Q 45.0625 54.296875 48.78125 52.59375 
z
" id="DejaVuSans-99"/>
      <path d="M 8.015625 75.875 
L 15.828125 75.875 
Q 23.140625 64.359375 26.78125 53.3125 
Q 30.421875 42.28125 30.421875 31.390625 
Q 30.421875 20.453125 26.78125 9.375 
Q 23.140625 -1.703125 15.828125 -13.1875 
L 8.015625 -13.1875 
Q 14.5 -2 17.703125 9.0625 
Q 20.90625 20.125 20.90625 31.390625 
Q 20.90625 42.671875 17.703125 53.65625 
Q 14.5 64.65625 8.015625 75.875 
z
" id="DejaVuSans-41"/>
     </defs>
     <g transform="translate(195.091406 280.276563)scale(0.1 -0.1)">
      <use xlink:href="#DejaVuSans-84"/>
      <use x="61.037109" xlink:href="#DejaVuSans-105"/>
      <use x="88.820312" xlink:href="#DejaVuSans-109"/>
      <use x="186.232422" xlink:href="#DejaVuSans-101"/>
      <use x="247.755859" xlink:href="#DejaVuSans-32"/>
      <use x="279.542969" xlink:href="#DejaVuSans-40"/>
      <use x="318.556641" xlink:href="#DejaVuSans-115"/>
      <use x="370.65625" xlink:href="#DejaVuSans-101"/>
      <use x="432.179688" xlink:href="#DejaVuSans-99"/>
      <use x="487.160156" xlink:href="#DejaVuSans-41"/>
     </g>
    </g>
   </g>
   <g id="matplotlib.axis_2">
    <g id="ytick_1">
     <g id="line2d_7">
      <defs>
       <path d="M 0 0 
L -3.5 0 
" id="m20ca445137" style="stroke:#000000;stroke-width:0.8;"/>
      </defs>
      <g>
       <use style="stroke:#000000;stroke-width:0.8;" x="54" xlink:href="#m20ca445137" y="225.087949"/>
      </g>
     </g>
     <g id="text_8">
      <!-- −4000 -->
      <defs>
       <path d="M 10.59375 35.5 
L 73.1875 35.5 
L 73.1875 27.203125 
L 10.59375 27.203125 
z
" id="DejaVuSans-8722"/>
      </defs>
      <g transform="translate(13.170313 228.887168)scale(0.1 -0.1)">
       <use xlink:href="#DejaVuSans-8722"/>
       <use x="83.789062" xlink:href="#DejaVuSans-52"/>
       <use x="147.412109" xlink:href="#DejaVuSans-48"/>
       <use x="211.035156" xlink:href="#DejaVuSans-48"/>
       <use x="274.658203" xlink:href="#DejaVuSans-48"/>
      </g>
     </g>
    </g>
    <g id="ytick_2">
     <g id="line2d_8">
      <g>
       <use style="stroke:#000000;stroke-width:0.8;" x="54" xlink:href="#m20ca445137" y="192.559938"/>
      </g>
     </g>
     <g id="text_9">
      <!-- −2000 -->
      <g transform="translate(13.170313 196.359157)scale(0.1 -0.1)">
       <use xlink:href="#DejaVuSans-8722"/>
       <use x="83.789062" xlink:href="#DejaVuSans-50"/>
       <use x="147.412109" xlink:href="#DejaVuSans-48"/>
       <use x="211.035156" xlink:href="#DejaVuSans-48"/>
       <use x="274.658203" xlink:href="#DejaVuSans-48"/>
      </g>
     </g>
    </g>
    <g id="ytick_3">
     <g id="line2d_9">
      <g>
       <use style="stroke:#000000;stroke-width:0.8;" x="54" xlink:href="#m20ca445137" y="160.031926"/>
      </g>
     </g>
     <g id="text_10">
      <!-- 0 -->
      <g transform="translate(40.6375 163.831145)scale(0.1 -0.1)">
       <use xlink:href="#DejaVuSans-48"/>
      </g>
     </g>
    </g>
    <g id="ytick_4">
     <g id="line2d_10">
      <g>
       <use style="stroke:#000000;stroke-width:0.8;" x="54" xlink:href="#m20ca445137" y="127.503914"/>
      </g>
     </g>
     <g id="text_11">
      <!-- 2000 -->
      <g transform="translate(21.55 131.303133)scale(0.1 -0.1)">
       <use xlink:href="#DejaVuSans-50"/>
       <use x="63.623047" xlink:href="#DejaVuSans-48"/>
       <use x="127.246094" xlink:href="#DejaVuSans-48"/>
       <use x="190.869141" xlink:href="#DejaVuSans-48"/>
      </g>
     </g>
    </g>
    <g id="ytick_5">
     <g id="line2d_11">
      <g>
       <use style="stroke:#000000;stroke-width:0.8;" x="54" xlink:href="#m20ca445137" y="94.975903"/>
      </g>
     </g>
     <g id="text_12">
      <!-- 4000 -->
      <g transform="translate(21.55 98.775121)scale(0.1 -0.1)">
       <use xlink:href="#DejaVuSans-52"/>
       <use x="63.623047" xlink:href="#DejaVuSans-48"/>
       <use x="127.246094" xlink:href="#DejaVuSans-48"/>
       <use x="190.869141" xlink:href="#DejaVuSans-48"/>
      </g>
     </g>
    </g>
    <g id="ytick_6">
     <g id="line2d_12">
      <g>
       <use style="stroke:#000000;stroke-width:0.8;" x="54" xlink:href="#m20ca445137" y="62.447891"/>
      </g>
     </g>
     <g id="text_13">
      <!-- 6000 -->
      <defs>
       <path d="M 33.015625 40.375 
Q 26.375 40.375 22.484375 35.828125 
Q 18.609375 31.296875 18.609375 23.390625 
Q 18.609375 15.53125 22.484375 10.953125 
Q 26.375 6.390625 33.015625 6.390625 
Q 39.65625 6.390625 43.53125 10.953125 
Q 47.40625 15.53125 47.40625 23.390625 
Q 47.40625 31.296875 43.53125 35.828125 
Q 39.65625 40.375 33.015625 40.375 
z
M 52.59375 71.296875 
L 52.59375 62.3125 
Q 48.875 64.0625 45.09375 64.984375 
Q 41.3125 65.921875 37.59375 65.921875 
Q 27.828125 65.921875 22.671875 59.328125 
Q 17.53125 52.734375 16.796875 39.40625 
Q 19.671875 43.65625 24.015625 45.921875 
Q 28.375 48.1875 33.59375 48.1875 
Q 44.578125 48.1875 50.953125 41.515625 
Q 57.328125 34.859375 57.328125 23.390625 
Q 57.328125 12.15625 50.6875 5.359375 
Q 44.046875 -1.421875 33.015625 -1.421875 
Q 20.359375 -1.421875 13.671875 8.265625 
Q 6.984375 17.96875 6.984375 36.375 
Q 6.984375 53.65625 15.1875 63.9375 
Q 23.390625 74.21875 37.203125 74.21875 
Q 40.921875 74.21875 44.703125 73.484375 
Q 48.484375 72.75 52.59375 71.296875 
z
" id="DejaVuSans-54"/>
      </defs>
      <g transform="translate(21.55 66.24711)scale(0.1 -0.1)">
       <use xlink:href="#DejaVuSans-54"/>
       <use x="63.623047" xlink:href="#DejaVuSans-48"/>
       <use x="127.246094" xlink:href="#DejaVuSans-48"/>
       <use x="190.869141" xlink:href="#DejaVuSans-48"/>
      </g>
     </g>
    </g>
    <g id="text_14">
     <!-- Amplitude -->
     <defs>
      <path d="M 34.1875 63.1875 
L 20.796875 26.90625 
L 47.609375 26.90625 
z
M 28.609375 72.90625 
L 39.796875 72.90625 
L 67.578125 0 
L 57.328125 0 
L 50.6875 18.703125 
L 17.828125 18.703125 
L 11.1875 0 
L 0.78125 0 
z
" id="DejaVuSans-65"/>
      <path d="M 18.109375 8.203125 
L 18.109375 -20.796875 
L 9.078125 -20.796875 
L 9.078125 54.6875 
L 18.109375 54.6875 
L 18.109375 46.390625 
Q 20.953125 51.265625 25.265625 53.625 
Q 29.59375 56 35.59375 56 
Q 45.5625 56 51.78125 48.09375 
Q 58.015625 40.1875 58.015625 27.296875 
Q 58.015625 14.40625 51.78125 6.484375 
Q 45.5625 -1.421875 35.59375 -1.421875 
Q 29.59375 -1.421875 25.265625 0.953125 
Q 20.953125 3.328125 18.109375 8.203125 
z
M 48.6875 27.296875 
Q 48.6875 37.203125 44.609375 42.84375 
Q 40.53125 48.484375 33.40625 48.484375 
Q 26.265625 48.484375 22.1875 42.84375 
Q 18.109375 37.203125 18.109375 27.296875 
Q 18.109375 17.390625 22.1875 11.75 
Q 26.265625 6.109375 33.40625 6.109375 
Q 40.53125 6.109375 44.609375 11.75 
Q 48.6875 17.390625 48.6875 27.296875 
z
" id="DejaVuSans-112"/>
      <path d="M 9.421875 75.984375 
L 18.40625 75.984375 
L 18.40625 0 
L 9.421875 0 
z
" id="DejaVuSans-108"/>
      <path d="M 18.3125 70.21875 
L 18.3125 54.6875 
L 36.8125 54.6875 
L 36.8125 47.703125 
L 18.3125 47.703125 
L 18.3125 18.015625 
Q 18.3125 11.328125 20.140625 9.421875 
Q 21.96875 7.515625 27.59375 7.515625 
L 36.8125 7.515625 
L 36.8125 0 
L 27.59375 0 
Q 17.1875 0 13.234375 3.875 
Q 9.28125 7.765625 9.28125 18.015625 
L 9.28125 47.703125 
L 2.6875 47.703125 
L 2.6875 54.6875 
L 9.28125 54.6875 
L 9.28125 70.21875 
z
" id="DejaVuSans-116"/>
      <path d="M 8.5 21.578125 
L 8.5 54.6875 
L 17.484375 54.6875 
L 17.484375 21.921875 
Q 17.484375 14.15625 20.5 10.265625 
Q 23.53125 6.390625 29.59375 6.390625 
Q 36.859375 6.390625 41.078125 11.03125 
Q 45.3125 15.671875 45.3125 23.6875 
L 45.3125 54.6875 
L 54.296875 54.6875 
L 54.296875 0 
L 45.3125 0 
L 45.3125 8.40625 
Q 42.046875 3.421875 37.71875 1 
Q 33.40625 -1.421875 27.6875 -1.421875 
Q 18.265625 -1.421875 13.375 4.4375 
Q 8.5 10.296875 8.5 21.578125 
z
M 31.109375 56 
z
" id="DejaVuSans-117"/>
      <path d="M 45.40625 46.390625 
L 45.40625 75.984375 
L 54.390625 75.984375 
L 54.390625 0 
L 45.40625 0 
L 45.40625 8.203125 
Q 42.578125 3.328125 38.25 0.953125 
Q 33.9375 -1.421875 27.875 -1.421875 
Q 17.96875 -1.421875 11.734375 6.484375 
Q 5.515625 14.40625 5.515625 27.296875 
Q 5.515625 40.1875 11.734375 48.09375 
Q 17.96875 56 27.875 56 
Q 33.9375 56 38.25 53.625 
Q 42.578125 51.265625 45.40625 46.390625 
z
M 14.796875 27.296875 
Q 14.796875 17.390625 18.875 11.75 
Q 22.953125 6.109375 30.078125 6.109375 
Q 37.203125 6.109375 41.296875 11.75 
Q 45.40625 17.390625 45.40625 27.296875 
Q 45.40625 37.203125 41.296875 42.84375 
Q 37.203125 48.484375 30.078125 48.484375 
Q 22.953125 48.484375 18.875 42.84375 
Q 14.796875 37.203125 14.796875 27.296875 
z
" id="DejaVuSans-100"/>
     </defs>
     <g transform="translate(7.090625 168.902656)rotate(-90)scale(0.1 -0.1)">
      <use xlink:href="#DejaVuSans-65"/>
      <use x="68.408203" xlink:href="#DejaVuSans-109"/>
      <use x="165.820312" xlink:href="#DejaVuSans-112"/>
      <use x="229.296875" xlink:href="#DejaVuSans-108"/>
      <use x="257.080078" xlink:href="#DejaVuSans-105"/>
      <use x="284.863281" xlink:href="#DejaVuSans-116"/>
      <use x="324.072266" xlink:href="#DejaVuSans-117"/>
      <use x="387.451172" xlink:href="#DejaVuSans-100"/>
      <use x="450.927734" xlink:href="#DejaVuSans-101"/>
     </g>
    </g>
   </g>
   <g id="line2d_13">
    <path clip-path="url(#p8149047d6a)" d="M 69.218182 168.098873 
L 69.625912 175.2713 
L 69.71027 174.637003 
L 69.864926 171.156506 
L 70.174239 159.348838 
L 70.188299 159.446422 
L 70.216418 159.527742 
L 70.258597 159.365102 
L 70.300776 159.007294 
L 70.357015 159.495214 
L 70.610089 158.291677 
L 70.666327 157.641117 
L 70.736626 157.950133 
L 71.439609 168.277777 
L 71.509907 168.017553 
L 71.552086 167.204353 
L 71.664564 165.626744 
L 71.692683 166.293568 
L 71.931697 173.238299 
L 71.987936 174.718323 
L 72.044175 173.417203 
L 72.156652 164.081664 
L 72.606561 119.339383 
L 72.620621 119.371911 
L 72.719039 124.478809 
L 73.520439 201.781629 
L 73.604797 200.464245 
L 73.675096 197.016275 
L 74.504616 127.715346 
L 74.518676 127.910514 
L 74.574914 131.99278 
L 75.038883 189.469777 
L 75.123241 186.200711 
L 75.404435 175.75922 
L 75.446614 175.51526 
L 75.474733 176.149556 
L 75.530972 177.499468 
L 75.573151 176.57242 
L 75.826225 159.365102 
L 75.938702 153.233572 
L 75.980881 153.640172 
L 76.065239 155.282836 
L 76.177716 163.219671 
L 76.374552 171.156506 
L 76.388611 171.221562 
L 76.402671 170.84749 
L 76.501088 164.293096 
L 76.768222 114.362598 
L 76.908819 96.537247 
L 76.936938 98.37508 
L 77.161893 127.910514 
L 77.443086 169.822858 
L 77.513384 173.384675 
L 77.668041 192.559938 
L 77.892995 211.100904 
L 77.921115 211.491241 
L 77.949234 211.247281 
L 78.019532 199.976324 
L 78.455382 130.968148 
L 78.483501 130.398907 
L 78.511621 131.765084 
L 78.680337 140.043463 
L 78.708456 139.945879 
L 78.764695 144.938929 
L 78.849053 143.052304 
L 78.891232 141.669863 
L 78.933411 143.019776 
L 79.017769 149.232626 
L 79.425499 202.058117 
L 79.453618 203.180334 
L 79.495797 200.610621 
L 79.847289 157.299573 
L 79.959766 161.886023 
L 80.072243 165.106296 
L 80.114422 165.057504 
L 80.156601 164.927392 
L 80.170661 165.090032 
L 80.19878 165.2852 
L 80.21284 164.781016 
L 80.353437 158.015189 
L 80.395616 159.674118 
L 80.606511 172.034762 
L 80.803346 181.97207 
L 80.859585 178.637949 
L 80.943943 166.992921 
L 81.295434 66.936756 
L 81.379792 80.387089 
L 81.843761 188.493936 
L 81.857821 187.501832 
L 81.9 185.224871 
L 81.928119 187.794584 
L 82.181193 215.085586 
L 82.195253 214.516346 
L 82.223372 213.394129 
L 82.265551 216.354178 
L 82.32179 217.460131 
L 82.349909 215.540978 
L 82.827938 111.321228 
L 82.884177 114.427654 
L 83.207549 164.195512 
L 83.263788 160.601166 
L 83.446563 167.415785 
L 83.713697 202.106909 
L 83.755876 199.358292 
L 83.924592 185.387511 
L 84.163606 150.810235 
L 84.205785 149.997034 
L 84.247964 151.737283 
L 84.557277 176.312196 
L 84.585396 175.173715 
L 84.880649 165.789384 
L 84.922828 167.204353 
L 85.077484 178.572893 
L 85.161842 177.06034 
L 85.232141 173.677427 
L 85.400857 121.177216 
L 85.653931 48.054246 
L 85.66799 50.412527 
L 85.921064 136.514174 
L 86.146019 202.415925 
L 86.202258 209.718464 
L 86.258496 203.359238 
L 86.272556 202.464717 
L 86.314735 205.457294 
L 86.370974 212.792361 
L 86.455332 212.271913 
L 86.483451 211.930369 
L 86.497511 212.597193 
L 86.553749 217.882995 
L 86.609988 213.345337 
L 86.624048 213.507977 
L 86.638107 213.491713 
L 86.750585 192.673786 
L 87.073957 99.367184 
L 87.102076 100.294233 
L 87.284852 128.138211 
L 87.495747 173.026867 
L 87.551985 180.75227 
L 87.608224 174.978547 
L 87.650403 171.790802 
L 87.720701 174.523155 
L 88.058133 198.301132 
L 88.142491 191.795529 
L 88.254969 180.670949 
L 88.493983 150.761443 
L 88.536162 149.65549 
L 88.564281 151.021667 
L 88.676759 168.375361 
L 88.887654 181.24019 
L 88.901713 181.500414 
L 88.943892 180.719741 
L 89.239145 166.195984 
L 89.309444 168.163929 
L 89.407861 174.181611 
L 89.4641 172.083554 
L 89.604697 158.096509 
L 89.956188 44.638804 
L 90.026487 61.244354 
L 90.251441 159.901814 
L 90.448277 215.10185 
L 90.490456 220.485236 
L 90.546694 214.402498 
L 90.701351 208.108327 
L 90.74353 207.034903 
L 91.052842 179.158397 
L 91.362155 97.545616 
L 91.404334 100.961057 
L 91.854243 189.242081 
L 91.924541 178.979493 
L 91.938601 178.312669 
L 92.008899 179.857749 
L 92.065138 181.24019 
L 92.093257 179.857749 
L 92.135436 178.328933 
L 92.177615 180.801062 
L 92.304152 187.77832 
L 92.346331 186.151919 
L 92.627525 157.332101 
L 92.683763 150.956611 
L 92.754062 153.135988 
L 92.936837 168.586793 
L 93.133673 182.476254 
L 93.161792 183.012966 
L 93.189911 183.826167 
L 93.218031 182.346142 
L 93.386747 173.888859 
L 93.457045 168.538001 
L 93.541403 170.977602 
L 93.696059 175.059867 
L 93.808537 168.603057 
L 93.977253 116.76967 
L 94.230327 44.443636 
L 94.244386 46.102565 
L 94.469341 131.195844 
L 94.694296 202.773733 
L 94.750534 213.215225 
L 94.806773 207.669199 
L 94.863011 200.675677 
L 94.93331 204.579038 
L 94.989548 200.740733 
L 95.059847 203.00143 
L 95.102026 204.481454 
L 95.130145 202.643621 
L 95.425398 134.334797 
L 95.608174 94.910847 
L 95.650353 97.740784 
L 95.861248 158.372997 
L 95.973725 187.225344 
L 96.029964 185.907959 
L 96.100262 192.088282 
L 96.142441 186.493464 
L 96.240859 173.010603 
L 96.339276 173.108187 
L 96.437694 180.345669 
L 96.59235 187.111496 
L 96.60641 187.274136 
L 96.648589 186.493464 
L 96.747007 169.221089 
L 96.957902 146.695441 
L 97.000081 149.037458 
L 97.309393 186.038071 
L 97.365632 185.550151 
L 97.379692 185.842903 
L 97.407811 185.354983 
L 97.717124 163.447367 
L 97.745243 165.496632 
L 97.970198 179.922805 
L 98.026436 178.589157 
L 98.152973 145.735865 
L 98.476345 45.077933 
L 98.518524 57.747593 
L 98.841897 192.85269 
L 98.870016 191.291345 
L 98.898135 190.819689 
L 98.912195 191.665417 
L 98.996553 205.766311 
L 99.052792 199.114332 
L 99.10903 195.080859 
L 99.151209 199.114332 
L 99.319925 207.555351 
L 99.376164 205.408502 
L 99.572999 154.534692 
L 99.812014 91.056277 
L 99.840133 92.08091 
L 99.924491 111.239908 
L 100.247863 190.754633 
L 100.261923 190.152865 
L 100.444699 173.091923 
L 100.557176 178.150029 
L 100.585295 177.515732 
L 100.613415 178.995757 
L 100.739952 194.23513 
L 100.81025 191.356401 
L 100.908668 182.86659 
L 101.161742 148.712178 
L 101.260159 158.90971 
L 101.513233 189.404721 
L 101.527293 188.933064 
L 101.836606 167.220617 
L 101.920964 168.960865 
L 101.963143 169.692746 
L 102.117799 182.05339 
L 102.202157 178.637949 
L 102.286515 170.749906 
L 102.48335 96.033063 
L 102.638006 54.136984 
L 102.666126 55.275464 
L 102.722364 48.932502 
L 102.736424 52.640695 
L 103.073856 184.232767 
L 103.101975 182.54131 
L 103.130095 180.199293 
L 103.158214 183.419566 
L 103.242572 200.691941 
L 103.298811 193.682154 
L 103.31287 192.315978 
L 103.355049 197.374084 
L 103.439407 211.540033 
L 103.481586 203.131542 
L 103.495646 201.797893 
L 103.537825 207.148751 
L 103.580004 209.523296 
L 103.622183 206.368079 
L 103.987734 101.009849 
L 104.058033 103.823522 
L 104.142391 121.095896 
L 104.395465 184.118919 
L 104.437644 182.476254 
L 104.507942 177.54826 
L 104.564181 180.199293 
L 104.57824 180.296877 
L 104.5923 179.711373 
L 104.676658 170.050554 
L 104.718837 175.694164 
L 104.803195 187.241608 
L 104.873493 186.786216 
L 104.943792 193.812266 
L 105.00003 190.185393 
L 105.267164 148.744706 
L 105.309343 151.623435 
L 105.44994 158.844654 
L 105.688954 186.80248 
L 105.717073 187.762056 
L 105.759252 185.842903 
L 106.026386 172.002234 
L 106.040445 172.099818 
L 106.293519 177.938596 
L 106.335698 176.848908 
L 106.391937 175.141187 
L 106.630951 140.336215 
L 106.940264 57.357257 
L 106.954324 55.698328 
L 106.982443 60.301042 
L 107.305815 183.159342 
L 107.347994 177.662108 
L 107.362054 177.271772 
L 107.376114 178.442781 
L 107.488591 204.05859 
L 107.54483 192.185866 
L 107.558889 190.738369 
L 107.601068 197.780684 
L 107.671367 213.914577 
L 107.727605 204.936846 
L 107.783844 206.644567 
L 107.882262 192.77137 
L 108.205634 107.125115 
L 108.233753 105.921579 
L 108.289992 107.938315 
L 108.37435 126.690714 
L 108.655543 183.842431 
L 108.739901 167.692273 
L 108.79614 175.938124 
L 108.852379 183.891223 
L 108.894558 175.954388 
L 108.922677 173.628635 
L 108.964856 181.15887 
L 109.035154 193.047858 
L 109.105453 191.421457 
L 109.119512 191.600361 
L 109.175751 190.901009 
L 109.21793 186.737424 
L 109.471004 152.241467 
L 109.513183 156.030981 
L 109.808436 184.460463 
L 110.075569 178.426517 
L 110.131808 175.661636 
L 110.188047 177.092868 
L 110.230226 178.491573 
L 110.272405 176.32846 
L 110.342703 172.782907 
L 110.398942 174.702059 
L 110.525479 171.98597 
L 110.539538 171.774538 
L 110.553598 172.441363 
L 110.581717 173.612371 
L 110.609837 170.652322 
L 110.89103 116.265486 
L 111.158164 58.78849 
L 111.186283 64.285724 
L 111.495596 173.026867 
L 111.537775 169.757802 
L 111.551834 169.806594 
L 111.594013 174.311723 
L 111.861147 209.816048 
L 111.875207 209.86484 
L 111.889266 209.669672 
L 111.917386 208.64504 
L 111.945505 211.312337 
L 111.987684 219.297963 
L 112.029863 211.995425 
L 112.423534 109.629772 
L 112.437593 110.085164 
L 112.536011 123.259009 
L 112.873443 161.528215 
L 112.901562 160.552374 
L 112.943741 163.073295 
L 113.323352 198.431244 
L 113.379591 193.942378 
L 113.660784 163.821439 
L 113.702963 166.34236 
L 113.8295 173.661163 
L 113.871679 173.189507 
L 113.927918 175.51526 
L 114.026335 175.092395 
L 114.152872 173.173243 
L 114.166932 173.498523 
L 114.293469 177.125396 
L 114.335648 176.068236 
L 114.65902 164.455736 
L 114.701199 166.147192 
L 114.799617 169.383729 
L 114.841796 167.123033 
L 114.898035 167.789857 
L 115.010512 156.453845 
L 115.347944 77.654736 
L 115.390123 84.209131 
L 115.671316 151.395739 
L 115.685376 150.842763 
L 115.755674 140.271159 
L 115.797853 147.557434 
L 116.036868 188.786688 
L 116.191524 206.026535 
L 116.233703 198.691468 
L 116.486777 153.493796 
L 116.557075 158.99103 
L 116.585195 155.2991 
L 116.641433 147.768866 
L 116.697672 154.697332 
L 116.753911 159.690382 
L 116.838268 159.625326 
L 116.908567 163.203407 
L 116.950746 159.80423 
L 117.302237 145.003985 
L 117.330357 146.337633 
L 117.639669 166.927865 
L 117.695908 170.896282 
L 117.864624 180.75227 
L 117.920863 184.167711 
L 117.991161 188.721632 
L 118.0474 186.851272 
L 118.089579 185.924223 
L 118.159877 186.72116 
L 118.173937 186.851272 
L 118.187996 186.63984 
L 118.370772 174.799643 
L 118.609786 160.259622 
L 118.666025 161.886023 
L 118.708204 159.674118 
L 118.778502 154.64854 
L 118.834741 156.762861 
L 119.186233 166.374888 
L 119.31277 166.277304 
L 119.383068 165.52916 
L 120.311006 129.976043 
L 120.353185 130.772979 
L 121.421719 179.012021 
L 121.449839 178.393989 
L 121.674793 174.230403 
L 122.335598 159.462686 
L 122.434015 160.308414 
L 122.67303 163.496159 
L 122.701149 163.317255 
L 122.926104 159.202462 
L 122.940163 159.15367 
L 122.954223 159.348838 
L 123.024521 160.275886 
L 123.08076 159.787966 
L 123.09482 159.755438 
L 123.108879 159.901814 
L 123.390073 166.374888 
L 123.530669 166.033344 
L 123.572848 166.293568 
L 123.600968 165.952024 
L 123.839982 162.455263 
L 123.882161 162.438999 
L 123.966519 161.18667 
L 124.781979 141.97888 
L 124.810099 142.255368 
L 124.908516 144.678705 
L 124.992874 144.66244 
L 125.330306 154.355788 
L 125.780216 172.197402 
L 126.061409 176.00318 
L 126.145767 175.303828 
L 126.258244 173.498523 
L 126.581617 165.382784 
L 126.680034 163.967815 
L 126.736273 164.439472 
L 126.750333 164.472 
L 126.764392 164.358152 
L 127.340839 158.161565 
L 127.411137 158.633222 
L 127.425197 158.682014 
L 127.467376 158.535638 
L 127.481435 158.535638 
L 127.495495 158.519373 
L 127.509555 158.58443 
L 127.734509 159.576534 
L 127.861046 158.486845 
L 127.987583 158.893446 
L 128.212538 161.316783 
L 128.268776 160.958974 
L 128.465612 157.397157 
L 128.662447 154.274468 
L 128.676507 154.290732 
L 128.929581 157.071877 
L 129.027998 156.258677 
L 129.196714 151.477059 
L 129.421669 145.638281 
L 129.435729 145.622017 
L 129.449788 145.670809 
L 129.632564 149.183834 
L 129.941877 156.941765 
L 130.040294 159.300046 
L 130.504263 173.173243 
L 130.546442 173.026867 
L 130.574562 172.831699 
L 130.855755 169.887914 
L 130.940113 170.11561 
L 131.010411 170.229458 
L 130.968232 170.099346 
L 131.038531 170.083082 
L 131.151008 169.123505 
L 131.390022 162.243831 
L 131.643096 156.649013 
L 131.685275 156.811653 
L 131.713394 156.909237 
L 131.755573 156.746597 
L 131.769633 156.779125 
L 131.811812 156.567693 
L 131.853991 156.779125 
L 131.89617 157.315837 
L 131.966468 156.892973 
L 132.036767 156.567693 
L 132.078946 156.860445 
L 132.233602 156.486373 
L 132.261721 156.535165 
L 132.388258 157.494741 
L 132.430437 157.332101 
L 132.500736 157.153197 
L 132.556974 157.218253 
L 132.585094 157.055613 
L 132.838168 154.388316 
L 132.866287 154.40458 
L 133.020943 156.551429 
L 133.217779 159.23499 
L 133.288077 158.877182 
L 133.330256 158.714542 
L 133.611449 155.071404 
L 133.653628 155.266572 
L 133.864523 156.892973 
L 133.962941 157.315837 
L 133.99106 157.120669 
L 134.103538 156.892973 
L 134.145717 157.055613 
L 134.187896 157.445949 
L 134.41285 164.22804 
L 134.651865 169.432521 
L 134.975237 165.85444 
L 135.031476 165.952024 
L 135.298609 166.960393 
L 135.312669 166.83028 
L 135.425146 165.870704 
L 135.720399 159.007294 
L 135.875055 158.210357 
L 135.931294 158.600694 
L 136.071891 159.300046 
L 136.142189 159.413894 
L 136.170308 159.283782 
L 137.042008 152.176411 
L 137.084187 152.208939 
L 137.337261 156.762861 
L 137.576275 160.357206 
L 137.604394 160.243358 
L 137.632514 160.21083 
L 137.660633 160.422262 
L 137.702812 160.666222 
L 137.759051 160.324678 
L 138.068363 159.007294 
L 138.124602 159.121142 
L 138.138662 159.121142 
L 138.20896 158.812126 
L 138.251139 159.007294 
L 138.377676 159.657854 
L 138.799466 166.895337 
L 138.855704 167.171825 
L 138.897883 166.862809 
L 139.108778 165.155088 
L 139.249375 164.065399 
L 139.263435 164.14672 
L 139.291554 164.179248 
L 139.502449 163.431103 
L 139.741463 161.056558 
L 139.910179 160.438526 
L 140.135134 160.86139 
L 140.149194 160.86139 
L 140.233552 161.316783 
L 140.275731 161.219198 
L 140.514745 159.202462 
L 140.753759 156.925501 
L 140.795938 156.827917 
L 141.288027 152.339051 
L 141.372385 152.713123 
L 141.850413 160.422262 
L 141.948831 160.633694 
L 141.99101 160.552374 
L 142.117547 160.308414 
L 142.187845 160.53611 
L 142.230024 160.324678 
L 142.272203 160.37347 
L 142.286263 160.243358 
L 142.314382 160.275886 
L 142.454979 159.88555 
L 142.792411 162.552847 
L 143.24232 164.95992 
L 143.425096 164.585848 
L 143.551633 163.902759 
L 143.734408 162.715487 
L 143.846886 162.243831 
L 143.889065 162.455263 
L 144.015602 162.780543 
L 144.057781 162.715487 
L 144.114019 162.926919 
L 144.240556 163.138351 
L 144.563929 161.121614 
L 145.491867 153.396212 
L 145.505926 153.412476 
L 145.519986 153.396212 
L 145.534046 153.493796 
L 145.604344 154.0793 
L 145.998015 158.877182 
L 146.082373 158.389261 
L 146.222969 157.885077 
L 146.307327 157.429685 
L 146.349506 157.706173 
L 146.630699 158.58443 
L 146.644759 158.519373 
L 146.827535 159.999398 
L 146.968131 161.642063 
L 147.277444 164.699696 
L 147.291504 164.650904 
L 147.305563 164.79728 
L 147.319623 164.748488 
L 147.4321 165.155088 
L 147.46022 165.106296 
L 147.924189 161.284254 
L 147.952308 161.26799 
L 148.036666 161.430631 
L 148.050726 161.284254 
L 148.121024 161.674591 
L 148.458456 163.398575 
L 148.486575 163.252199 
L 148.655291 162.552847 
L 148.669351 162.601639 
L 148.69747 162.357679 
L 148.866186 161.609535 
L 149.063022 159.820494 
L 149.203618 157.933869 
L 149.442633 155.103932 
L 149.56917 154.290732 
L 149.597289 154.40458 
L 149.611349 154.388316 
L 149.625408 154.4859 
L 149.639468 154.420844 
L 150.201854 158.194093 
L 150.215914 158.063981 
L 150.258093 158.58443 
L 150.272153 158.519373 
L 150.37057 158.698278 
L 150.39869 158.682014 
L 150.426809 158.649486 
L 150.440869 158.763334 
L 150.454928 158.714542 
L 150.539286 159.104878 
L 150.595525 159.039822 
L 150.708002 158.844654 
L 150.623644 159.056086 
L 150.722062 158.942238 
L 150.989196 158.551902 
L 151.22821 159.706646 
L 151.706239 164.55332 
L 151.776537 164.325624 
L 151.889014 163.707591 
L 152.043671 162.325151 
L 152.05773 162.341415 
L 152.142088 161.820967 
L 152.240506 162.064927 
L 152.268625 162.146247 
L 152.395162 162.227567 
L 152.718535 160.69875 
L 152.816952 160.78007 
L 153.098146 162.178775 
L 153.140325 162.113719 
L 153.280921 161.02403 
L 153.702711 157.039349 
L 153.913606 156.649013 
L 154.335396 157.820021 
L 154.630649 159.56027 
L 154.813425 160.015662 
L 154.855604 159.836758 
L 155.164916 158.58443 
L 155.488289 160.812598 
L 155.741363 162.081191 
L 155.755422 162.032399 
L 155.811661 162.162511 
L 155.825721 162.064927 
L 155.938198 162.455263 
L 155.966317 162.406471 
L 156.27563 161.007766 
L 156.416227 161.10535 
L 156.613062 161.495687 
L 156.781778 161.121614 
L 156.795838 161.170406 
L 156.838017 161.040294 
L 156.880196 161.10535 
L 156.922375 161.202934 
L 157.161389 162.113719 
L 157.231687 161.886023 
L 157.316045 161.300518 
L 157.583179 158.763334 
L 157.625358 158.682014 
L 157.709716 158.714542 
L 157.765954 158.649486 
L 157.780014 158.812126 
L 157.794074 158.730806 
L 157.892491 158.942238 
L 157.906551 158.893446 
L 157.976849 158.714542 
L 157.990909 158.763334 
L 158.173685 157.754965 
L 158.215864 157.901341 
L 158.258043 157.673645 
L 158.272102 157.689909 
L 158.328341 157.429685 
L 158.398639 157.478477 
L 158.609534 158.389261 
L 158.651713 158.438053 
L 158.862608 159.592798 
L 158.890728 159.609062 
L 159.115682 158.763334 
L 159.256279 158.372997 
L 160.156098 162.975711 
L 160.296694 162.715487 
L 160.338873 162.585375 
L 160.352933 162.617903 
L 160.535709 161.674591 
L 160.549768 161.674591 
L 160.718484 161.170406 
L 160.8872 160.86139 
L 160.90126 160.910182 
L 161.069976 161.251726 
L 161.126214 161.511951 
L 161.224632 161.463159 
L 161.280871 161.544479 
L 161.29493 161.463159 
L 161.829198 157.283309 
L 161.885436 157.576061 
L 162.068212 158.177829 
L 162.124451 158.291677 
L 162.15257 158.194093 
L 162.293167 157.836285 
L 162.307226 157.868813 
L 162.433763 157.657381 
L 162.461883 157.689909 
L 162.953971 159.869286 
L 162.504062 157.673645 
L 162.99615 159.771702 
L 163.235164 158.82839 
L 163.249224 158.860918 
L 163.783491 162.195039 
L 163.811611 162.178775 
L 163.924088 161.707119 
L 163.966267 161.723383 
L 164.289639 163.073295 
L 164.373997 162.829335 
L 164.767668 160.145774 
L 164.852026 160.12951 
L 164.866085 160.194566 
L 165.231637 161.788439 
L 165.245696 161.755911 
L 165.301935 161.820967 
L 165.330054 161.772175 
L 165.808083 159.657854 
L 165.822143 159.755438 
L 165.878381 159.527742 
L 166.103336 158.860918 
L 166.257992 158.226621 
L 166.426708 157.641117 
L 166.468887 157.771229 
L 166.539186 157.836285 
L 167.017214 159.739174 
L 167.19999 158.649486 
L 167.21405 158.730806 
L 167.256229 158.470581 
L 167.424945 157.998925 
L 167.467124 158.129037 
L 167.481183 158.112773 
L 167.692078 159.625326 
L 167.762377 160.031926 
L 167.931093 160.61743 
L 168.198226 161.902287 
L 168.395061 163.170879 
L 168.409121 163.122087 
L 168.4513 163.333519 
L 168.479419 163.252199 
L 168.943388 159.96687 
L 169.013687 160.259622 
L 169.252701 160.86139 
L 169.71667 159.836758 
L 169.322999 160.926446 
L 169.772909 159.934342 
L 169.786968 159.918078 
L 169.829147 160.031926 
L 170.011923 160.503582 
L 170.222818 159.348838 
L 170.236878 159.39763 
L 170.264997 159.23499 
L 170.532131 157.966397 
L 170.616489 158.161565 
L 170.785205 158.795862 
L 170.799264 158.763334 
L 170.897682 158.974766 
L 170.939861 158.925974 
L 171.249174 158.096509 
L 171.347591 158.177829 
L 171.474128 158.405525 
L 171.488188 158.389261 
L 171.656904 158.438053 
L 171.83968 159.07235 
L 171.853739 159.023558 
L 171.895918 159.23499 
L 171.938097 159.413894 
L 172.556722 163.382311 
L 172.598901 163.333519 
L 172.627021 163.349783 
L 172.795737 162.634167 
L 172.950393 161.755911 
L 173.020691 161.804703 
L 173.07693 161.788439 
L 173.147228 162.081191 
L 173.203467 162.032399 
L 173.245646 162.097455 
L 173.259706 161.902287 
L 173.273765 162.048663 
L 173.470601 160.731278 
L 173.695555 159.576534 
L 173.709615 159.657854 
L 173.723675 159.592798 
L 173.779913 159.72291 
L 174.004868 160.731278 
L 174.131405 160.958974 
L 174.187644 160.812598 
L 174.398539 159.511478 
L 174.412598 159.544006 
L 174.426658 159.39763 
L 174.482897 159.446422 
L 174.553195 158.779598 
L 174.623493 158.942238 
L 174.735971 158.682014 
L 174.75003 158.763334 
L 174.820329 158.860918 
L 174.904687 158.389261 
L 174.918746 158.421789 
L 174.960925 158.275413 
L 175.17182 157.462213 
L 175.228059 157.397157 
L 175.396775 158.194093 
L 175.635789 159.983134 
L 175.706087 159.80423 
L 175.663908 160.04819 
L 175.734207 159.918078 
L 175.762326 160.04819 
L 175.818565 159.706646 
L 175.959161 159.088614 
L 175.973221 159.169934 
L 176.0154 159.365102 
L 176.071639 159.137406 
L 176.099758 159.007294 
L 176.155997 159.23499 
L 176.493429 160.731278 
L 176.676204 161.577007 
L 176.718383 161.544479 
L 176.774622 161.967343 
L 176.816801 161.690855 
L 176.957398 161.137878 
L 176.985517 161.300518 
L 176.999577 161.235462 
L 177.069875 161.18667 
L 177.126114 161.511951 
L 177.337009 162.243831 
L 177.407307 162.113719 
L 177.449486 162.260095 
L 177.477605 162.081191 
L 177.730679 160.064454 
L 177.744739 160.080718 
L 177.758799 160.064454 
L 177.772858 160.178302 
L 177.983753 160.715014 
L 178.011873 160.69875 
L 178.025932 160.633694 
L 178.082171 160.893918 
L 178.096231 160.975238 
L 178.180589 160.828862 
L 178.208708 160.812598 
L 178.461782 159.104878 
L 178.503961 159.23499 
L 178.54614 159.056086 
L 178.588319 158.860918 
L 178.630498 159.056086 
L 178.658617 159.202462 
L 178.714856 158.942238 
L 178.799214 158.99103 
L 178.869512 159.23499 
L 178.897632 159.039822 
L 178.939811 158.779598 
L 178.98199 159.332574 
L 179.010109 159.381366 
L 179.024169 159.267518 
L 179.206944 154.957556 
L 179.249123 152.973347 
L 179.333481 153.005876 
L 179.37566 155.835813 
L 179.544376 166.488736 
L 179.558436 165.643008 
L 179.713092 158.291677 
L 179.642794 165.968288 
L 179.727152 159.137406 
L 179.78339 166.147192 
L 179.825569 158.682014 
L 179.853689 154.664804 
L 179.895868 161.26799 
L 179.923987 165.805648 
L 179.994285 159.755438 
L 180.050524 163.235935 
L 180.092703 159.690382 
L 180.106763 158.877182 
L 180.148942 161.999871 
L 180.163001 162.959447 
L 180.20518 158.486845 
L 180.2333 154.583484 
L 180.289538 161.886023 
L 180.303598 163.284727 
L 180.345777 158.486845 
L 180.373896 154.518428 
L 180.430135 162.064927 
L 180.458254 164.55332 
L 180.500433 159.853022 
L 180.542612 156.079773 
L 180.612911 159.544006 
L 180.62697 159.64159 
L 180.697269 154.583484 
L 180.739448 158.942238 
L 180.781627 164.39068 
L 180.837865 158.421789 
L 180.865985 155.754492 
L 180.908164 160.178302 
L 180.964402 167.643481 
L 181.020641 161.886023 
L 181.034701 161.170406 
L 181.07688 164.30936 
L 181.119059 167.041713 
L 181.189357 164.829808 
L 181.203417 164.829808 
L 181.217476 164.976184 
L 181.245596 164.504528 
L 181.442431 158.438053 
L 181.456491 159.023558 
L 181.49867 161.625799 
L 181.540849 158.372997 
L 181.583028 154.876236 
L 181.653326 157.283309 
L 181.695505 156.226149 
L 181.723624 157.868813 
L 181.765803 160.243358 
L 181.822042 156.811653 
L 181.92046 154.746124 
L 181.864221 156.876709 
L 181.948579 156.063509 
L 181.990758 160.015662 
L 182.032937 154.632276 
L 182.061056 151.704755 
L 182.103235 158.633222 
L 182.131355 162.731751 
L 182.187593 154.794916 
L 182.201653 153.932924 
L 182.229772 157.234517 
L 182.271951 163.089559 
L 182.34225 158.259149 
L 182.398488 163.463631 
L 182.440667 158.714542 
L 182.468787 156.030981 
L 182.525025 161.625799 
L 182.539085 162.325151 
L 182.581264 159.771702 
L 182.707801 158.031453 
L 182.73592 158.812126 
L 182.890576 163.382311 
L 182.932755 160.357206 
L 182.960875 158.633222 
L 183.003054 162.991975 
L 183.031173 165.480368 
L 183.073352 161.251726 
L 183.101471 158.226621 
L 183.15771 162.650431 
L 183.17177 163.479895 
L 183.213949 160.649958 
L 183.256128 158.177829 
L 183.298307 161.609535 
L 183.326426 162.682959 
L 183.368605 160.357206 
L 183.410784 159.023558 
L 183.467023 160.096982 
L 183.523261 161.853495 
L 183.56544 159.88555 
L 183.607619 156.844181 
L 183.649798 161.300518 
L 183.677918 163.723855 
L 183.720097 159.348838 
L 183.748216 157.250781 
L 183.790395 163.187143 
L 183.818514 166.0984 
L 183.874753 159.787966 
L 183.888813 159.348838 
L 183.902872 160.04819 
L 183.959111 166.521264 
L 184.01535 161.853495 
L 184.029409 160.94271 
L 184.085648 164.195512 
L 184.113767 165.496632 
L 184.170006 163.317255 
L 184.212185 162.552847 
L 184.254364 163.691327 
L 184.268424 163.967815 
L 184.310603 162.894391 
L 184.366841 159.609062 
L 184.40902 161.755911 
L 184.43714 163.333519 
L 184.479319 159.609062 
L 184.521498 155.917133 
L 184.577736 160.145774 
L 184.605856 158.714542 
L 184.774572 151.021667 
L 184.943288 146.549065 
L 184.999526 144.044408 
L 185.055765 146.467745 
L 185.069825 146.809289 
L 185.112004 145.556961 
L 185.140123 144.66244 
L 185.182302 147.167097 
L 185.365078 154.550956 
L 185.393197 153.802812 
L 185.421316 152.957083 
L 185.449436 154.388316 
L 185.716569 168.424153 
L 185.772808 169.497577 
L 185.969643 175.108659 
L 185.997763 175.466468 
L 186.039942 174.506891 
L 186.068061 173.840067 
L 186.11024 175.2713 
L 186.138359 175.531524 
L 186.152419 174.897227 
L 186.391433 167.610953 
L 186.546089 163.740119 
L 186.602328 165.756856 
L 186.616388 165.821912 
L 186.630447 165.61048 
L 186.672626 164.813544 
L 186.728865 165.789384 
L 186.9257 169.887914 
L 186.995999 169.839122 
L 187.024118 169.904178 
L 187.052237 170.473418 
L 187.206894 172.652795 
L 187.249073 172.847963 
L 187.277192 172.425099 
L 187.305311 172.083554 
L 187.333431 173.026867 
L 187.36155 173.612371 
L 187.403729 171.465522 
L 187.656803 156.649013 
L 188.022354 93.577198 
L 188.036414 95.382503 
L 188.162951 124.430017 
L 188.247309 123.584289 
L 188.500383 165.301464 
L 188.725338 214.174802 
L 188.753457 212.613457 
L 188.781576 210.303968 
L 188.823755 214.223594 
L 188.837815 215.606034 
L 188.865934 212.792361 
L 189.147128 156.925501 
L 189.161187 157.201989 
L 189.217426 161.902287 
L 189.245545 158.031453 
L 189.48456 115.826358 
L 189.695455 150.972875 
L 189.765753 167.708537 
L 189.821992 162.438999 
L 189.864171 173.726219 
L 189.934469 190.705841 
L 189.990708 182.752742 
L 190.018827 178.215085 
L 190.075066 185.794111 
L 190.243781 196.723523 
L 190.271901 197.748156 
L 190.30002 195.194707 
L 190.356259 188.737896 
L 190.398438 194.723051 
L 190.440617 197.309027 
L 190.482796 192.332242 
L 190.553094 171.66069 
L 190.609333 183.614735 
L 190.623392 185.436303 
L 190.665571 179.044549 
L 190.72181 165.415312 
L 190.792108 171.758274 
L 190.834287 174.149083 
L 190.876466 169.692746 
L 190.918645 163.837703 
L 190.974884 171.221562 
L 190.988944 171.595634 
L 191.003003 170.636058 
L 191.101421 166.537528 
L 191.12954 169.156033 
L 191.15766 171.189034 
L 191.185779 166.570056 
L 191.368555 103.416922 
L 191.495092 76.272296 
L 191.509151 78.370353 
L 191.916882 151.721019 
L 191.593509 73.198399 
L 191.945001 147.638754 
L 191.97312 142.987248 
L 192.015299 152.729387 
L 192.296493 230.080999 
L 192.352731 220.046108 
L 192.39491 229.511759 
L 192.40897 230.064735 
L 192.42303 228.275695 
L 192.872939 136.123837 
L 192.915118 131.683764 
L 192.971357 137.522542 
L 193.027595 125.113105 
L 193.069774 119.908624 
L 193.126013 123.389121 
L 193.154132 125.682346 
L 193.196311 119.534551 
L 193.224431 117.127479 
L 193.26661 123.893305 
L 193.519684 178.914437 
L 193.575922 178.377725 
L 193.6884 188.59152 
L 193.744638 184.232767 
L 193.758698 183.27319 
L 193.814937 186.103127 
L 193.843056 187.53436 
L 193.885235 183.940015 
L 193.969593 181.89075 
L 193.983652 182.752742 
L 194.025831 187.664472 
L 194.06801 179.906541 
L 194.124249 171.82333 
L 194.194547 174.506891 
L 194.222667 177.288036 
L 194.264846 173.498523 
L 194.321084 167.366993 
L 194.363263 171.514314 
L 194.560099 183.143078 
L 194.588218 184.379143 
L 194.630397 181.126342 
L 194.686636 177.906068 
L 194.728815 180.589629 
L 194.770994 183.224398 
L 194.799113 179.987861 
L 194.841292 174.685795 
L 194.91159 179.304773 
L 194.967829 184.362879 
L 195.010008 178.377725 
L 195.164664 153.965452 
L 195.389619 72.157502 
L 195.403679 73.426095 
L 195.431798 69.604053 
L 195.473977 57.422313 
L 195.516156 73.686319 
L 195.698932 120.055 
L 196.289438 242.116364 
L 196.317557 239.416539 
L 196.767466 123.486705 
L 196.809645 125.064313 
L 196.865884 132.39938 
L 196.922123 125.94257 
L 197.104898 113.809621 
L 197.133018 116.44439 
L 197.357972 166.195984 
L 197.540748 199.098068 
L 197.568867 201.375029 
L 197.611046 195.682627 
L 197.976597 174.295459 
L 197.990657 174.376779 
L 198.089075 179.402357 
L 198.145313 176.312196 
L 198.201552 169.546369 
L 198.27185 174.002707 
L 198.28591 174.929755 
L 198.328089 171.49805 
L 198.370268 166.862809 
L 198.412447 171.546842 
L 198.510865 183.647263 
L 198.567103 179.483677 
L 198.595223 180.784798 
L 198.651461 185.745319 
L 198.7077 183.224398 
L 199.059192 158.405525 
L 199.382564 70.677478 
L 199.410683 65.16398 
L 199.452862 76.792744 
L 199.748115 162.959447 
L 199.762175 161.658327 
L 199.804354 158.161565 
L 199.832473 162.829335 
L 200.113667 231.62608 
L 200.141786 225.445758 
L 200.169905 221.038212 
L 200.212084 233.772929 
L 200.226144 235.887249 
L 200.282383 228.844935 
L 200.521397 136.449118 
L 200.690113 112.980157 
L 200.718232 110.4755 
L 200.760411 117.078687 
L 200.81665 126.34917 
L 200.872889 121.258536 
L 200.901008 118.835199 
L 200.943187 124.527601 
L 200.971306 129.309219 
L 201.027545 122.088 
L 201.041605 120.835672 
L 201.083784 123.568025 
L 201.125963 122.283168 
L 201.266559 147.655018 
L 201.477454 198.040908 
L 201.533693 204.05859 
L 201.589931 199.732364 
L 201.969542 173.921387 
L 201.997662 175.124923 
L 202.0539 178.735533 
L 202.096079 174.214139 
L 202.194497 168.115137 
L 202.278855 168.456681 
L 202.335094 167.350729 
L 202.363213 168.245249 
L 202.574108 181.126342 
L 202.588168 182.264822 
L 202.644406 180.199293 
L 202.686585 181.516678 
L 202.785003 182.915382 
L 202.799063 182.394934 
L 203.038077 146.581593 
L 203.248972 77.719792 
L 203.277091 81.11897 
L 203.291151 81.476778 
L 203.34739 66.611476 
L 203.403628 80.143129 
L 203.684822 160.633694 
L 203.727001 158.470581 
L 203.797299 169.985498 
L 204.050373 227.966679 
L 204.092552 219.834676 
L 204.106612 218.403443 
L 204.134731 223.672981 
L 204.17691 233.480177 
L 204.233149 226.047526 
L 204.654939 110.182748 
L 204.697118 114.720406 
L 204.767416 124.023417 
L 204.823655 118.900255 
L 204.837714 117.745511 
L 204.865834 120.412808 
L 204.922072 134.920301 
L 205.00643 131.488596 
L 205.090788 136.107573 
L 205.470399 206.026535 
L 205.484459 206.546983 
L 205.498518 205.099486 
L 205.83595 164.504528 
L 205.920308 162.341415 
L 205.878129 164.63464 
L 205.948428 164.244304 
L 205.990607 168.407889 
L 206.074965 167.074241 
L 206.159323 171.075186 
L 206.201502 169.107241 
L 206.2718 161.170406 
L 206.313979 166.635112 
L 206.342098 170.018026 
L 206.412397 165.675536 
L 206.454576 167.643481 
L 206.70765 190.396825 
L 206.749829 189.957697 
L 206.890425 184.102655 
L 207.002903 161.072822 
L 207.241917 76.922856 
L 207.270036 79.947961 
L 207.284096 80.305769 
L 207.340335 63.033395 
L 207.396573 79.281137 
L 207.832423 186.412144 
L 207.9449 197.60178 
L 208.155795 230.991784 
L 208.183915 233.659081 
L 208.226094 229.040103 
L 208.647883 106.783571 
L 208.676003 105.823994 
L 208.704122 109.320756 
L 208.915017 134.058309 
L 208.971256 132.025308 
L 209.055614 139.994671 
L 209.111852 148.077882 
L 209.19621 147.232153 
L 209.393046 183.27319 
L 209.575821 201.635253 
L 209.589881 201.635253 
L 209.674239 192.44609 
L 209.899194 156.551429 
L 209.927313 154.859972 
L 209.969492 158.730806 
L 210.194447 173.140715 
L 210.208506 172.197402 
L 210.222566 171.57937 
L 210.264745 173.644899 
L 210.349103 175.726692 
L 210.377222 174.685795 
L 210.433461 170.294514 
L 210.4897 174.490627 
L 210.531879 179.060813 
L 210.602177 176.019444 
L 210.630296 175.531524 
L 210.644356 176.377252 
L 210.784953 188.59152 
L 210.813072 186.753688 
L 210.88337 188.624048 
L 211.023967 167.789857 
L 211.361399 65.391676 
L 211.375459 66.042236 
L 212.092502 215.069322 
L 212.106561 215.004266 
L 212.120621 215.069322 
L 212.219039 228.844935 
L 212.261217 221.900204 
L 212.683007 104.50661 
L 212.711127 105.514978 
L 212.837664 118.412335 
L 213.104797 154.72986 
L 213.161036 149.08625 
L 213.189155 148.094146 
L 213.231334 150.582539 
L 213.554707 197.455404 
L 213.610945 200.838317 
L 213.653124 198.057172 
L 213.962437 151.655963 
L 214.060855 151.981243 
L 214.074914 151.948715 
L 214.356108 175.35262 
L 214.440466 171.465522 
L 214.482645 170.099346 
L 214.496704 171.140242 
L 214.538883 177.06034 
L 214.609182 172.018498 
L 214.707599 180.703477 
L 214.848196 187.45304 
L 214.904435 191.144969 
L 214.974733 189.144497 
L 215.10127 161.707119 
L 215.396523 69.116133 
L 215.410583 66.920492 
L 215.452762 73.735111 
L 215.93079 176.686268 
L 216.085446 200.464245 
L 216.282282 230.503863 
L 216.324461 225.087949 
L 216.746251 109.41834 
L 216.816549 112.589821 
L 216.929026 125.844986 
L 217.083683 141.263263 
L 217.153981 152.550483 
L 217.224279 145.947297 
L 217.266458 143.979352 
L 217.294578 146.484009 
L 217.688248 204.188702 
L 217.885084 177.694636 
L 218.067859 152.859499 
L 218.124098 150.517483 
L 218.152217 152.615539 
L 218.391232 176.263404 
L 218.405291 176.117028 
L 218.517769 171.33541 
L 218.545888 172.961811 
L 218.588067 175.124923 
L 218.630246 171.611898 
L 218.658365 170.213194 
L 218.714604 172.034762 
L 218.981738 193.373138 
L 219.052036 189.518569 
L 219.108275 183.468358 
L 219.473826 65.2453 
L 219.544124 83.119442 
L 219.825317 165.382784 
L 219.867496 162.813071 
L 219.881556 162.780543 
L 220.261167 216.64693 
L 220.345525 231.235744 
L 220.387704 223.054949 
L 220.809494 106.279387 
L 220.837613 107.401603 
L 220.97821 124.137265 
L 221.175045 150.517483 
L 221.217224 152.160147 
L 221.259403 149.379002 
L 221.371881 145.459377 
L 221.38594 145.735865 
L 221.498418 160.649958 
L 221.737432 204.660358 
L 221.779611 199.667308 
L 222.131103 149.200098 
L 222.145162 149.037458 
L 222.159222 149.444058 
L 222.25764 158.58443 
L 222.440415 177.678372 
L 222.468535 177.336828 
L 222.735668 170.717378 
L 222.777847 172.164874 
L 223.08716 192.917746 
L 223.129339 190.104073 
L 223.199637 176.100764 
L 223.537069 60.040818 
L 223.551129 61.30941 
L 224.029157 177.971125 
L 224.085396 177.564524 
L 224.127575 180.069181 
L 224.33847 224.014525 
L 224.408768 235.854721 
L 224.450947 229.365383 
L 224.886797 103.85605 
L 224.957095 109.450868 
L 225.280468 148.468218 
L 225.336706 144.678705 
L 225.435124 141.344583 
L 225.477303 143.084832 
L 225.575721 160.487318 
L 225.800675 203.619462 
L 225.856914 199.325764 
L 226.01157 180.004125 
L 226.222465 147.94777 
L 226.363062 159.836758 
L 226.44742 169.351201 
L 226.517718 178.654213 
L 226.573957 176.474836 
L 226.630196 174.230403 
L 226.700494 175.368884 
L 226.784852 169.318673 
L 226.812971 168.310305 
L 226.85515 171.075186 
L 227.037926 187.94096 
L 227.150403 197.357819 
L 227.206642 194.137546 
L 227.26288 186.135655 
L 227.628432 57.975289 
L 227.670611 67.587317 
L 228.148639 182.069654 
L 228.176759 182.655158 
L 228.275176 197.943324 
L 228.500131 237.611234 
L 228.514191 236.635394 
L 228.696966 195.991643 
L 228.992219 99.334656 
L 229.062518 106.832363 
L 229.189055 130.138683 
L 229.37183 151.818603 
L 229.39995 149.590434 
L 229.512427 141.621071 
L 229.554606 144.792553 
L 229.653024 156.209885 
L 229.906098 209.393184 
L 229.948277 206.481927 
L 230.145112 165.561688 
L 230.327888 140.840399 
L 230.341947 140.450063 
L 230.370067 142.401744 
L 230.65126 181.305246 
L 230.679379 179.483677 
L 230.904334 165.903232 
L 230.918393 166.130928 
L 231.283945 204.920582 
L 231.368303 197.146387 
L 231.48078 152.273995 
L 231.747914 54.820072 
L 231.761973 55.389312 
L 232.000988 130.415171 
L 232.183763 165.52916 
L 232.633673 238.261794 
L 232.675852 232.43928 
L 232.985164 122.299432 
L 233.125761 97.496823 
L 233.15388 99.6762 
L 233.505372 150.875291 
L 233.617849 144.483536 
L 233.645969 143.76792 
L 233.688148 145.687073 
L 233.786565 158.568166 
L 234.039639 203.830894 
L 234.067759 202.220757 
L 234.250534 171.221562 
L 234.43331 144.597384 
L 234.461429 145.361793 
L 234.630145 163.772647 
L 234.812921 178.995757 
L 234.82698 178.881909 
L 234.8551 178.459045 
L 234.883219 179.402357 
L 234.911338 180.231821 
L 234.953517 177.938596 
L 235.051935 175.710428 
L 235.080054 176.344724 
L 235.403427 199.293236 
L 235.459665 193.877322 
L 235.558083 162.357679 
L 235.853336 53.323784 
L 235.909575 64.367044 
L 236.345424 185.810375 
L 236.626618 213.621825 
L 236.725035 235.675817 
L 236.781274 227.934151 
L 237.076527 126.170266 
L 237.217124 91.137597 
L 237.259303 94.35787 
L 237.610794 155.412948 
L 237.695152 151.135515 
L 237.751391 144.4998 
L 237.821689 149.964506 
L 237.835749 150.045826 
L 237.891988 159.64159 
L 238.131002 206.579511 
L 238.18724 202.838789 
L 238.313777 188.282504 
L 238.566851 144.223312 
L 238.580911 143.735392 
L 238.60903 144.678705 
L 238.946462 177.54826 
L 238.974582 177.515732 
L 239.002701 177.336828 
L 239.04488 177.613316 
L 239.05894 177.7109 
L 239.072999 177.531996 
L 239.129238 174.523155 
L 239.171417 176.474836 
L 239.508849 197.6831 
L 239.522909 197.666836 
L 239.579147 194.39777 
L 239.663505 174.165347 
L 240.000937 53.047295 
L 240.043116 63.586371 
L 240.464906 180.052917 
L 240.816398 228.633503 
L 240.858577 234.813825 
L 240.914816 226.454126 
L 241.378785 96.683623 
L 241.463143 106.588403 
L 241.786515 155.071404 
L 241.856813 150.110882 
L 241.884932 149.069986 
L 241.913052 147.020721 
L 241.955231 150.956611 
L 242.278603 205.03443 
L 242.320782 200.090172 
L 242.700393 145.703337 
L 242.770691 150.907819 
L 243.178422 184.265295 
L 243.206541 183.126814 
L 243.290899 176.97902 
L 243.361197 178.312669 
L 243.445555 181.012494 
L 243.65645 194.348978 
L 243.698629 192.332242 
L 243.768928 176.182084 
L 244.120419 49.745702 
L 244.162598 60.154666 
L 244.556269 178.377725 
L 244.823403 210.75936 
L 244.879641 215.10185 
L 244.978059 235.415593 
L 245.034298 225.933678 
L 245.470147 93.560934 
L 245.596684 106.572139 
L 245.891937 158.82839 
L 245.948176 155.852077 
L 245.990355 152.208939 
L 246.074713 153.623908 
L 246.18719 164.781016 
L 246.398085 197.699364 
L 246.440264 195.780211 
L 246.59492 178.133765 
L 246.819875 147.801394 
L 246.862054 149.346474 
L 247.03077 171.855858 
L 247.255725 189.697473 
L 247.326023 187.85964 
L 247.424441 181.679318 
L 247.494739 183.468358 
L 247.536918 183.321982 
L 247.550978 183.43583 
L 247.621276 185.859167 
L 247.761873 193.080386 
L 247.789992 191.665417 
L 247.902469 171.611898 
L 248.239901 52.835863 
L 248.29614 61.423258 
L 248.774169 192.803898 
L 248.872586 200.675677 
L 249.1116 232.60192 
L 249.167839 221.981524 
L 249.617748 92.926638 
L 249.673987 98.814208 
L 249.786464 119.599607 
L 250.025479 158.291677 
L 250.039538 158.324205 
L 250.109837 155.347892 
L 250.166075 156.779125 
L 250.306672 168.131401 
L 250.531627 197.569252 
L 250.559746 196.251867 
L 250.770641 166.326096 
L 250.897178 150.924083 
L 250.939357 150.956611 
L 250.981536 149.24889 
L 251.023715 150.956611 
L 251.459565 182.13471 
L 251.543923 178.442781 
L 251.600161 180.931174 
L 251.867295 195.227235 
L 251.881355 195.357347 
L 251.895414 194.885691 
L 252.007892 187.37172 
L 252.162548 136.888246 
L 252.429682 53.697856 
L 252.48592 66.042236 
L 252.935829 192.055754 
L 253.076426 208.401079 
L 253.273261 231.024312 
L 253.287321 232.016416 
L 253.31544 229.267799 
L 253.76535 91.934533 
L 253.891887 102.652513 
L 253.962185 118.900255 
L 254.18714 162.243831 
L 254.243378 166.114664 
L 254.299617 162.552847 
L 254.313677 161.886023 
L 254.369915 164.341888 
L 254.496452 172.213666 
L 254.707347 190.234185 
L 254.777646 186.688632 
L 255.157257 152.420371 
L 255.185376 152.794443 
L 255.241615 156.291205 
L 255.480629 176.604948 
L 255.621226 181.191398 
L 255.677464 179.109605 
L 255.733703 176.946492 
L 255.761822 178.296405 
L 255.832121 184.460463 
L 255.902419 181.97207 
L 256.000837 185.924223 
L 256.043016 188.770424 
L 256.099254 185.582679 
L 256.239851 172.457627 
L 256.366388 124.934201 
L 256.605402 59.325202 
L 256.619462 59.43905 
L 256.70382 88.584148 
L 257.027192 177.564524 
L 257.322445 215.866258 
L 257.350564 214.174802 
L 257.364624 213.686881 
L 257.392743 216.386706 
L 257.463042 229.251535 
L 257.505221 222.957365 
L 257.95513 96.260759 
L 258.025428 102.050745 
L 258.405039 163.967815 
L 258.545636 163.658799 
L 258.869008 190.087809 
L 258.897128 188.656576 
L 259.2205 149.89945 
L 259.23456 149.964506 
L 259.290798 153.542588 
L 259.600111 170.213194 
L 259.796946 180.508309 
L 259.937543 185.029703 
L 260.007841 189.941433 
L 260.05002 192.917746 
L 260.106259 189.274609 
L 260.218736 185.338719 
L 260.260915 186.31456 
L 260.289034 185.566415 
L 260.401512 174.311723 
L 260.556168 138.726078 
L 260.823302 56.966921 
L 260.837361 56.251305 
L 260.851421 57.942761 
L 261.512225 217.297491 
L 261.526285 217.102323 
L 261.582524 211.00332 
L 261.624703 216.955947 
L 261.680941 228.291959 
L 261.73718 217.541451 
L 262.14491 95.301183 
L 262.17303 96.098119 
L 262.299567 113.793357 
L 262.651058 166.83028 
L 262.735416 164.618376 
L 262.861953 175.889332 
L 263.058789 188.624048 
L 263.100968 188.249976 
L 263.143147 185.420039 
L 263.4384 147.036985 
L 263.452459 147.394793 
L 263.522758 153.201044 
L 263.803951 172.636531 
L 263.874249 176.507364 
L 263.930488 174.132819 
L 263.944547 173.872595 
L 263.972667 175.255036 
L 264.099204 183.940015 
L 264.155442 183.712319 
L 264.2398 190.380561 
L 264.310099 187.030176 
L 264.563173 180.622157 
L 264.619411 175.2713 
L 264.774068 138.904982 
L 265.041201 61.569635 
L 265.055261 61.325674 
L 265.125559 84.501883 
L 265.434872 178.881909 
L 265.477051 183.208134 
L 265.744185 219.200379 
L 265.758244 218.159483 
L 265.814483 211.572561 
L 265.856662 219.639508 
L 265.898841 225.836094 
L 265.94102 218.370915 
L 266.34875 96.325815 
L 266.36281 96.813735 
L 266.573705 133.228844 
L 266.658063 152.436635 
L 266.728361 150.842763 
L 267.164211 193.698418 
L 267.262629 188.1036 
L 267.375106 176.751324 
L 267.586001 152.648067 
L 267.61412 152.013771 
L 267.656299 153.623908 
L 267.768776 159.755438 
L 268.120268 174.767115 
L 268.148387 174.669531 
L 268.162447 174.832171 
L 268.232745 183.614735 
L 268.373342 187.241608 
L 268.44364 189.453513 
L 268.47176 187.843376 
L 268.542058 183.061758 
L 268.612356 184.265295 
L 268.668595 181.614262 
L 268.921669 151.054195 
L 269.245041 55.405576 
L 269.273161 60.024554 
L 269.596533 181.939542 
L 269.624652 179.516205 
L 269.652772 177.694636 
L 269.680891 180.719741 
L 269.933965 224.843989 
L 269.976144 219.834676 
L 270.004263 215.18317 
L 270.046442 222.859781 
L 270.088621 231.252008 
L 270.1308 221.119532 
L 270.496352 101.400185 
L 270.538531 99.090696 
L 270.56665 102.424817 
L 270.833784 153.18478 
L 270.861903 152.013771 
L 270.918142 147.671282 
L 270.96032 152.436635 
L 271.283693 193.438194 
L 271.339931 195.975379 
L 271.368051 193.66589 
L 271.733602 148.19173 
L 271.747662 148.240522 
L 271.761721 148.224258 
L 271.860139 152.696859 
L 272.056974 164.276832 
L 272.422526 193.535778 
L 272.464705 197.309027 
L 272.520943 192.868954 
L 272.577182 189.486041 
L 272.633421 192.28345 
L 272.64748 192.494882 
L 272.66154 191.681681 
L 272.900554 176.360988 
L 272.928674 175.873068 
L 272.956793 177.109132 
L 272.984912 178.393989 
L 273.013032 175.742956 
L 273.195807 116.411862 
L 273.364523 72.417726 
L 273.378583 72.791799 
L 273.406702 70.905174 
L 273.448881 62.773171 
L 273.477001 70.531102 
L 273.744134 166.456208 
L 273.91285 183.679791 
L 274.137805 230.942992 
L 274.208103 216.191538 
L 274.222163 216.32165 
L 274.278402 226.193902 
L 274.320581 215.801202 
L 274.601774 108.149747 
L 274.615834 108.637668 
L 274.672072 111.890469 
L 274.714251 108.914156 
L 274.728311 108.442499 
L 274.74237 109.2557 
L 275.037623 144.678705 
L 275.051683 144.17452 
L 275.093862 140.287423 
L 275.136041 146.109937 
L 275.375055 199.488404 
L 275.403175 198.610148 
L 275.810905 152.322787 
L 275.853084 156.421317 
L 275.909323 164.732224 
L 275.965561 159.544006 
L 275.993681 158.503109 
L 276.049919 160.389734 
L 276.063979 160.601166 
L 276.092098 160.340942 
L 276.190516 148.061618 
L 276.246755 156.388789 
L 276.499829 191.144969 
L 276.542008 190.185393 
L 276.556067 189.908905 
L 276.584187 190.559465 
L 276.640425 194.674259 
L 276.682604 191.210025 
L 276.752903 183.468358 
L 276.823201 185.696527 
L 276.837261 185.729055 
L 276.921619 181.451622 
L 276.963798 183.891223 
L 277.005977 186.672368 
L 277.048156 182.492518 
L 277.329349 138.709814 
L 277.469946 79.720265 
L 277.582423 81.151498 
L 277.652721 71.37683 
L 277.680841 80.387089 
L 277.807378 134.464909 
L 277.863616 131.537388 
L 277.919855 146.565329 
L 278.088571 174.197875 
L 278.327585 236.554074 
L 278.369764 226.616766 
L 278.665017 145.215417 
L 278.679077 145.101569 
L 278.735315 132.96862 
L 278.777494 122.559657 
L 278.847793 130.642867 
L 278.875912 129.016467 
L 278.94621 119.258063 
L 279.002449 125.389594 
L 279.044628 129.878459 
L 279.086807 122.136792 
L 279.128986 113.159061 
L 279.185225 125.275746 
L 279.494537 196.089227 
L 279.564836 202.269549 
L 279.592955 197.829476 
L 279.81791 161.511951 
L 279.860089 157.218253 
L 279.916327 162.585375 
L 280.070984 167.838649 
L 280.085043 168.033817 
L 280.099103 167.773593 
L 280.366237 149.639226 
L 280.408416 152.225203 
L 280.675549 185.468831 
L 280.703669 184.980911 
L 280.788027 181.64679 
L 280.830206 183.956279 
L 280.858325 186.168183 
L 280.914564 181.40283 
L 280.942683 180.150501 
L 280.984862 183.891223 
L 281.041101 186.753688 
L 281.097339 184.606839 
L 281.533189 154.063036 
L 281.884681 73.003231 
L 281.89874 75.426568 
L 282.236172 167.220617 
L 282.250232 167.090505 
L 282.264291 167.513369 
L 282.33459 178.280141 
L 282.559544 227.869094 
L 282.601723 220.127428 
L 282.896976 150.240995 
L 282.911036 150.972875 
L 282.939155 152.371579 
L 282.967275 149.053722 
L 283.15005 130.041099 
L 283.262528 126.007626 
L 283.304707 126.544338 
L 283.332826 125.129369 
L 283.389065 120.13632 
L 283.417184 123.909569 
L 283.740556 192.803898 
L 283.768676 189.372193 
L 283.881153 175.173715 
L 283.923332 177.255508 
L 283.937392 177.775956 
L 283.965511 175.791748 
L 284.092048 163.300991 
L 284.120167 164.488264 
L 284.246704 171.611898 
L 284.274824 170.701114 
L 284.401361 156.356261 
L 284.471659 160.926446 
L 284.485719 161.02403 
L 284.584136 148.289314 
L 284.640375 156.600221 
L 284.809091 171.676954 
L 284.907509 178.816853 
L 284.949688 177.7109 
L 284.963747 177.515732 
L 284.977807 178.003653 
L 285.062165 182.899118 
L 285.118404 180.183029 
L 285.132463 179.727637 
L 285.160583 180.963702 
L 285.259 189.388457 
L 285.301179 184.948383 
L 285.343358 180.036653 
L 285.427716 181.126342 
L 285.483955 178.507837 
L 285.554253 170.701114 
L 285.624552 173.775011 
L 285.652671 174.555683 
L 285.68079 173.709955 
L 285.863566 141.507223 
L 286.032282 91.560461 
L 286.060401 92.40619 
L 286.074461 92.81279 
L 286.08852 91.885741 
L 286.158819 73.328511 
L 286.200998 87.754684 
L 286.327535 140.043463 
L 286.369714 130.93562 
L 286.397833 125.991362 
L 286.440012 135.912405 
L 286.552489 163.008239 
L 286.594668 160.991502 
L 286.608728 160.178302 
L 286.636847 162.682959 
L 286.875862 219.981052 
L 286.903981 216.435498 
L 287.213294 158.372997 
L 287.297652 159.983134 
L 287.38201 144.41848 
L 287.452308 138.709814 
L 287.508547 139.197735 
L 287.536666 139.620599 
L 287.550726 139.327847 
L 287.663203 121.827776 
L 287.747561 131.374748 
L 288.042814 161.577007 
L 288.070933 162.390207 
L 288.113112 160.259622 
L 288.19747 150.989139 
L 288.239649 154.794916 
L 288.520843 176.767588 
L 288.61926 181.679318 
L 288.661439 179.125869 
L 288.731738 174.783379 
L 288.787976 177.044076 
L 288.844215 180.638421 
L 288.886394 177.418148 
L 288.956692 173.677427 
L 289.026991 174.588211 
L 289.097289 170.327042 
L 289.308184 157.722437 
L 289.364422 158.259149 
L 289.4769 157.738701 
L 289.490959 157.933869 
L 289.800272 171.969706 
L 290.053346 187.095232 
L 290.067406 187.062704 
L 290.123644 183.826167 
L 290.278301 152.420371 
L 290.489196 128.187003 
L 290.587613 119.567079 
L 290.643852 122.852409 
L 290.686031 124.332433 
L 290.72821 122.071736 
L 290.868807 109.450868 
L 290.939105 112.980157 
L 291.192179 157.624853 
L 291.403074 187.12776 
L 291.459313 188.75416 
L 291.515551 187.37172 
L 291.58585 191.144969 
L 291.698327 196.381979 
L 291.740506 195.487459 
L 291.768625 194.576674 
L 291.810804 195.894059 
L 291.838924 197.048803 
L 291.895162 194.788107 
L 292.541907 129.910987 
L 292.668444 127.276218 
L 292.696563 127.503914 
L 292.879339 146.906873 
L 293.23083 179.792693 
L 293.540143 190.413089 
L 293.568262 190.282977 
L 293.624501 189.795057 
L 294.018172 167.106769 
L 294.10253 169.221089 
L 294.130649 169.546369 
L 294.172828 169.042185 
L 294.383723 163.967815 
L 294.439962 164.049135 
L 294.552439 160.812598 
L 294.91799 124.364961 
L 294.974229 122.624713 
L 295.016408 123.990889 
L 295.114826 129.065259 
L 295.157005 126.284114 
L 295.255422 118.818935 
L 295.297601 121.160952 
L 295.930286 186.005543 
L 296.056823 188.868008 
L 296.239599 196.089227 
L 296.267718 195.454931 
L 296.352076 185.875431 
L 296.675448 149.118778 
L 296.689508 148.582066 
L 296.745747 150.045826 
L 296.801985 151.786075 
L 296.830105 150.680123 
L 297.069119 131.732556 
L 297.111298 132.984884 
L 297.251895 140.759079 
L 297.617446 172.831699 
L 297.926759 189.502305 
L 297.954878 189.420985 
L 297.997057 188.851744 
L 298.404787 169.627689 
L 298.461026 170.229458 
L 298.475086 170.343306 
L 298.503205 169.904178 
L 298.742219 158.145301 
L 298.826577 160.29215 
L 298.868756 160.991502 
L 298.896876 160.259622 
L 299.023413 144.987721 
L 299.276487 118.509919 
L 299.318666 117.062423 
L 299.360845 119.046631 
L 299.487382 132.789716 
L 299.57174 129.048995 
L 299.627978 126.300378 
L 299.670157 128.219531 
L 300.302842 181.760638 
L 300.316902 181.354038 
L 300.37314 179.369829 
L 300.415319 180.670949 
L 300.626214 189.648681 
L 300.640274 189.860113 
L 300.668393 189.290873 
L 301.090183 156.762861 
L 301.174541 158.080245 
L 301.23078 152.892027 
L 301.483854 131.553652 
L 301.497914 131.537388 
L 301.540093 133.147524 
L 301.919704 162.357679 
L 301.933763 162.341415 
L 301.961883 162.211303 
L 301.990002 162.536583 
L 302.0603 167.757329 
L 302.327434 187.729528 
L 302.341494 187.583152 
L 302.721105 176.4911 
L 302.791403 178.556629 
L 302.819522 178.914437 
L 302.847642 177.841012 
L 303.114775 164.000343 
L 303.32567 162.243831 
L 303.438148 141.89756 
L 303.606864 119.388175 
L 303.649043 119.89236 
L 303.691222 118.119583 
L 303.74746 115.79383 
L 303.789639 118.623767 
L 303.902117 133.700501 
L 303.972415 129.976043 
L 304.056773 124.055945 
L 304.098952 126.316642 
L 304.675398 183.11055 
L 304.689458 183.338246 
L 304.731637 182.492518 
L 304.801935 179.418621 
L 304.844114 181.56547 
L 304.956591 189.616153 
L 305.02689 189.095705 
L 305.083128 190.234185 
L 305.111248 189.339665 
L 305.926708 129.992307 
L 305.982947 133.342692 
L 306.179782 154.16062 
L 306.348498 163.057031 
L 306.362558 162.991975 
L 306.376618 162.991975 
L 306.418797 164.14672 
L 306.756229 191.275081 
L 306.840587 185.842903 
L 306.910885 181.630526 
L 306.967124 183.663527 
L 307.023362 185.322455 
L 307.065541 184.102655 
L 307.178019 174.653267 
L 307.234257 178.312669 
L 307.262377 179.190925 
L 307.304556 177.157924 
L 307.459212 163.219671 
L 307.52951 165.675536 
L 307.571689 166.879073 
L 307.599809 165.399048 
L 308.176255 113.272909 
L 308.190314 113.809621 
L 308.302792 130.707923 
L 308.37309 123.470441 
L 308.443388 117.322647 
L 308.485567 121.616344 
L 308.612104 136.66055 
L 308.668343 136.465382 
L 308.724582 148.43569 
L 308.921417 177.499468 
L 309.076073 191.600361 
L 309.146372 186.981384 
L 309.174491 185.420039 
L 309.21667 188.5102 
L 309.315088 199.55346 
L 309.371326 195.975379 
L 309.680639 170.457154 
L 309.905594 148.793498 
L 310.088369 139.718183 
L 310.285205 123.649345 
L 310.355503 129.276691 
L 311.128785 196.983747 
L 311.156904 197.894532 
L 311.199083 195.633835 
L 311.564634 167.627217 
L 311.606813 168.993393 
L 311.620873 169.253617 
L 311.648992 168.424153 
L 311.845827 157.380893 
L 311.930185 157.901341 
L 311.986424 155.868341 
L 312.028603 154.794916 
L 312.070782 156.047245 
L 312.112961 157.787493 
L 312.14108 155.835813 
L 312.506632 114.687878 
L 312.520691 114.785462 
L 312.605049 126.641922 
L 312.661288 135.505805 
L 312.717527 130.171211 
L 312.801885 125.161897 
L 312.844064 127.357538 
L 312.928422 137.847822 
L 312.99872 134.985357 
L 313.01278 134.627549 
L 313.040899 135.424485 
L 313.111197 155.266572 
L 313.265854 175.531524 
L 313.350212 185.062231 
L 313.448629 193.958642 
L 313.490808 190.559465 
L 313.547047 183.19187 
L 313.603286 189.177025 
L 313.673584 198.561356 
L 313.729823 194.023698 
L 313.772002 190.754633 
L 313.82824 193.633362 
L 313.85636 194.495354 
L 313.898539 192.332242 
L 314.025076 174.880963 
L 314.292209 146.711705 
L 314.362508 147.801394 
L 314.376567 147.443586 
L 314.68588 126.885882 
L 314.756178 129.374275 
L 314.812417 136.302741 
L 315.07955 170.099346 
L 315.135789 169.269881 
L 315.290445 177.808484 
L 315.445102 184.509255 
L 315.50134 188.282504 
L 315.543519 192.03949 
L 315.599758 187.697 
L 315.768474 178.881909 
L 315.852832 173.921387 
L 315.95125 169.334937 
L 315.993429 171.66069 
L 316.021548 172.864227 
L 316.077787 170.652322 
L 316.190264 161.755911 
L 316.246503 163.577479 
L 316.260562 163.870231 
L 316.302741 162.715487 
L 316.401159 158.649486 
L 316.457398 160.812598 
L 316.513636 164.423208 
L 316.555815 160.78007 
L 316.921367 113.272909 
L 317.005725 123.990889 
L 317.076023 132.675868 
L 317.118202 126.934674 
L 317.1885 121.778984 
L 317.230679 123.535497 
L 317.329097 133.245108 
L 317.413455 129.927251 
L 317.455634 133.651709 
L 317.821185 197.048803 
L 317.835245 196.707259 
L 317.905543 187.810848 
L 317.947722 182.476254 
L 318.003961 189.355929 
L 318.088319 201.700309 
L 318.130498 196.886163 
L 318.172677 191.535305 
L 318.228916 195.829003 
L 318.271095 198.480036 
L 318.313274 196.284395 
L 318.692884 140.173575 
L 318.749123 144.711233 
L 318.791302 146.955665 
L 318.833481 143.101096 
L 319.016257 132.041572 
L 319.142794 123.925833 
L 319.184973 126.056418 
L 319.522405 172.522683 
L 319.564584 171.514314 
L 319.606763 170.408362 
L 319.663001 171.546842 
L 319.972314 189.908905 
L 320.014493 188.02228 
L 320.281627 172.360042 
L 320.365985 169.79033 
L 320.408164 170.912546 
L 320.478462 172.831699 
L 320.520641 171.367938 
L 320.619059 164.423208 
L 320.689357 165.870704 
L 320.703417 165.886968 
L 320.717476 165.77312 
L 320.815894 161.463159 
L 320.872133 163.089559 
L 320.928371 165.138824 
L 320.97055 162.390207 
L 321.336102 111.516397 
L 321.39234 116.997367 
L 321.490758 129.878459 
L 321.532937 125.178161 
L 321.603235 118.152111 
L 321.659474 121.502496 
L 321.743832 130.903092 
L 321.800071 126.251586 
L 321.82819 125.210689 
L 321.856309 127.73161 
L 321.954727 163.187143 
L 322.095324 175.303828 
L 322.221861 197.552988 
L 322.306219 190.348033 
L 322.362457 186.200711 
L 322.404636 190.494409 
L 322.488994 204.579038 
L 322.545233 197.097595 
L 322.601471 191.421457 
L 322.64365 196.414507 
L 322.685829 201.066013 
L 322.728008 195.747683 
L 322.981082 156.990557 
L 323.107619 139.783239 
L 323.163858 147.736338 
L 323.191977 150.663859 
L 323.248216 144.353424 
L 323.332574 131.01694 
L 323.388813 135.326901 
L 323.402872 135.375693 
L 323.473171 129.000203 
L 323.543469 123.795721 
L 323.585648 127.032258 
L 323.92308 178.280141 
L 323.993378 171.628162 
L 324.035557 168.668113 
L 324.077736 172.945547 
L 324.218333 184.509255 
L 324.246452 183.565943 
L 324.288631 182.834062 
L 324.33081 184.102655 
L 324.415168 190.868481 
L 324.457347 185.452567 
L 324.555765 172.376306 
L 324.612004 175.938124 
L 324.626063 176.16582 
L 324.654183 174.994811 
L 324.76666 168.033817 
L 324.822899 168.603057 
L 324.907257 170.571002 
L 324.935376 169.578897 
L 325.047853 158.958502 
L 325.104092 163.902759 
L 325.132211 165.740592 
L 325.18845 162.991975 
L 325.230629 161.170406 
L 325.272808 162.975711 
L 325.343106 167.545897 
L 325.385285 165.187616 
L 325.750837 111.679037 
L 325.807075 120.477864 
L 325.891433 133.895669 
L 325.947672 128.024362 
L 326.01797 120.4616 
L 326.074209 124.202321 
L 326.158567 132.64334 
L 326.200746 129.358011 
L 326.242925 126.18653 
L 326.271044 129.423067 
L 326.608476 198.447508 
L 326.650655 194.381506 
L 326.735013 186.591048 
L 326.749073 185.550151 
L 326.791252 190.282977 
L 326.903729 205.27839 
L 326.945908 197.813212 
L 327.002147 191.600361 
L 327.044326 197.227707 
L 327.100564 203.97727 
L 327.142743 196.512091 
L 327.353638 163.333519 
L 327.508295 142.678232 
L 327.564533 148.891082 
L 327.606712 152.664331 
L 327.648891 147.280945 
L 327.71919 131.700028 
L 327.789488 136.530438 
L 327.817607 135.359429 
L 327.930085 122.380752 
L 327.986323 127.373802 
L 328.267517 166.781488 
L 328.323755 175.011075 
L 328.379994 168.033817 
L 328.422173 164.602112 
L 328.464352 167.708537 
L 328.590889 181.24019 
L 328.633068 180.313141 
L 328.647128 180.052917 
L 328.675247 180.719741 
L 328.787724 190.120337 
L 328.843963 185.598943 
L 328.942381 172.652795 
L 329.012679 174.360515 
L 329.026739 174.718323 
L 329.054858 173.840067 
L 329.153276 165.268936 
L 329.195455 168.228985 
L 329.251693 173.417203 
L 329.307932 170.066818 
L 329.420409 163.366047 
L 329.462588 164.39068 
L 329.490708 164.943656 
L 329.561006 164.032871 
L 329.631304 158.454317 
L 329.687543 163.024503 
L 329.743781 166.66764 
L 329.78596 161.869759 
L 330.053094 123.714401 
L 330.137452 112.703669 
L 330.193691 119.81104 
L 330.278049 131.58618 
L 330.320228 128.593603 
L 330.376466 121.665136 
L 330.432705 128.138211 
L 330.531123 131.927724 
L 330.573302 130.545283 
L 330.587361 130.024835 
L 330.62954 132.415644 
L 330.995092 198.219812 
L 331.107569 189.469777 
L 331.149748 188.705368 
L 331.177867 189.404721 
L 331.276285 198.382452 
L 331.346583 193.373138 
L 331.388762 191.226289 
L 331.416882 193.99117 
L 331.47312 201.521405 
L 331.515299 196.316923 
L 331.852731 144.0932 
L 331.89491 141.149415 
L 331.937089 144.890137 
L 331.979268 148.614594 
L 332.021447 144.01188 
L 332.105805 131.195844 
L 332.162044 136.432854 
L 332.176104 136.855718 
L 332.204223 134.725133 
L 332.3167 120.526656 
L 332.372939 125.226953 
L 332.710371 172.978075 
L 332.808789 165.85444 
L 333.16028 189.567361 
L 333.1884 188.477672 
L 333.314937 174.685795 
L 333.385235 178.117501 
L 333.399294 178.280141 
L 333.413354 177.938596 
L 333.525831 167.513369 
L 333.610189 172.636531 
L 333.624249 173.222035 
L 333.666428 171.042658 
L 333.807025 164.14672 
L 333.821084 164.325624 
L 333.849204 164.764752 
L 333.891383 163.967815 
L 333.9898 161.479423 
L 334.031979 162.390207 
L 334.102278 166.407416 
L 334.144457 162.943183 
L 334.43971 123.763193 
L 334.510008 117.956943 
L 334.552187 121.258536 
L 334.650605 133.505332 
L 334.706843 128.935147 
L 334.749022 124.055945 
L 334.805261 129.764611 
L 334.917738 133.37522 
L 334.945858 132.659604 
L 334.973977 132.171684 
L 335.002096 134.432381 
L 335.367648 194.15381 
L 335.437946 185.257399 
L 335.466065 184.297823 
L 335.508244 186.672368 
L 335.648841 195.243499 
L 335.70508 191.014857 
L 335.747259 187.566888 
L 335.789438 191.031121 
L 335.845676 198.65894 
L 335.887855 191.437721 
L 336.070631 168.033817 
L 336.267466 143.426376 
L 336.309645 147.248417 
L 336.351824 150.501219 
L 336.394003 145.735865 
L 336.464302 132.139156 
L 336.52054 137.115942 
L 336.54866 139.457959 
L 336.590839 135.050413 
L 336.675197 123.015049 
L 336.731435 128.723715 
L 337.068867 175.482732 
L 337.111046 172.051026 
L 337.167285 165.838176 
L 337.209464 171.953442 
L 337.293822 182.443726 
L 337.35006 178.572893 
L 337.37818 177.206716 
L 337.420359 181.07755 
L 337.532836 190.169129 
L 337.575015 187.144024 
L 337.687492 177.320564 
L 337.729671 179.646317 
L 337.757791 181.093814 
L 337.79997 178.247613 
L 337.884328 167.025449 
L 337.940566 172.408835 
L 337.982745 175.303828 
L 338.024924 172.538947 
L 338.109282 163.008239 
L 338.179581 165.138824 
L 338.2077 165.20388 
L 338.249879 165.008712 
L 338.348297 158.974766 
L 338.376416 158.389261 
L 338.418595 160.113246 
L 338.474834 164.22804 
L 338.502953 161.365575 
L 338.756027 127.520178 
L 338.868504 119.502023 
L 338.896624 121.291064 
L 339.009101 134.904037 
L 339.05128 131.081996 
L 339.093459 124.137265 
L 339.149698 130.268795 
L 339.262175 136.98583 
L 339.290294 135.912405 
L 339.318414 134.529965 
L 339.360593 137.213526 
L 339.712084 191.535305 
L 339.782383 183.858695 
L 339.810502 182.21603 
L 339.8808 184.265295 
L 339.993278 193.763474 
L 340.035457 189.957697 
L 340.091695 183.061758 
L 340.147934 189.713737 
L 340.204173 197.374084 
L 340.246352 189.486041 
L 340.415068 171.90465 
L 340.611903 145.394321 
L 340.71032 152.615539 
L 341.019633 128.008098 
L 341.061812 129.732083 
L 341.357065 162.926919 
L 341.413304 171.465522 
L 341.483602 167.497105 
L 341.511721 166.927865 
L 341.539841 167.985025 
L 341.624199 178.198821 
L 341.722616 176.686268 
L 341.863213 185.111023 
L 341.947571 183.143078 
L 342.228764 168.456681 
L 342.270943 169.367465 
L 342.299063 169.70901 
L 342.341242 168.765697 
L 342.524017 163.675063 
L 342.566196 164.325624 
L 342.608375 164.699696 
L 342.650554 163.984079 
L 342.889569 148.76097 
L 343.086404 129.894723 
L 343.100464 130.024835 
L 343.128583 129.292955 
L 343.198881 120.185112 
L 343.25512 127.341274 
L 343.339478 137.55507 
L 343.381657 132.8873 
L 343.423836 124.804089 
L 343.494134 132.220476 
L 343.592552 139.344111 
L 343.648791 135.522069 
L 343.66285 135.587125 
L 343.747208 147.817658 
L 343.845626 173.677427 
L 343.929984 169.399993 
L 344.042461 190.331769 
L 344.11276 182.183502 
L 344.140879 180.963702 
L 344.211177 182.931646 
L 344.295535 192.250922 
L 344.323655 194.202602 
L 344.365834 191.128705 
L 344.422072 184.541783 
L 344.478311 189.567361 
L 344.52049 196.381979 
L 344.562669 191.177497 
L 344.731385 171.66069 
L 344.91416 148.712178 
L 344.94228 146.695441 
L 344.998518 151.542115 
L 345.026638 152.729387 
L 345.054757 150.273523 
L 345.167234 133.082468 
L 345.237533 136.90451 
L 345.35001 127.390066 
L 345.406249 129.471859 
L 345.954576 177.369356 
L 345.968635 177.3043 
L 345.982695 177.320564 
L 346.109232 183.842431 
L 346.249829 186.981384 
L 346.263888 186.769952 
L 346.868454 164.049135 
L 347.009051 161.463159 
L 347.515199 122.494601 
L 347.543318 124.413753 
L 347.669855 135.977461 
L 347.697974 133.733029 
L 347.754213 127.015994 
L 347.810452 133.13126 
L 348.091645 159.80423 
L 348.260361 176.881436 
L 348.358778 190.852217 
L 348.415017 185.127287 
L 348.457196 182.346142 
L 348.527494 183.891223 
L 348.625912 190.331769 
L 348.682151 186.282032 
L 348.738389 182.817798 
L 348.780568 185.159815 
L 348.836807 190.770897 
L 348.864926 186.818744 
L 349.047702 166.683904 
L 349.258597 146.028617 
L 349.300776 148.59833 
L 349.328895 150.436163 
L 349.371074 146.272577 
L 349.469492 133.13126 
L 349.525731 136.920774 
L 349.53979 136.839454 
L 349.624148 126.43049 
L 349.694447 133.570388 
L 350.045938 169.839122 
L 350.102177 167.692273 
L 350.116237 167.480841 
L 350.144356 168.391625 
L 350.523967 187.631944 
L 350.538027 187.45304 
L 350.580206 185.631471 
L 350.847339 170.083082 
L 350.903578 170.652322 
L 351.297249 160.893918 
L 351.789337 122.153056 
L 351.817456 123.990889 
L 351.943993 135.619653 
L 351.972112 132.431908 
L 352.028351 125.45465 
L 352.07053 131.488596 
L 352.183007 140.856663 
L 352.225186 138.270686 
L 352.239246 137.88035 
L 352.267365 139.848295 
L 352.632917 189.242081 
L 352.661036 186.656104 
L 352.731334 179.012021 
L 352.787573 181.630526 
L 352.91411 187.192816 
L 352.942229 185.647735 
L 352.998468 179.337301 
L 353.054707 183.923751 
L 353.110945 188.705368 
L 353.139065 185.062231 
L 353.223423 166.83028 
L 353.307781 168.228985 
L 353.532735 147.573698 
L 353.588974 151.477059 
L 353.603034 151.737283 
L 353.617093 151.281891 
L 353.912346 131.537388 
L 353.940466 133.326428 
L 354.334136 175.35262 
L 354.362256 173.823803 
L 354.404435 171.725746 
L 354.446614 174.051499 
L 354.699688 183.842431 
L 354.784046 184.606839 
L 354.812165 183.940015 
L 355.149597 165.252672 
L 355.177716 165.903232 
L 355.205836 166.456208 
L 355.248015 164.927392 
L 355.332373 161.609535 
L 355.346432 161.219198 
L 355.402671 162.699223 
L 355.43079 162.536583 
L 355.458909 162.959447 
L 355.487029 163.300991 
L 355.515148 162.471527 
L 355.641685 155.494268 
L 356.021296 125.096841 
L 356.175952 137.88035 
L 356.218131 134.090837 
L 356.246251 131.700028 
L 356.316549 135.099205 
L 356.372788 138.384534 
L 356.653981 177.564524 
L 356.71022 174.962283 
L 356.724279 175.027339 
L 356.850816 188.412616 
L 356.921115 182.37867 
L 357.033592 179.857749 
L 357.047652 180.166765 
L 357.13201 187.062704 
L 357.174189 183.696055 
L 357.244487 177.401884 
L 357.286666 180.703477 
L 357.328845 183.27319 
L 357.356964 179.874013 
L 357.567859 155.152724 
L 357.722516 148.11041 
L 357.764695 146.402689 
L 357.792814 148.500746 
L 357.820933 150.793971 
L 357.877172 147.557434 
L 358.074007 137.994198 
L 358.102127 136.449118 
L 358.144306 139.051358 
L 358.453618 166.781488 
L 358.903528 181.858222 
L 358.945707 179.516205 
L 359.086303 177.38562 
L 359.156601 172.506419 
L 359.283138 167.220617 
L 359.339377 167.968761 
L 359.353437 168.050081 
L 359.381556 167.789857 
L 359.451854 165.333992 
L 359.494033 163.252199 
L 359.564332 164.065399 
L 359.592451 164.439472 
L 359.62057 163.919023 
L 359.986122 141.816239 
L 360.140778 132.936092 
L 360.197017 129.732083 
L 360.239196 127.877986 
L 360.281375 131.569916 
L 360.393852 138.075518 
L 360.421971 137.424958 
L 360.47821 133.066204 
L 360.534449 137.197262 
L 360.801582 161.056558 
L 360.970298 174.311723 
L 361.082776 182.118446 
L 361.110895 180.817326 
L 361.181193 176.848908 
L 361.251492 178.068709 
L 361.30773 180.004125 
L 361.349909 181.419094 
L 361.392088 178.833117 
L 361.448327 174.750851 
L 361.518625 176.832644 
L 361.546745 176.393516 
L 361.631103 163.951551 
L 361.827938 152.664331 
L 361.982594 147.655018 
L 361.996654 147.915242 
L 362.052893 150.224731 
L 362.081012 147.508642 
L 362.193489 139.734447 
L 362.221609 140.238631 
L 362.263788 142.4668 
L 362.305967 140.092255 
L 362.334086 139.279055 
L 362.362205 141.360847 
L 362.769935 174.946019 
L 362.798055 174.181611 
L 362.812114 173.888859 
L 362.882413 174.588211 
L 362.924592 177.14166 
L 363.051129 182.752742 
L 363.079248 182.476254 
L 363.135487 180.849854 
L 363.177666 182.78527 
L 363.205785 183.630999 
L 363.247964 181.630526 
L 363.599456 162.959447 
L 363.627575 163.805175 
L 363.697873 165.301464 
L 363.725993 164.764752 
L 363.82441 160.015662 
L 363.866589 160.991502 
L 363.908768 162.926919 
L 363.965007 161.26799 
L 364.091544 150.761443 
L 364.316499 130.415171 
L 364.344618 131.309692 
L 364.358678 131.602444 
L 364.400857 130.496491 
L 364.428976 129.959779 
L 364.471155 131.765084 
L 364.597692 139.165207 
L 364.625811 138.417062 
L 364.66799 135.782293 
L 364.724229 138.661022 
L 364.794527 141.051831 
L 365.216317 179.955333 
L 365.258496 179.142133 
L 365.314735 177.938596 
L 365.455332 173.872595 
L 365.469391 174.132819 
L 365.52563 177.515732 
L 365.581869 175.141187 
L 365.638107 172.473891 
L 365.694346 174.002707 
L 365.708406 174.214139 
L 365.736525 173.010603 
L 366.059897 150.273523 
L 366.116136 147.671282 
L 366.144255 146.841817 
L 366.200494 148.76097 
L 366.270792 146.223785 
L 366.327031 142.271632 
L 366.397329 144.353424 
L 366.425448 144.33716 
L 366.453568 144.776289 
L 366.495747 143.963088 
L 366.509806 143.963088 
L 366.566045 148.533274 
L 366.945656 177.678372 
L 366.959716 177.499468 
L 366.987835 177.125396 
L 367.015954 177.597052 
L 367.170611 183.256926 
L 367.240909 182.248558 
L 367.353386 183.224398 
L 367.367446 182.980438 
L 367.479923 176.800116 
L 367.789236 160.519846 
L 367.831415 160.94271 
L 367.859534 161.089086 
L 367.873594 160.845126 
L 368.267265 143.003512 
L 368.393802 134.708869 
L 368.47816 136.205157 
L 368.492219 136.188893 
L 368.534398 137.197262 
L 368.562518 135.717237 
L 368.604697 133.163788 
L 368.646876 136.774398 
L 368.773413 142.938456 
L 368.801532 141.734919 
L 368.829651 139.897087 
L 368.87183 143.084832 
L 369.012427 155.949661 
L 369.054606 154.046772 
L 369.082725 155.478004 
L 369.237382 172.051026 
L 369.30768 170.424626 
L 369.462336 177.808484 
L 369.476396 177.288036 
L 369.546694 172.815435 
L 369.631052 173.612371 
L 369.673231 175.222508 
L 369.71541 172.376306 
L 369.799768 166.960393 
L 369.856007 167.871177 
L 369.912246 166.293568 
L 370.277797 150.631331 
L 370.362155 151.655963 
L 370.376214 151.786075 
L 370.390274 151.412003 
L 370.488692 145.296737 
L 370.587109 147.62249 
L 370.826124 159.869286 
L 371.022959 170.424626 
L 371.107317 176.312196 
L 371.163556 173.319619 
L 371.219794 175.303828 
L 371.318212 181.256454 
L 371.374451 178.670477 
L 371.41663 177.288036 
L 371.472868 179.239717 
L 371.543167 180.719741 
L 371.571286 179.955333 
L 371.711883 172.669059 
L 371.754062 173.352147 
L 371.782181 172.880491 
L 372.105553 159.72291 
L 372.147732 159.495214 
L 372.189911 159.836758 
L 372.24615 161.170406 
L 372.274269 160.29215 
L 372.65388 133.846877 
L 372.752298 135.261845 
L 372.822596 138.075518 
L 372.949133 142.352952 
L 372.991312 141.328319 
L 373.005372 141.068095 
L 373.033491 141.913824 
L 373.328744 162.975711 
L 373.553699 177.239244 
L 373.567759 177.125396 
L 373.581818 177.06034 
L 373.581818 177.06034 
" style="fill:none;stroke:#000000;stroke-linecap:square;stroke-width:1.5;"/>
   </g>
   <g id="patch_3">
    <path d="M 54 252 
L 54 34.56 
" style="fill:none;stroke:#000000;stroke-linecap:square;stroke-linejoin:miter;stroke-width:0.8;"/>
   </g>
   <g id="patch_4">
    <path d="M 388.8 252 
L 388.8 34.56 
" style="fill:none;stroke:#000000;stroke-linecap:square;stroke-linejoin:miter;stroke-width:0.8;"/>
   </g>
   <g id="patch_5">
    <path d="M 54 252 
L 388.8 252 
" style="fill:none;stroke:#000000;stroke-linecap:square;stroke-linejoin:miter;stroke-width:0.8;"/>
   </g>
   <g id="patch_6">
    <path d="M 54 34.56 
L 388.8 34.56 
" style="fill:none;stroke:#000000;stroke-linecap:square;stroke-linejoin:miter;stroke-width:0.8;"/>
   </g>
  </g>
 </g>
 <defs>
  <clipPath id="p8149047d6a">
   <rect height="217.44" width="334.8" x="54" y="34.56"/>
  </clipPath>
 </defs>
</svg>
